<?xml version="1.0" encoding="UTF-8" standalone="no"?>
<!-- Created with Inkscape (http://www.inkscape.org/) -->

<svg
   xmlns:dc="http://purl.org/dc/elements/1.1/"
   xmlns:cc="http://creativecommons.org/ns#"
   xmlns:rdf="http://www.w3.org/1999/02/22-rdf-syntax-ns#"
   xmlns:svg="http://www.w3.org/2000/svg"
   xmlns="http://www.w3.org/2000/svg"
   xmlns:sodipodi="http://sodipodi.sourceforge.net/DTD/sodipodi-0.dtd"
   xmlns:inkscape="http://www.inkscape.org/namespaces/inkscape"
   version="1.1"
   id="svg2"
   xml:space="preserve"
   width="4721.3335"
   height="1242.2"
   viewBox="0 0 4721.3335 1242.2"
   sodipodi:docname="G-Node_LogoLong.svg"
   inkscape:version="0.92.3 (2405546, 2018-03-11)"><metadata
     id="metadata8"><rdf:RDF><cc:Work
         rdf:about=""><dc:format>image/svg+xml</dc:format><dc:type
           rdf:resource="http://purl.org/dc/dcmitype/StillImage" /><dc:title></dc:title></cc:Work></rdf:RDF></metadata><defs
     id="defs6" /><sodipodi:namedview
     pagecolor="#ffffff"
     bordercolor="#666666"
     borderopacity="1"
     objecttolerance="10"
     gridtolerance="10"
     guidetolerance="10"
     inkscape:pageopacity="0"
     inkscape:pageshadow="2"
     inkscape:window-width="806"
     inkscape:window-height="480"
     id="namedview4"
     showgrid="false"
     inkscape:zoom="0.076461449"
     inkscape:cx="837.02311"
     inkscape:cy="621.09998"
     inkscape:window-x="0"
     inkscape:window-y="27"
     inkscape:window-maximized="0"
     inkscape:current-layer="g10" /><g
     id="g10"
     inkscape:groupmode="layer"
     inkscape:label="ink_ext_XXXXXX"
     transform="matrix(1.3333333,0,0,-1.3333333,0,1242.2)"><g
       id="g12"
       transform="scale(0.1)"><path
         d="m 11237.2,1906.29 v 984.61 h -372.3 c -58.8,0 -63.7,9.79 -63.7,63.67 v 195.89 c 0,58.77 4.9,68.56 63.7,68.56 h 700.5 c 53.9,0 63.7,-14.57 63.7,-68.56 v -1391.1 c 0,-39.18 -9.8,-53.86 -44.1,-73.45 -186.2,-112.65 -499.7,-186.11 -788.7,-186.11 -744.5,0 -1146.14,582.91 -1146.14,1665.47 0,1131.41 401.64,1729.07 1155.94,1729.07 259.6,0 534,-83.32 739.7,-230.24 29.4,-19.59 44.1,-39.18 44.1,-58.77 0,-9.78 0,-14.69 -14.7,-39.18 l -98,-200.9 c -4.9,-14.57 -19.6,-24.37 -34.3,-24.37 -9.8,0 -19.6,4.78 -34.3,14.57 -269.3,171.52 -391.8,220.51 -602.5,220.51 -504.5,0 -734.7,-416.4 -734.7,-1322.54 0,-1018.89 230.2,-1435.28 793.5,-1435.28 132.3,0 240,24.59 372.3,88.15"
         style="fill:#1c4f9c;fill-opacity:1;fill-rule:nonzero;stroke:none"
         id="path14"
         inkscape:connector-curvature="0" /><path
         d="m 12133.5,2665.61 v 230.19 c 0,53.87 9.8,63.66 63.7,63.66 h 1195.2 c 53.9,0 63.7,-9.79 63.7,-63.66 v -230.19 c 0,-53.86 -9.8,-63.66 -63.7,-63.66 h -1195.2 c -53.9,0 -63.7,9.8 -63.7,63.66"
         style="fill:#1c4f9c;fill-opacity:1;fill-rule:nonzero;stroke:none"
         id="path16"
         inkscape:connector-curvature="0" /><path
         d="m 15660.3,2161.07 c -24.5,186.1 -34.3,288.95 -34.3,416.28 v 2184.7 c 0,58.77 9.8,68.57 68.6,68.57 h 215.5 c 53.8,0 63.6,-9.8 63.6,-68.57 V 1627.14 c 0,-53.88 -9.8,-63.66 -63.6,-63.66 h -259.6 c -34.3,0 -58.8,14.68 -73.5,44.07 l -1092.3,2356.11 c -58.8,127.34 -88.2,225.29 -142.1,450.56 l 19.6,-112.52 c 19.6,-117.66 29.4,-240.09 29.4,-357.63 V 1627.14 c 0,-53.88 -9.8,-63.66 -68.6,-63.66 h -215.5 c -53.9,0 -63.7,9.78 -63.7,63.66 v 3134.91 c 0,58.77 9.8,68.57 63.7,68.57 h 303.7 c 34.3,0 53.9,-14.69 68.6,-48.98 L 15528,2562.77 c 44.1,-97.95 88.2,-225.39 132.3,-401.7"
         style="fill:#1c4f9c;fill-opacity:1;fill-rule:nonzero;stroke:none"
         id="path18"
         inkscape:connector-curvature="0" /><g
         id="g20"
         transform="scale(1.13461)"><path
           d="m 16300,2396.84 c 0,-677.77 -323.7,-1074.98 -863.4,-1074.98 -513.7,0 -811.6,388.57 -811.6,1053.4 0,677.77 319.5,1074.98 854.8,1074.98 518.1,0 820.2,-384.26 820.2,-1053.4 z m -341,-30.21 v 38.85 c 0,505.1 -172.8,781.36 -492.2,781.36 -328.1,0 -500.8,-263.3 -500.8,-768.42 0,-561.23 164.1,-833.26 500.8,-833.26 323.9,0 479.3,246.13 492.2,781.47"
           style="fill:#1c4f9c;fill-opacity:1;fill-rule:nonzero;stroke:none"
           id="path22"
           inkscape:connector-curvature="0" /></g><g
         id="g24"
         transform="scale(1.28006)"><path
           d="m 15959.4,1408.96 c -241.1,-183.73 -371.2,-237.29 -551,-237.29 -367.4,0 -585.5,355.81 -585.5,960.48 0,573.98 256.4,926.05 669.7,926.05 133.9,0 248.6,-34.52 405.6,-118.69 v 880.18 c 0,22.96 15.3,42.09 34.4,45.92 l 199.1,45.9 c 11.3,3.83 15.3,3.83 19,3.83 23,0 26.9,-7.65 26.9,-42.08 v -2066.4 c 0,-229.56 19,-317.64 91.8,-436.15 l 22.9,-38.35 c 3.9,-7.66 7.7,-15.31 7.7,-19.14 0,-11.47 -3.8,-15.3 -19.1,-22.95 l -168.5,-95.65 c -11.3,-7.65 -19,-11.48 -26.7,-11.48 -34.5,0 -91.8,103.3 -126.3,225.82 z m -61.2,1281.87 c -157,87.99 -252.5,118.59 -378.9,118.59 -279.3,0 -394.1,-191.29 -394.1,-661.96 0,-512.77 99.4,-723.2 344.4,-723.2 141.6,0 264,57.3 428.6,214.26 v 1052.31"
           style="fill:#1c4f9c;fill-opacity:1;fill-rule:nonzero;stroke:none"
           id="path26"
           inkscape:connector-curvature="0" /></g><g
         id="g28"
         transform="scale(1.4213)"><path
           d="m 15300.5,1847.83 c 17.2,-365.25 172.4,-565.1 444.6,-565.1 117.2,0 244.6,37.82 386,120.52 10.3,6.89 24.1,10.42 31,10.42 10.3,0 20.7,-6.9 24.1,-17.31 l 62,-130.94 c 3.5,-13.78 6.9,-17.14 6.9,-24.04 0,-31.09 -55.1,-65.55 -168.8,-113.79 -120.6,-48.24 -241.3,-72.36 -365.3,-72.36 -423.9,0 -696.2,327.34 -696.2,847.81 0,520.39 258.5,851.25 661.7,851.25 382.6,0 606.6,-272.29 613.5,-744.43 v -96.48 -3.45 c 0,-48.32 -6.9,-62.1 -38,-62.1 z m 3.4,206.82 h 723.8 c -6.9,320.53 -134.5,496.26 -358.4,496.26 -224,0 -351.6,-168.84 -365.4,-496.26"
           style="fill:#1c4f9c;fill-opacity:1;fill-rule:nonzero;stroke:none"
           id="path30"
           inkscape:connector-curvature="0" /></g><g
         id="g32"
         transform="scale(1.51928)"><path
           d="m 16088.1,2271.79 h 211.9 v -133.07 c 0,-159.37 -69.8,-165.9 -197.9,-165.9 -156.1,0 -209.5,29.62 -209.5,203.68 v 200.46 c 0,174.07 53.4,203.68 209.5,203.68 116.6,0 197.9,-9.82 197.9,-122.41 v -59.97 h -57.4 v 21.43 c 0,91.16 -19.8,103.46 -140.5,103.46 -134.7,0 -152,-18.07 -152,-149.49 v -193.85 c 0,-131.42 17.3,-149.49 152,-149.49 114.2,0 140.5,0.83 140.5,124.89 v 59.08 h -154.5 v 57.5"
           style="fill:#1c4f9c;fill-opacity:1;fill-rule:nonzero;stroke:none"
           id="path34"
           inkscape:connector-curvature="0" /></g><g
         id="g36"
         transform="scale(1.55419)"><path
           d="m 16062.3,2127.62 v -37.74 c 0,-89.11 15.3,-114.83 86,-114.83 82.7,0 100.3,1.61 100.3,81.93 h 51.4 v -15.24 c 0,-81.93 -20.1,-113.23 -142.9,-113.23 -134.9,0 -151,44.92 -151,211.13 0,169.43 27.3,211.19 151,211.19 122.8,0 142.9,-49.75 142.9,-161.36 v -61.85 z m 186.3,51.45 c 0,86.61 -1.6,125.16 -93.1,125.16 -91.5,0 -93.2,-38.55 -93.2,-125.16 h 186.3"
           style="fill:#1c4f9c;fill-opacity:1;fill-rule:nonzero;stroke:none"
           id="path38"
           inkscape:connector-curvature="0" /></g><g
         id="g40"
         transform="scale(1.58542)"><path
           d="m 16062.4,2298.2 h 50.3 v -48.77 h 1.6 c 18.9,38.57 42.5,55.09 92.9,55.09 63.7,0 92.8,-27.59 92.8,-107.83 v -32.25 h -45.6 c 0.8,73.99 -7.8,94.4 -65.3,94.4 -50.5,0.86 -76.4,-27.52 -76.4,-82.62 v -279.45 h -50.3 v 401.43"
           style="fill:#1c4f9c;fill-opacity:1;fill-rule:nonzero;stroke:none"
           id="path42"
           inkscape:connector-curvature="0" /></g><g
         id="g44"
         transform="scale(1.64055)"><path
           d="m 15804,2220.97 h 48.7 v -57.76 h 1.5 c 24.4,41.79 47.9,63.87 102.7,63.87 51.7,0 91.3,-11.39 111.1,-63.18 29.6,47.21 61.6,63.18 116.3,63.18 78.3,0 115.7,-38.04 115.7,-114.82 v -279.23 h -48.7 v 251.04 c 0,77.61 -32,94.35 -81.4,94.35 -62.3,0 -93.6,-25.07 -93.6,-101.16 v -244.23 h -48.7 v 268.53 c 0,57.83 -23.5,76.86 -76.8,76.86 -70.7,0 -98.1,-42.56 -98.1,-123.23 v -222.16 h -48.7 v 387.94"
           style="fill:#1c4f9c;fill-opacity:1;fill-rule:nonzero;stroke:none"
           id="path46"
           inkscape:connector-curvature="0" /></g><g
         id="g48"
         transform="scale(1.676)"><path
           d="m 16256.8,1827.02 c -27.5,-29.77 -55.1,-38.67 -111,-38.67 -96.8,0 -118.4,46.14 -118.4,119.13 0,74.48 17.2,119.12 118.4,119.12 72.3,0 87.9,-8.22 105.1,-34.25 h 1.5 v 69.25 c 0,55.86 -5.3,75.16 -84.2,75.16 -78.2,0 -79.7,-19.3 -79.7,-67.68 h -47.6 v 20.11 c 0,46.08 11.1,90.79 129.5,90.79 105.7,0 129.6,-34.25 129.6,-107.91 v -277.8 h -43.2 z m -90.9,8.97 c 63.4,0 90.9,15.63 90.9,73.73 0,58.1 -27.5,73.73 -90.9,73.73 -63.2,0 -90.8,-15.63 -90.8,-73.73 0,-58.1 27.6,-73.73 90.8,-73.73"
           style="fill:#1c4f9c;fill-opacity:1;fill-rule:nonzero;stroke:none"
           id="path50"
           inkscape:connector-curvature="0" /></g><g
         id="g52"
         transform="scale(1.71145)"><path
           d="m 16039.7,2128.98 h 46.7 v -48.06 h 1.4 c 23.3,40.07 48.9,53.91 102.8,53.91 86,0 109.4,-42.99 109.4,-115.19 V 1757.1 h -46.7 v 251.55 c 0,43.06 -9.5,83.86 -70.7,83.86 -56.9,0 -96.2,-21.83 -96.2,-100.62 V 1757.1 h -46.7 v 371.88"
           style="fill:#1c4f9c;fill-opacity:1;fill-rule:nonzero;stroke:none"
           id="path54"
           inkscape:connector-curvature="0" /></g><g
         id="g56"
         transform="scale(1.52097)"><path
           d="m 15883.2,1586.64 h 91.1 l 266.5,-531.66 h 1.7 v 531.66 h 57.5 V 992.594 h -91.1 l -266.7,531.666 h -1.6 V 992.594 h -57.4 v 594.046"
           style="fill:#1c4f9c;fill-opacity:1;fill-rule:nonzero;stroke:none"
           id="path58"
           inkscape:connector-curvature="0" /></g><g
         id="g60"
         transform="scale(1.55703)"><path
           d="m 16062.7,1162 v -37.68 c 0,-88.94 15.3,-114.62 85.8,-114.62 82.6,0 100.1,1.61 100.1,81.78 h 51.4 v -15.22 c 0,-81.776 -20,-113.01 -142.6,-113.01 -134.8,0 -150.7,44.84 -150.7,210.74 0,169.12 27.2,210.81 150.7,210.81 122.6,0 142.6,-49.67 142.6,-161.07 V 1162 Z m 185.9,51.35 c 0,86.45 -1.6,124.93 -92.9,124.93 -91.4,0 -93,-38.48 -93,-124.93 h 185.9"
           style="fill:#1c4f9c;fill-opacity:1;fill-rule:nonzero;stroke:none"
           id="path62"
           inkscape:connector-curvature="0" /></g><g
         id="g64"
         transform="scale(1.59247)"><path
           d="m 16300,948.027 h -50.1 v 51.782 h -1.6 c -25.1,-43.123 -52.5,-58 -110.6,-58 -92.4,0 -117.5,46.275 -117.5,123.801 v 282.08 h 50.2 v -270.35 c 0,-46.2 10.2,-90.115 76,-90.115 61.1,0 103.5,23.525 103.5,108.135 v 252.33 h 50.1 V 948.027"
           style="fill:#1c4f9c;fill-opacity:1;fill-rule:nonzero;stroke:none"
           id="path66"
           inkscape:connector-curvature="0" /></g><g
         id="g68"
         transform="scale(1.62371)"><path
           d="m 16067.9,1321.76 h 49.2 v -47.63 h 1.6 c 18.4,37.67 41.4,53.8 90.6,53.8 62.3,0 90.7,-26.93 90.7,-105.29 v -31.49 h -44.5 c 0.7,72.25 -7.8,92.17 -63.9,92.17 -49.1,0.84 -74.5,-26.86 -74.5,-80.67 V 929.791 h -49.2 v 391.969"
           style="fill:#1c4f9c;fill-opacity:1;fill-rule:nonzero;stroke:none"
           id="path70"
           inkscape:connector-curvature="0" /></g><g
         id="g72"
         transform="scale(1.65701)"><path
           d="m 16158.4,1301.24 c 126.5,0 141.6,-45.23 141.6,-198.09 0,-158.916 -16.6,-198.025 -141.6,-198.025 -125.1,0 -141.6,39.109 -141.6,198.025 0,152.86 15,198.09 141.6,198.09 z m 0,-352.468 c 76.8,0 88.8,11.269 88.8,154.378 0,143.1 -12,154.37 -88.8,154.37 -76.8,0 -88.9,-11.27 -88.9,-154.37 0,-143.109 12.1,-154.378 88.9,-154.378"
           style="fill:#1c4f9c;fill-opacity:1;fill-rule:nonzero;stroke:none"
           id="path74"
           inkscape:connector-curvature="0" /></g><g
         id="g76"
         transform="scale(1.67064)"><path
           d="m 16252.1,1444.49 h 47.9 v -63.46 h -47.9 z m 0,-159.86 h 47.9 V 903.67 h -47.9 v 380.96"
           style="fill:#1c4f9c;fill-opacity:1;fill-rule:nonzero;stroke:none"
           id="path78"
           inkscape:connector-curvature="0" /></g><g
         id="g80"
         transform="scale(1.70739)"><path
           d="m 16039,1256.98 h 46.8 v -48.16 h 1.5 c 23.4,40.15 48.9,54.03 103,54.03 86.3,0 109.7,-43.09 109.7,-115.47 V 884.221 h -46.8 v 252.159 c 0,43.15 -9.5,84.04 -70.9,84.04 -57,0 -96.5,-21.87 -96.5,-100.86 V 884.221 h -46.8 v 372.759"
           style="fill:#1c4f9c;fill-opacity:1;fill-rule:nonzero;stroke:none"
           id="path82"
           inkscape:connector-curvature="0" /></g><g
         id="g84"
         transform="scale(1.73181)"><path
           d="m 16171.8,1197.49 h -45.4 v 41.77 h 45.4 v 66.29 c 0,67.73 31.7,93.71 95.8,93.71 10.8,0 21.6,-0.72 32.4,-1.45 v -41.1 c -10.1,0.79 -20.2,0.79 -30.3,0.79 -30.2,0 -51.8,-10.13 -51.8,-51.95 v -66.29 h 80.7 v -41.77 h -80.7 V 871.753 h -46.1 v 325.737"
           style="fill:#1c4f9c;fill-opacity:1;fill-rule:nonzero;stroke:none"
           id="path86"
           inkscape:connector-curvature="0" /></g><g
         id="g88"
         transform="scale(1.76342)"><path
           d="m 16166.9,1222.72 c 119,0 133.1,-42.5 133.1,-186.14 0,-149.324 -15.6,-186.073 -133.1,-186.073 -117.4,0 -133,36.749 -133,186.073 0,143.64 14.1,186.14 133,186.14 z m 0,-331.2 c 72.2,0 83.6,10.589 83.6,145.06 0,134.47 -11.4,145.06 -83.6,145.06 -72.1,0 -83.5,-10.59 -83.5,-145.06 0,-134.471 11.4,-145.06 83.5,-145.06"
           style="fill:#1c4f9c;fill-opacity:1;fill-rule:nonzero;stroke:none"
           id="path90"
           inkscape:connector-curvature="0" /></g><g
         id="g92"
         transform="scale(1.79397)"><path
           d="m 16090,1196.32 h 44.5 v -43.11 h 1.4 c 16.7,34.09 37.5,48.69 82.1,48.69 56.3,0 82,-24.37 82,-95.29 v -28.51 h -40.3 c 0.7,65.39 -6.9,83.42 -57.7,83.42 -44.6,0.76 -67.5,-24.31 -67.5,-73.01 V 841.547 h -44.5 v 354.773"
           style="fill:#1c4f9c;fill-opacity:1;fill-rule:nonzero;stroke:none"
           id="path94"
           inkscape:connector-curvature="0" /></g><g
         id="g96"
         transform="scale(1.8491)"><path
           d="m 15860,1160.65 h 43.1 v -51.25 h 1.4 c 21.6,37.08 42.5,56.67 91.1,56.67 45.9,0 81,-10.11 98.5,-56.05 26.4,41.88 54.7,56.05 103.3,56.05 69.5,0 102.6,-33.75 102.6,-101.88 V 816.457 h -43.2 v 222.733 c 0,68.86 -28.4,83.7 -72.2,83.7 -55.3,0 -83.1,-22.24 -83.1,-89.74 V 816.457 h -43.1 v 238.253 c 0,51.31 -20.9,68.18 -68.2,68.18 -62.7,0 -87.1,-37.76 -87.1,-109.33 V 816.457 h -43.1 v 344.193"
           style="fill:#1c4f9c;fill-opacity:1;fill-rule:nonzero;stroke:none"
           id="path98"
           inkscape:connector-curvature="0" /></g><g
         id="g100"
         transform="scale(1.88454)"><path
           d="m 16261.6,830.236 c -24.5,-26.469 -49,-34.388 -98.7,-34.388 -86,0 -105.2,41.038 -105.2,105.947 0,66.234 15.2,105.935 105.2,105.935 64.3,0 78.2,-7.31 93.4,-30.454 h 1.3 v 61.584 c 0,49.68 -4.6,66.84 -74.8,66.84 -69.5,0 -70.9,-17.16 -70.9,-60.19 h -42.3 v 17.89 c 0,40.97 9.9,80.74 115.2,80.74 94,0 115.2,-30.46 115.2,-95.97 V 801.103 h -38.4 z m -80.8,7.98 c 56.3,0 80.8,13.898 80.8,65.573 0,51.671 -24.5,65.573 -80.8,65.573 -56.3,0 -80.7,-13.902 -80.7,-65.573 0,-51.675 24.4,-65.573 80.7,-65.573"
           style="fill:#1c4f9c;fill-opacity:1;fill-rule:nonzero;stroke:none"
           id="path102"
           inkscape:connector-curvature="0" /></g><g
         id="g104"
         transform="scale(1.91279)"><path
           d="m 16139.5,1084.19 h -34.6 V 1122 h 34.6 v 77.05 h 41.8 V 1122 h 107.6 v -37.81 h -107.6 V 861.677 c 0,-27.386 8.5,-39.772 35.9,-39.772 31.3,0 45,5.892 45,79.609 h 37.8 c 0,-106.347 -33.9,-117.42 -82.2,-117.42 -61.3,0 -78.3,18.874 -78.3,68.536 v 231.56"
           style="fill:#1c4f9c;fill-opacity:1;fill-rule:nonzero;stroke:none"
           id="path106"
           inkscape:connector-curvature="0" /></g><g
         id="g108"
         transform="scale(1.92435)"><path
           d="m 16258.5,1254.05 h 41.5 v -55.1 h -41.5 z m 0,-138.79 h 41.5 V 784.529 h -41.5 v 330.731"
           style="fill:#1c4f9c;fill-opacity:1;fill-rule:nonzero;stroke:none"
           id="path110"
           inkscape:connector-curvature="0" /></g><g
         id="g112"
         transform="scale(1.96094)"><path
           d="m 16253.6,986.303 c 0,59.187 -11.5,76.317 -65.6,76.317 -64.9,0 -75.1,-9.52 -75.1,-130.451 0,-120.926 10.2,-130.448 75.1,-130.448 58.6,0 71.3,15.913 71.3,85.956 h 40.7 v -21.02 c 0,-83.989 -39.4,-101.818 -112,-101.818 -106.9,0 -119.6,35.601 -119.6,167.33 0,134.281 21.6,167.391 119.6,167.391 87.8,0 106.3,-27.36 106.3,-113.257 h -40.7"
           style="fill:#1c4f9c;fill-opacity:1;fill-rule:nonzero;stroke:none"
           id="path114"
           inkscape:connector-curvature="0" /></g><g
         id="g116"
         transform="scale(1.99516)"><path
           d="m 16115.5,855.557 c -1.3,-55.025 8.7,-67.585 68.2,-67.585 64.4,0 76.3,9.358 76.3,63.19 0,41.902 -4.4,45.041 -80,49.377 -80.1,4.454 -102,16.329 -102,86.998 0,66.903 12.5,93.163 107.5,93.163 93.3,0 111.4,-21.23 111.4,-88.194 h -40.1 c 0,48.814 -13.1,51.884 -73.1,51.884 -55.7,0 -65.7,-5.59 -65.7,-55.022 0,-44.982 5.6,-48.751 73.2,-52.52 94.4,-5.594 108.8,-13.128 108.8,-83.17 0,-75.071 -14.4,-101.956 -117.6,-101.956 -73.2,0 -106.9,8.732 -106.9,103.835 h 40"
           style="fill:#1c4f9c;fill-opacity:1;fill-rule:nonzero;stroke:none"
           id="path118"
           inkscape:connector-curvature="0" /></g><g
         id="g120"
         transform="scale(2.06398)"><path
           d="m 15992.9,1169.21 h 67.1 l 196.5,-391.786 h 1.2 v 391.786 h 42.3 V 731.453 h -67.1 l -196.5,391.787 h -1.2 V 731.453 h -42.3 v 437.757"
           style="fill:#1c4f9c;fill-opacity:1;fill-rule:nonzero;stroke:none"
           id="path122"
           inkscape:connector-curvature="0" /></g><g
         id="g124"
         transform="scale(2.10081)"><path
           d="m 16188.3,1026.35 c 99.8,0 111.7,-35.672 111.7,-156.245 0,-125.342 -13.1,-156.189 -111.7,-156.189 -98.6,0 -111.7,30.847 -111.7,156.189 0,120.573 11.9,156.245 111.7,156.245 z m 0,-278.007 c 60.6,0 70.1,8.888 70.1,121.762 0,112.875 -9.5,121.763 -70.1,121.763 -60.6,0 -70.1,-8.888 -70.1,-121.763 0,-112.874 9.5,-121.762 70.1,-121.762"
           style="fill:#1c4f9c;fill-opacity:1;fill-rule:nonzero;stroke:none"
           id="path126"
           inkscape:connector-curvature="0" /></g><g
         id="g128"
         transform="scale(2.13649)"><path
           d="m 16262.6,744.055 h -1.1 c -14.1,-29.802 -34.5,-42.061 -76.6,-42.061 -82.9,0 -105.7,36.783 -105.7,153.581 0,116.856 22.8,153.635 99.9,153.635 33.8,0 61.9,-7.04 82.4,-42.06 h 1.1 v 162.38 h 37.4 V 706.629 h -37.4 z m -71.2,-4.689 c 62.4,0 71.2,22.172 71.2,133.747 0,73.033 -17.5,98.727 -71.2,98.727 -58.5,0 -71.3,-13.429 -71.3,-116.265 0,-102.78 12.8,-116.209 71.3,-116.209"
           style="fill:#1c4f9c;fill-opacity:1;fill-rule:nonzero;stroke:none"
           id="path130"
           inkscape:connector-curvature="0" /></g><g
         id="g132"
         transform="scale(2.17239)"><path
           d="m 16130,832.841 v -27.002 c 0,-63.75 10.9,-82.153 61.4,-82.153 59.2,0 71.8,1.15 71.8,58.615 h 36.8 v -10.907 c 0,-58.614 -14.4,-81.001 -102.2,-81.001 -96.5,0 -108,32.136 -108,151.043 0,121.212 19.5,151.097 108,151.097 87.8,0 102.2,-35.597 102.2,-115.443 v -44.249 z m 133.2,36.804 c 0,61.968 -1.1,89.542 -66.6,89.542 -65.5,0 -66.6,-27.574 -66.6,-89.542 h 133.2"
           style="fill:#1c4f9c;fill-opacity:1;fill-rule:nonzero;stroke:none"
           id="path134"
           inkscape:connector-curvature="0" /></g><path
         d="m 7074.11,5399.17 c 0,-464.68 -346,-841.44 -772.65,-841.44 -426.76,0 -772.65,376.76 -772.65,841.44 0,464.92 345.89,841.9 772.65,841.9 426.65,0 772.65,-376.98 772.65,-841.9"
         style="fill:#1c4f9c;fill-opacity:1;fill-rule:nonzero;stroke:none"
         id="path136"
         inkscape:connector-curvature="0" /><path
         d="m 4896.13,4747.48 c 0,-439.63 -345.9,-795.9 -772.77,-795.9 -426.64,0 -772.54,356.27 -772.54,795.9 0,439.63 345.9,795.88 772.54,795.88 426.87,0 772.77,-356.25 772.77,-795.88"
         style="fill:#1c4f9c;fill-opacity:1;fill-rule:nonzero;stroke:none"
         id="path138"
         inkscape:connector-curvature="0" /><path
         d="m 5466.17,6349.5 c 0,-322.77 -260.82,-584.5 -582.91,-584.5 -321.86,0 -582.91,261.73 -582.91,584.5 0,322.78 261.05,584.5 582.91,584.5 322.09,0 582.91,-261.72 582.91,-584.5"
         style="fill:#1c4f9c;fill-opacity:1;fill-rule:nonzero;stroke:none"
         id="path140"
         inkscape:connector-curvature="0" /><path
         d="m 6127.66,3806.94 c 0,-322.77 -260.93,-584.26 -582.9,-584.26 -321.99,0 -582.91,261.49 -582.91,584.26 0,322.78 260.92,584.51 582.91,584.51 321.97,0 582.9,-261.73 582.9,-584.51"
         style="fill:#1c4f9c;fill-opacity:1;fill-rule:nonzero;stroke:none"
         id="path142"
         inkscape:connector-curvature="0" /><path
         d="m 6324.02,7178.87 c 0,-217.99 -176.43,-394.75 -394.08,-394.75 -217.65,0 -394.07,176.76 -394.07,394.75 0,218 176.42,394.76 394.07,394.76 217.65,0 394.08,-176.76 394.08,-394.76"
         style="fill:#2857af;fill-opacity:1;fill-rule:nonzero;stroke:none"
         id="path144"
         inkscape:connector-curvature="0" /><path
         d="m 3859.36,6354.28 c -9.57,-217.99 -220.04,-385.64 -469.93,-374.71 -249.88,11.16 -444.63,196.81 -434.84,414.57 9.57,218 219.93,385.65 469.7,374.72 250,-11.16 444.64,-196.58 435.07,-414.58"
         style="fill:#2857af;fill-opacity:1;fill-rule:nonzero;stroke:none"
         id="path146"
         inkscape:connector-curvature="0" /><path
         d="m 3134.77,7331.95 c -12.53,-148.52 -179.27,-255.81 -372.32,-239.41 -193.16,16.17 -339.4,149.88 -326.75,298.63 12.52,148.52 179.26,255.8 372.19,239.41 193.16,-16.41 339.41,-150.12 326.88,-298.63"
         style="fill:#5788c2;fill-opacity:1;fill-rule:nonzero;stroke:none"
         id="path148"
         inkscape:connector-curvature="0" /><path
         d="m 8736.73,6893.46 c -13.67,-160.36 -189.97,-276.31 -393.84,-259 -203.87,17.31 -358.31,161.27 -344.65,321.63 13.56,160.37 189.87,276.54 393.85,259.23 203.87,-17.31 358.31,-161.28 344.64,-321.86"
         style="fill:#5788c2;fill-opacity:1;fill-rule:nonzero;stroke:none"
         id="path150"
         inkscape:connector-curvature="0" /><path
         d="m 7766.13,6724.21 c 70.04,-178.36 -77.22,-403.41 -329.15,-502.27 -251.82,-98.86 -512.75,-34.4 -582.8,144.19 -70.27,178.58 77.11,403.41 328.82,502.27 252.04,98.86 512.97,34.39 583.13,-144.19"
         style="fill:#2857af;fill-opacity:1;fill-rule:nonzero;stroke:none"
         id="path152"
         inkscape:connector-curvature="0" /><path
         d="m 6571.62,8114.85 c -19.71,-140.09 -192.25,-231.89 -385.42,-204.78 -193.28,27.1 -333.82,162.64 -314.23,302.96 19.7,140.09 192.37,231.88 385.41,204.77 193.28,-27.33 333.83,-162.86 314.24,-302.95"
         style="fill:#5788c2;fill-opacity:1;fill-rule:nonzero;stroke:none"
         id="path154"
         inkscape:connector-curvature="0" /><path
         d="m 6317.64,9071.33 c -11.62,-120.05 -142.6,-205.24 -292.26,-190.67 -149.65,14.59 -261.49,123.7 -249.65,243.74 11.61,119.81 142.59,205.23 292.14,190.43 149.77,-14.58 261.61,-123.69 249.77,-243.5"
         style="fill:#bbd9f3;fill-opacity:1;fill-rule:nonzero;stroke:none"
         id="path156"
         inkscape:connector-curvature="0" /><path
         d="m 2235.13,8028.52 c -9,-107.52 -147.5,-183.83 -309,-169.93 -161.5,13.67 -284.96,111.84 -276.08,219.36 9.11,107.51 147.61,183.59 309.11,169.93 161.5,-13.67 285.08,-111.84 275.97,-219.36"
         style="fill:#bbd9f3;fill-opacity:1;fill-rule:nonzero;stroke:none"
         id="path158"
         inkscape:connector-curvature="0" /><path
         d="m 9759.04,7127.85 c -5.47,-129.16 -162.87,-227.56 -351.7,-219.59 -188.61,7.97 -337.13,118.91 -331.78,248.29 5.36,128.93 162.76,227.33 351.59,219.36 188.61,-7.98 337.35,-119.13 331.89,-248.06"
         style="fill:#bbd9f3;fill-opacity:1;fill-rule:nonzero;stroke:none"
         id="path160"
         inkscape:connector-curvature="0" /><path
         d="m 4872.32,2867.09 c 0,-238.49 -227.78,-432.11 -508.53,-432.11 -280.74,0 -508.53,193.62 -508.53,432.11 0,238.5 227.79,431.89 508.53,431.89 280.75,0 508.53,-193.39 508.53,-431.89"
         style="fill:#2857af;fill-opacity:1;fill-rule:nonzero;stroke:none"
         id="path162"
         inkscape:connector-curvature="0" /><path
         d="m 3521.78,3598.07 c 134.74,-252.86 73.57,-548.74 -136.67,-660.59 -210.25,-112.07 -489.86,2.28 -624.59,255.35 -134.63,253.07 -73.58,548.73 136.67,660.81 210.24,111.85 489.74,-2.51 624.59,-255.57"
         style="fill:#2857af;fill-opacity:1;fill-rule:nonzero;stroke:none"
         id="path164"
         inkscape:connector-curvature="0" /><path
         d="m 2326.81,3324.04 c 154.32,-147.38 188.15,-362.42 75.62,-480.63 -112.63,-118 -329.15,-94.31 -483.59,53.07 -154.32,147.15 -188.14,362.18 -75.62,480.41 112.75,117.99 329.15,94.3 483.59,-52.85"
         style="fill:#5788c2;fill-opacity:1;fill-rule:nonzero;stroke:none"
         id="path166"
         inkscape:connector-curvature="0" /><path
         d="m 4317.21,1553.22 c 93.5,-132.34 308.2,-141.68 479.72,-20.73 171.29,120.96 234.39,326.42 141,458.76 -93.62,132.58 -308.19,141.69 -479.72,20.73 -171.3,-120.96 -234.39,-326.41 -141,-458.76"
         style="fill:#5788c2;fill-opacity:1;fill-rule:nonzero;stroke:none"
         id="path168"
         inkscape:connector-curvature="0" /><path
         d="m 5158.43,1023.16 c 23.11,-120.504 -93.16,-244.187 -259.8,-276.305 -166.62,-31.894 -320.38,39.864 -343.5,160.586 -23.12,120.509 93.05,244.189 259.79,276.079 166.52,31.89 320.28,-39.86 343.51,-160.36"
         style="fill:#63a1d9;fill-opacity:1;fill-rule:nonzero;stroke:none"
         id="path170"
         inkscape:connector-curvature="0" /><path
         d="M 5314.46,222.488 C 5324.03,112.93 5212.64,14.0625 5065.95,1.30859 4919.25,-11.2227 4792.6,67.3633 4783.26,176.934 c -9.57,109.57 101.82,208.418 248.52,221.179 146.69,12.754 273.34,-66.062 282.68,-175.625"
         style="fill:#bbd9f3;fill-opacity:1;fill-rule:nonzero;stroke:none"
         id="path172"
         inkscape:connector-curvature="0" /><path
         d="m 1541.17,2595.8 c -64.24,-102.73 -271.29,-89.3 -462.63,30.07 -191.341,119.36 -294.532,299.54 -230.52,402.04 64.23,102.96 271.29,89.52 462.64,-29.84 191.45,-119.36 294.52,-299.53 230.51,-402.27"
         style="fill:#63a1d9;fill-opacity:1;fill-rule:nonzero;stroke:none"
         id="path174"
         inkscape:connector-curvature="0" /><path
         d="m 663.059,2307.2 c -54.676,-87.47 -243.965,-67.88 -423.004,43.73 -179.0394,111.62 -279.723,273.11 -225.2777,360.59 54.668,87.46 243.9527,68.11 422.9957,-43.74 179.04,-111.61 279.723,-273.11 225.286,-360.58"
         style="fill:#bbd9f3;fill-opacity:1;fill-rule:nonzero;stroke:none"
         id="path176"
         inkscape:connector-curvature="0" /></g></g></svg>