<?xml version="1.0" encoding="UTF-8" standalone="no"?>
<!-- Created with Inkscape (http://www.inkscape.org/) -->
<svg id="svg3590" xmlns:rdf="http://www.w3.org/1999/02/22-rdf-syntax-ns#" xmlns="http://www.w3.org/2000/svg" xml:space="preserve" height="160.59" viewBox="0 0 160.58624 160.58624" width="160.59" version="1.1" xmlns:cc="http://creativecommons.org/ns#" xmlns:dc="http://purl.org/dc/elements/1.1/"><metadata id="metadata3596"><rdf:RDF><cc:Work rdf:about=""><dc:format>image/svg+xml</dc:format><dc:type rdf:resource="http://purl.org/dc/dcmitype/StillImage"/><dc:title/></cc:Work></rdf:RDF></metadata><defs id="defs3594"><clipPath id="clipPath3604" clipPathUnits="userSpaceOnUse"><path id="path3606" d="m0 128.47h128.47v-128.47h-128.47v128.47z"/></clipPath></defs><g id="g3598" transform="matrix(1.25 0 0 -1.25 0 160.59)"><g id="g3600"><g id="g3602" clip-path="url(#clipPath3604)"><g id="g3608" transform="translate(114.38 71.283)"><path id="path3610" d="m0 0c0.07 2.263-0.75 4.549-2.478 6.276l-33.984 33.984v6.076h1.69c3 0 5.431 2.432 5.431 5.432s-2.431 5.431-5.431 5.431h-31.381c-3 0-5.432-2.431-5.432-5.431s2.432-5.432 5.432-5.432h1.691v-6.59l-33.471-33.47c-1.879-1.879-2.692-4.418-2.445-6.87-0.029-0.284-0.045-0.573-0.045-0.865v-61.508c0-4.601 3.729-8.33 8.33-8.33h83.9c4.6 0 8.329 3.729 8.329 8.33v61.508c-0.003 0.499-0.055 0.984-0.139 1.459" fill="#2854a4"/></g><g id="g3612" transform="translate(114.38 71.283)"><path id="path3614" d="m0 0c0.07 2.263-0.75 4.549-2.478 6.276l-33.984 33.984v6.076h1.69c3 0 5.431 2.432 5.431 5.432s-2.431 5.431-5.431 5.431h-31.381c-3 0-5.432-2.431-5.432-5.431s2.432-5.432 5.432-5.432h1.691v-6.59l-33.471-33.47c-1.879-1.879-2.692-4.418-2.445-6.87-0.029-0.284-0.045-0.573-0.045-0.865v-61.508c0-4.601 3.729-8.33 8.33-8.33h83.9c4.6 0 8.329 3.729 8.329 8.33v61.508c-0.003 0.499-0.055 0.984-0.139 1.459" fill="#2854a4"/></g><g id="g3616" transform="translate(78.348 75.714)"><path id="path3618" d="m0 0c5.637 0 10.975 1.269 15.752 3.53-4.777 2.262-10.116 3.531-15.752 3.531-4.109 0-8.058-0.682-11.748-1.924 3.552 1.741 6.884 4.083 9.836 7.035 3.986 3.986 6.863 8.658 8.643 13.635-4.977-1.78-9.649-4.657-13.635-8.643-3.955-3.955-6.818-8.589-8.599-13.524-0.082-0.038-0.167-0.071-0.249-0.11 4.776-2.261 10.115-3.53 15.752-3.53m-43.081-3.825c-5.637 0-10.976-1.27-15.752-3.53 4.776-2.262 10.115-3.531 15.752-3.531 4.223 0 8.278 0.713 12.056 2.021-3.626-1.75-7.026-4.124-10.035-7.133-3.984-3.984-6.863-8.657-8.641-13.634 4.977 1.778 9.649 4.657 13.634 8.642 3.972 3.972 6.841 8.627 8.624 13.585 0.037 0.017 0.077 0.032 0.114 0.05-4.777 2.261-10.116 3.53-15.752 3.53m0.206 24.693 24.565-24.566c1.32 0.812 2.868 1.289 4.531 1.289 4.782 0.001 8.659-3.877 8.659-8.66 0-1.609-0.446-3.11-1.211-4.401l11.72-11.284c1.261 0.718 2.716 1.132 4.271 1.132 4.782 0.001 8.659-3.877 8.659-8.66 0-4.782-3.877-8.659-8.659-8.659-4.783 0-8.66 3.877-8.66 8.659 0 1.408 0.343 2.733 0.939 3.908l-11.958 11.514c-0.405-0.196-0.824-0.367-1.26-0.498v-31.486c3.739-0.958 6.507-4.341 6.507-8.38 0-4.782-3.877-8.659-8.66-8.659s-8.66 3.877-8.66 8.659c0 3.785 2.431 6.994 5.813 8.172v31.694c-3.564 1.073-6.16 4.376-6.16 8.289 0 1.297 0.293 2.522 0.803 3.627l-24.779 24.779" fill="#fff"/></g></g></g></g></svg>
