<?xml version="1.0" encoding="UTF-8" standalone="no"?>
<!-- Created with Inkscape (http://www.inkscape.org/) -->
<svg id="svg3355" xmlns:rdf="http://www.w3.org/1999/02/22-rdf-syntax-ns#" xmlns="http://www.w3.org/2000/svg" xml:space="preserve" height="238.75" viewBox="0 0 465.12 238.75" width="465.12" version="1.1" xmlns:cc="http://creativecommons.org/ns#" xmlns:dc="http://purl.org/dc/elements/1.1/"><metadata id="metadata3361"><rdf:RDF><cc:Work rdf:about=""><dc:format>image/svg+xml</dc:format><dc:type rdf:resource="http://purl.org/dc/dcmitype/StillImage"/><dc:title/></cc:Work></rdf:RDF></metadata><defs id="defs3359"><clipPath id="clipPath3369" clipPathUnits="userSpaceOnUse"><path id="path3371" d="m0 191h372.1v-191h-372.1v191z"/></clipPath></defs><g id="g3363" transform="matrix(1.25,0,0,-1.25,0,238.75)"><g id="g3365"><g id="g3367" clip-path="url(#clipPath3369)"><g id="g3373" transform="translate(174.67 110.53)"><path id="path3375" d="m0 0c0 7.506-2.252 12.385-4.129 14.824-1.688 2.064-4.315 3.753-8.819 3.753-3.941 0-7.319-1.313-10.133-4.691-4.128-5.255-5.254-13.886-5.254-21.204 0-6.006 1.502-12.01 4.691-14.825 2.627-2.627 5.442-4.128 10.696-4.128 9.758 0 12.948 12.947 12.948 26.271m-25.708-66.239c-5.254-1.501-11.447-7.505-11.447-15.011 0-5.254 3.191-10.883 6.756-12.949 5.817-3.377 11.072-4.502 21.955-4.502 9.757 0 25.894 5.629 25.519 16.699 0 10.885-7.881 17.639-25.894 16.889l-16.889-1.126zm-18.765-33.964c-6.755 3.941-9.381 8.818-9.381 14.824 0 10.133 10.507 17.264 19.515 21.016v1.127c-8.258 1.875-12.762 7.881-12.762 13.884 0 10.133 10.51 16.514 16.139 19.141v0.375c-7.131 4.129-16.139 12.009-16.139 27.959 0 12.385 10.51 27.398 34.715 27.398 16.139 0 23.645-8.633 25.521-10.697 4.503 3.565 11.071 6.944 15.95 6.944 6.943 0 10.133-4.129 9.758-9.008 0-3.752-3.379-7.506-7.506-7.506-2.815 0-4.691 1.502-5.817 2.627-1.501 1.127-3.002 2.252-4.503 2.252-1.127 0-3.003 0-4.504-1.125 1.125-2.252 2.252-6.381 2.252-12.386 0-7.317-2.252-14.823-7.882-20.828-6.005-6.38-15.012-8.632-23.831-8.632-4.129 0-6.755 0-10.696 0.75-3.377-1.501-8.068-4.879-8.068-9.382 0-7.506 7.13-7.506 23.643-6.756 14.261 0.751 23.643-0.374 31.9-7.129 7.506-5.629 9.383-12.76 9.383-18.389 0-8.258-3.379-15.387-11.635-21.768-6.005-4.879-19.141-10.884-36.779-10.508-9.007 0-21.016 1.125-29.273 5.817" fill="#393536"/></g><g id="g3377" transform="translate(228.33 109.03)"><path id="path3379" d="m0 0c0 5.629-1.127 9.382-9.758 11.634-1.687 0.375-1.875 0.938-1.875 1.689v2.064c0 0.751 0.375 1.126 1.313 1.501 2.627 1.127 21.205 7.693 24.396 9.007 1.875 0.751 3.377 1.126 4.5 1.126 1.129 0 1.692-0.75 1.502-2.252-0.373-3.002-0.373-15.011-0.373-30.586v-20.266c0-7.131 0-13.886 0.373-16.138 0.375-3.377 1.127-4.878 3.004-4.878h7.506c1.5 0 1.875-0.376 1.875-1.314v-3.754c0-1.125-0.375-1.875-1.5-1.875-1.502 0-10.133 0.563-22.707 0.563-10.883 0-18.014-0.563-20.266-0.563-0.937 0-1.5 0.375-1.5 1.875v3.566c0 1.126 0.75 1.502 1.877 1.502h8.256c1.877 0 2.815 0.75 3.002 3.752 0.188 5.629 0.375 11.635 0.375 16.889v26.458z" fill="#393536"/></g><g id="g3381" transform="translate(291.19 134.55)"><path id="path3383" d="m0 0c1.502 0.75 2.625 1.501 3.75 1.501 1.127 0 1.879-0.751 2.252-2.253l1.502-9.757h1.127c2.252 2.626 5.629 5.63 9.383 7.506 4.502 2.627 9.382 4.504 15.011 4.504 6.379 0 12.385-1.127 16.514-4.504 8.254-6.005 10.32-11.634 10.32-19.328v-27.022c0-6.004-0.187-14.26-0.187-18.013 0-4.128 2.252-5.253 4.502-5.253h5.254c1.689 0 2.252-0.376 2.252-1.315v-4.316c0-0.938-0.377-1.313-1.5-1.313-1.502 0-7.131 0.563-20.268 0.563-11.258 0-17.264-0.563-18.389-0.563s-1.5 0.75-1.5 2.252v3.19c0 1.126 0.375 1.502 2.252 1.502h3.752c1.502 0 3.002 1.125 3.377 4.503 0.563 4.878 0.752 10.133 0.752 17.637v21.581c0 7.505-0.377 12.384-4.881 16.137-3.752 3.378-7.13 3.378-11.257 3.378-3 0-7.506-0.751-12.01-4.879-3.002-3.002-3.94-8.256-3.94-13.322v-38.656c0-4.128 0.938-6.379 3.563-6.379h3.381c1.5 0 1.875-0.376 1.875-1.69v-3.379c0-1.125-0.375-1.875-1.498-1.875-1.129 0-6.383 0.563-17.641 0.563-11.635 0-17.641-0.563-18.766-0.563-0.75 0-1.125 0.75-1.125 1.875v3.567c0 1.126 0.375 1.502 1.875 1.502h3.754c2.25 0 4.879 0.75 4.879 3.752v42.221c0 5.628-3.377 8.63-7.881 10.883l-1.502 0.751c-1.125 0.375-1.502 1.125-1.502 1.875v1.502c0 0.75 0.752 1.501 1.879 1.877l20.641 9.758z" fill="#393536"/></g><g id="g3385" transform="translate(249.12 142.95)"><path id="path3387" d="m0 0c6.14-2.907 13.002-4.538 20.247-4.539 7.246 0.001 14.109 1.631 20.248 4.539-6.14 2.906-13.003 4.538-20.247 4.538-7.245 0-14.108-1.634-20.248-4.538" fill="#2854a4"/></g><g id="g3389" transform="translate(249.12 142.95)"><path id="path3391" d="m0 0c6.396 2.286 12.402 5.984 17.525 11.108s8.825 11.13 11.108 17.527c-6.396-2.286-12.403-5.986-17.524-11.108-5.124-5.123-8.822-11.131-11.109-17.527" fill="#2854a4"/></g><g id="g3393" transform="translate(109.05 127.26)"><path id="path3395" d="m0 0c0.07 2.263-0.75 4.549-2.478 6.276l-33.984 33.984v6.076h1.69c3 0 5.431 2.432 5.431 5.432s-2.431 5.431-5.431 5.431h-31.381c-3 0-5.432-2.431-5.432-5.431s2.432-5.432 5.432-5.432h1.691v-6.59l-33.471-33.47c-1.879-1.879-2.692-4.418-2.445-6.87-0.029-0.284-0.045-0.573-0.045-0.865v-61.508c0-4.601 3.729-8.33 8.33-8.33h83.9c4.6 0 8.329 3.729 8.329 8.33v61.508c-0.003 0.499-0.055 0.984-0.139 1.459" fill="#2854a4"/></g><g id="g3397" transform="translate(109.05 127.26)"><path id="path3399" d="m0 0c0.07 2.263-0.75 4.549-2.478 6.276l-33.984 33.984v6.076h1.69c3 0 5.431 2.432 5.431 5.432s-2.431 5.431-5.431 5.431h-31.381c-3 0-5.432-2.431-5.432-5.431s2.432-5.432 5.432-5.432h1.691v-6.59l-33.471-33.47c-1.879-1.879-2.692-4.418-2.445-6.87-0.029-0.284-0.045-0.573-0.045-0.865v-61.508c0-4.601 3.729-8.33 8.33-8.33h83.9c4.6 0 8.329 3.729 8.329 8.33v61.508c-0.003 0.499-0.055 0.984-0.139 1.459" fill="#2854a4"/></g><g id="g3401" transform="translate(73.02 131.69)"><path id="path3403" d="m0 0c5.637 0 10.975 1.269 15.752 3.53-4.777 2.262-10.116 3.531-15.752 3.531-4.109 0-8.058-0.682-11.748-1.924 3.552 1.741 6.884 4.083 9.836 7.035 3.986 3.986 6.863 8.658 8.643 13.635-4.977-1.78-9.649-4.657-13.635-8.643-3.955-3.955-6.818-8.589-8.599-13.524-0.082-0.038-0.167-0.071-0.249-0.11 4.776-2.261 10.115-3.53 15.752-3.53m-43.081-3.825c-5.637 0-10.976-1.27-15.752-3.53 4.776-2.262 10.115-3.531 15.752-3.531 4.223 0 8.278 0.713 12.056 2.021-3.626-1.75-7.026-4.124-10.035-7.133-3.984-3.984-6.863-8.657-8.641-13.634 4.977 1.778 9.649 4.657 13.634 8.642 3.972 3.972 6.841 8.627 8.624 13.585 0.037 0.017 0.077 0.032 0.114 0.05-4.777 2.261-10.116 3.53-15.752 3.53m0.206 24.693 24.565-24.566c1.32 0.812 2.868 1.289 4.531 1.289 4.782 0.001 8.659-3.877 8.659-8.66 0-1.609-0.446-3.11-1.211-4.401l11.72-11.284c1.261 0.718 2.716 1.132 4.271 1.132 4.782 0.001 8.659-3.877 8.659-8.66 0-4.782-3.877-8.659-8.659-8.659-4.783 0-8.66 3.877-8.66 8.659 0 1.408 0.343 2.733 0.939 3.908l-11.958 11.514c-0.405-0.196-0.824-0.367-1.26-0.498v-31.486c3.739-0.958 6.507-4.341 6.507-8.38 0-4.782-3.877-8.659-8.66-8.659s-8.66 3.877-8.66 8.659c0 3.785 2.431 6.994 5.813 8.172v31.694c-3.564 1.073-6.16 4.376-6.16 8.289 0 1.297 0.293 2.522 0.803 3.627l-24.779 24.779" fill="#fff"/></g><g id="g3405" transform="translate(248.07 155)"><path id="path3407" d="m0 0c0-7.171-5.813-12.984-12.984-12.984s-12.985 5.813-12.985 12.984 5.814 12.984 12.985 12.984 12.984-5.813 12.984-12.984" fill="#2854a4"/></g></g></g></g></svg>
