<?xml version="1.0" encoding="UTF-8" standalone="no"?>
<svg
   xmlns:dc="http://purl.org/dc/elements/1.1/"
   xmlns:cc="http://creativecommons.org/ns#"
   xmlns:rdf="http://www.w3.org/1999/02/22-rdf-syntax-ns#"
   xmlns:svg="http://www.w3.org/2000/svg"
   xmlns="http://www.w3.org/2000/svg"
   xmlns:sodipodi="http://sodipodi.sourceforge.net/DTD/sodipodi-0.dtd"
   xmlns:inkscape="http://www.inkscape.org/namespaces/inkscape"
   viewBox="0 0 680.31498 132.28347"
   height="35mm"
   width="180mm"
   xml:space="preserve"
   version="1.1"
   id="svg2"
   sodipodi:docname="201902_cup_varC.svg"
   inkscape:version="0.92.3 (2405546, 2018-03-11)"><sodipodi:namedview
     pagecolor="#ffffff"
     bordercolor="#666666"
     borderopacity="1"
     objecttolerance="10"
     gridtolerance="10"
     guidetolerance="10"
     inkscape:pageopacity="0"
     inkscape:pageshadow="2"
     inkscape:window-width="2560"
     inkscape:window-height="1320"
     id="namedview339"
     showgrid="false"
     inkscape:zoom="1.9303999"
     inkscape:cx="262.4333"
     inkscape:cy="20.051239"
     inkscape:window-x="0"
     inkscape:window-y="27"
     inkscape:window-maximized="1"
     inkscape:current-layer="svg2"
     units="mm"
     showguides="true"
     inkscape:guide-bbox="true"><sodipodi:guide
       position="340.344,519.58149"
       orientation="1,0"
       id="guide1165"
       inkscape:locked="false" /><sodipodi:guide
       position="170.43101,434.10697"
       orientation="1,0"
       id="guide1167"
       inkscape:locked="false" /><sodipodi:guide
       position="510.25699,481.76548"
       orientation="1,0"
       id="guide1171"
       inkscape:locked="false" /><sodipodi:guide
       position="463.11649,65.789479"
       orientation="0,1"
       id="guide1445"
       inkscape:locked="false" /></sodipodi:namedview><metadata
     id="metadata8"><rdf:RDF><cc:Work
         rdf:about=""><dc:format>image/svg+xml</dc:format><dc:type
           rdf:resource="http://purl.org/dc/dcmitype/StillImage" /><dc:title></dc:title></cc:Work></rdf:RDF></metadata><defs
     id="defs6"><clipPath
   id="clipPath18"
   clipPathUnits="userSpaceOnUse"><path
     id="path20"
     d="M 196.418,112.854 H 419.676 V -0.228 H 196.418 Z"
     inkscape:connector-curvature="0" /></clipPath><clipPath
   id="clipPath28"
   clipPathUnits="userSpaceOnUse"><path
     id="path30"
     d="M 201,1 H 415 V 110 H 201 Z"
     inkscape:connector-curvature="0" /></clipPath><clipPath
   id="clipPath112"
   clipPathUnits="userSpaceOnUse"><path
     id="path114"
     d="m 7.574,156.475 h 154.668 v -108 H 7.574 Z"
     inkscape:connector-curvature="0" /></clipPath><clipPath
   id="clipPath122"
   clipPathUnits="userSpaceOnUse"><path
     id="path124"
     d="m 25,64 h 116 v 77 H 25 Z"
     inkscape:connector-curvature="0" /></clipPath><clipPath
   id="clipPath4657"
   clipPathUnits="userSpaceOnUse"><path
     id="path4659"
     d="M 12.9185,128.38 H 57.2954 V 98.8345 H 12.9185 Z"
     inkscape:connector-curvature="0" /></clipPath><clipPath
   id="clipPath4661"
   clipPathUnits="userSpaceOnUse"><path
     id="path4663"
     d="M 12.9185,128.38 H 57.2954 V 98.8345 H 12.9185 Z"
     inkscape:connector-curvature="0" /></clipPath><clipPath
   id="clipPath4115"
   clipPathUnits="userSpaceOnUse"><path
     id="path4117"
     d="M 0,144.667 H 270 V 0 H 0 Z"
     inkscape:connector-curvature="0" /></clipPath><mask
   id="mask4149"
   height="1"
   width="1"
   y="0"
   x="0"
   maskUnits="userSpaceOnUse"><g
     id="g4151"><g
       style="opacity:0.75"
       id="g4153"
       clip-path="url(#clipPath4123)"><path
         id="path4155"
         style="fill:#000000;fill-opacity:1;fill-rule:nonzero;stroke:none"
         d="M 16.677,55.213 H 48.558 V 11.54 H 16.677 Z"
         inkscape:connector-curvature="0" /><g
         id="g4157"><g
           id="g4159" /><g
           id="g4161"><g
             id="g4163"
             clip-path="url(#clipPath4127)"><g
               id="g4165"><g
                 id="g4167"
                 clip-path="url(#clipPath4131)"><g
                   id="g4169"><g
                     id="g4171"><path
                       id="path4173"
                       style="fill:url(#linearGradient4135);stroke:none"
                       d="M 49.704,10.95 H 14.799 v 43.87 h 34.905 z"
                       inkscape:connector-curvature="0" /></g></g></g></g></g></g></g></g></g></mask><clipPath
   id="clipPath4123"
   clipPathUnits="userSpaceOnUse"><path
     id="path4125"
     d="M 16.6772,55.2129 H 48.5581 V 11.54 H 16.6772 Z"
     inkscape:connector-curvature="0" /></clipPath><clipPath
   id="clipPath4127"
   clipPathUnits="userSpaceOnUse"><path
     id="path4129"
     d="M 16.6772,55.2129 H 48.5581 V 11.54 H 16.6772 Z"
     inkscape:connector-curvature="0" /></clipPath><clipPath
   id="clipPath4131"
   clipPathUnits="userSpaceOnUse"><path
     id="path4133"
     d="M 49.704,10.95 H 14.799 v 43.87 h 34.905 z"
     inkscape:connector-curvature="0" /></clipPath><linearGradient
   id="linearGradient4135"
   spreadMethod="pad"
   gradientTransform="matrix(0,43.869629,43.869629,0,32.250488,10.950195)"
   gradientUnits="userSpaceOnUse"
   y2="0"
   x2="1"
   y1="0"
   x1="0"><stop
     id="stop4137"
     offset="0"
     style="stop-opacity:1;stop-color:#231f20" /><stop
     id="stop4139"
     offset="0.00561523"
     style="stop-opacity:1;stop-color:#231f20" /><stop
     id="stop4141"
     offset="0.28541857"
     style="stop-opacity:1;stop-color:#c6c5c5" /><stop
     id="stop4143"
     offset="0.679779"
     style="stop-opacity:1;stop-color:#c6c5c5" /><stop
     id="stop4145"
     offset="0.89896925"
     style="stop-opacity:1;stop-color:#c6c5c5" /><stop
     id="stop4147"
     offset="1"
     style="stop-opacity:1;stop-color:#231f20" /></linearGradient><clipPath
   id="clipPath4179"
   clipPathUnits="userSpaceOnUse"><path
     id="path4181"
     d="M 16.6772,55.2129 H 48.5581 V 11.54 H 16.6772 Z"
     inkscape:connector-curvature="0" /></clipPath><mask
   id="mask4407"
   height="1"
   width="1"
   y="0"
   x="0"
   maskUnits="userSpaceOnUse"><g
     id="g4409"><g
       id="g4411"
       clip-path="url(#clipPath4343)"><g
         id="g4413"><g
           id="g4415" /><g
           id="g4417"><g
             id="g4419"
             clip-path="url(#clipPath4347)"><g
               id="g4421"><g
                 id="g4423" /><g
                 id="g4425"
                 mask="url(#mask4377)"><g
                   id="g4427" /><g
                   id="g4429"><g
                     style="opacity:0.30000299"
                     id="g4431"
                     clip-path="url(#clipPath4403)"><g
                       id="g4433"
                       transform="translate(42.4253,41.1333)"><path
                         id="path4435"
                         style="fill:none;stroke:#165283;stroke-width:0.5;stroke-linecap:butt;stroke-linejoin:miter;stroke-miterlimit:4;stroke-dasharray:none;stroke-opacity:1"
                         d="m 0,0 c 0,-0.39 -0.319,-0.708 -0.709,-0.708 h -19.917 c -0.39,0 -0.709,0.318 -0.709,0.708 v 11.774 c 0,0.39 0.319,0.709 0.709,0.709 H -0.709 C -0.319,12.483 0,12.164 0,11.774 Z"
                         inkscape:connector-curvature="0" /></g><g
                       id="g4437"
                       transform="translate(41.3726,49.3208)"><path
                         id="path4439"
                         style="fill:#0f3c71;fill-opacity:1;fill-rule:nonzero;stroke:none"
                         d="m 0,0 c 0,-0.39 -0.319,-0.708 -0.709,-0.708 h -14.273 c -0.39,0 -0.708,0.318 -0.708,0.708 v 0.371 c 0,0.389 0.318,0.708 0.708,0.708 H -0.709 C -0.319,1.079 0,0.76 0,0.371 Z"
                         inkscape:connector-curvature="0" /></g><g
                       id="g4441"
                       transform="translate(41.3726,46.8184)"><path
                         id="path4443"
                         style="fill:#0f3c71;fill-opacity:1;fill-rule:nonzero;stroke:none"
                         d="m 0,0 c 0,-0.39 -0.319,-0.708 -0.709,-0.708 h -14.273 c -0.39,0 -0.708,0.318 -0.708,0.708 v 0.37 c 0,0.39 0.318,0.709 0.708,0.709 H -0.709 C -0.319,1.079 0,0.76 0,0.37 Z"
                         inkscape:connector-curvature="0" /></g><g
                       id="g4445"
                       transform="translate(41.3726,51.8223)"><path
                         id="path4447"
                         style="fill:#0f3c71;fill-opacity:1;fill-rule:nonzero;stroke:none"
                         d="m 0,0 c 0,-0.39 -0.319,-0.708 -0.709,-0.708 h -14.273 c -0.39,0 -0.708,0.318 -0.708,0.708 v 0.371 c 0,0.389 0.318,0.708 0.708,0.708 H -0.709 C -0.319,1.079 0,0.76 0,0.371 Z"
                         inkscape:connector-curvature="0" /></g><g
                       id="g4449"
                       transform="translate(41.3726,41.8145)"><path
                         id="path4451"
                         style="fill:#0f3c71;fill-opacity:1;fill-rule:nonzero;stroke:none"
                         d="m 0,0 c 0,-0.39 -0.319,-0.708 -0.709,-0.708 h -14.273 c -0.39,0 -0.708,0.318 -0.708,0.708 v 0.37 c 0,0.39 0.318,0.709 0.708,0.709 H -0.709 C -0.319,1.079 0,0.76 0,0.37 Z"
                         inkscape:connector-curvature="0" /></g><g
                       id="g4453"
                       transform="translate(41.3726,44.3164)"><path
                         id="path4455"
                         style="fill:#0f3c71;fill-opacity:1;fill-rule:nonzero;stroke:none"
                         d="m 0,0 c 0,-0.39 -0.319,-0.708 -0.709,-0.708 h -14.273 c -0.39,0 -0.708,0.318 -0.708,0.708 v 0.37 c 0,0.39 0.318,0.709 0.708,0.709 H -0.709 C -0.319,1.079 0,0.76 0,0.37 Z"
                         inkscape:connector-curvature="0" /></g><g
                       id="g4457"
                       transform="translate(24.5337,49.3208)"><path
                         id="path4459"
                         style="fill:#0f3c71;fill-opacity:1;fill-rule:nonzero;stroke:none"
                         d="m 0,0 c 0,-0.39 -0.319,-0.708 -0.708,-0.708 h -0.496 c -0.389,0 -0.708,0.318 -0.708,0.708 v 0.371 c 0,0.389 0.319,0.708 0.708,0.708 h 0.496 C -0.319,1.079 0,0.76 0,0.371 Z"
                         inkscape:connector-curvature="0" /></g><g
                       id="g4461"
                       transform="translate(24.5337,46.8184)"><path
                         id="path4463"
                         style="fill:#0f3c71;fill-opacity:1;fill-rule:nonzero;stroke:none"
                         d="m 0,0 c 0,-0.39 -0.319,-0.708 -0.708,-0.708 h -0.496 c -0.389,0 -0.708,0.318 -0.708,0.708 v 0.37 c 0,0.39 0.319,0.709 0.708,0.709 h 0.496 C -0.319,1.079 0,0.76 0,0.37 Z"
                         inkscape:connector-curvature="0" /></g><g
                       id="g4465"
                       transform="translate(24.5337,51.8223)"><path
                         id="path4467"
                         style="fill:#0f3c71;fill-opacity:1;fill-rule:nonzero;stroke:none"
                         d="m 0,0 c 0,-0.39 -0.319,-0.708 -0.708,-0.708 h -0.496 c -0.389,0 -0.708,0.318 -0.708,0.708 v 0.371 c 0,0.389 0.319,0.708 0.708,0.708 h 0.496 C -0.319,1.079 0,0.76 0,0.371 Z"
                         inkscape:connector-curvature="0" /></g><g
                       id="g4469"
                       transform="translate(24.5337,41.8145)"><path
                         id="path4471"
                         style="fill:#0f3c71;fill-opacity:1;fill-rule:nonzero;stroke:none"
                         d="m 0,0 c 0,-0.39 -0.319,-0.708 -0.708,-0.708 h -0.496 c -0.389,0 -0.708,0.318 -0.708,0.708 v 0.37 c 0,0.39 0.319,0.709 0.708,0.709 h 0.496 C -0.319,1.079 0,0.76 0,0.37 Z"
                         inkscape:connector-curvature="0" /></g><g
                       id="g4473"
                       transform="translate(24.5337,44.3164)"><path
                         id="path4475"
                         style="fill:#0f3c71;fill-opacity:1;fill-rule:nonzero;stroke:none"
                         d="m 0,0 c 0,-0.39 -0.319,-0.708 -0.708,-0.708 h -0.496 c -0.389,0 -0.708,0.318 -0.708,0.708 v 0.37 c 0,0.39 0.319,0.709 0.708,0.709 h 0.496 C -0.319,1.079 0,0.76 0,0.37 Z"
                         inkscape:connector-curvature="0" /></g><g
                       id="g4477"
                       transform="translate(48.3052,26.6631)"><path
                         id="path4479"
                         style="fill:none;stroke:#165283;stroke-width:0.5;stroke-linecap:butt;stroke-linejoin:miter;stroke-miterlimit:4;stroke-dasharray:none;stroke-opacity:1"
                         d="m 0,0 c 0,-0.39 -0.319,-0.709 -0.709,-0.709 h -19.916 c -0.39,0 -0.709,0.319 -0.709,0.709 v 11.774 c 0,0.39 0.319,0.708 0.709,0.708 H -0.709 C -0.319,12.482 0,12.164 0,11.774 Z"
                         inkscape:connector-curvature="0" /></g><g
                       id="g4481"
                       transform="translate(42.5376,12.7197)"><path
                         id="path4483"
                         style="fill:none;stroke:#165283;stroke-width:0.5;stroke-linecap:butt;stroke-linejoin:miter;stroke-miterlimit:4;stroke-dasharray:none;stroke-opacity:1"
                         d="m 0,0 c 0,-0.39 -0.319,-0.709 -0.709,-0.709 h -19.916 c -0.39,0 -0.709,0.319 -0.709,0.709 v 11.773 c 0,0.39 0.319,0.709 0.709,0.709 H -0.709 C -0.319,12.482 0,12.163 0,11.773 Z"
                         inkscape:connector-curvature="0" /></g><g
                       id="g4485"
                       transform="translate(17.1743,54.7192)"><path
                         id="path4487"
                         style="fill:none;stroke:#165283;stroke-width:1;stroke-linecap:round;stroke-linejoin:miter;stroke-miterlimit:4;stroke-dasharray:none;stroke-opacity:1"
                         d="M 0,0 V -42.673"
                         inkscape:connector-curvature="0" /></g><g
                       id="g4489"
                       transform="translate(17.1743,17.8213)"><path
                         id="path4491"
                         style="fill:none;stroke:#165283;stroke-width:1;stroke-linecap:round;stroke-linejoin:miter;stroke-miterlimit:4;stroke-dasharray:none;stroke-opacity:1"
                         d="M 0,0 H 3.619"
                         inkscape:connector-curvature="0" /></g><g
                       id="g4493"
                       transform="translate(17.3638,47.8184)"><path
                         id="path4495"
                         style="fill:none;stroke:#165283;stroke-width:1;stroke-linecap:round;stroke-linejoin:miter;stroke-miterlimit:4;stroke-dasharray:none;stroke-opacity:1"
                         d="M 0,0 H 3.279"
                         inkscape:connector-curvature="0" /></g><g
                       id="g4497"
                       transform="translate(23.9595,40.2134)"><path
                         id="path4499"
                         style="fill:none;stroke:#165283;stroke-width:1;stroke-linecap:round;stroke-linejoin:miter;stroke-miterlimit:4;stroke-dasharray:none;stroke-opacity:1"
                         d="M 0,0 V -6.549"
                         inkscape:connector-curvature="0" /></g><g
                       id="g4501"
                       transform="translate(23.9595,33.6646)"><path
                         id="path4503"
                         style="fill:none;stroke:#165283;stroke-width:1;stroke-linecap:round;stroke-linejoin:miter;stroke-miterlimit:4;stroke-dasharray:none;stroke-opacity:1"
                         d="M 0,0 H 2.714"
                         inkscape:connector-curvature="0" /></g><g
                       id="g4505"
                       transform="translate(46.8726,34.8208)"><path
                         id="path4507"
                         style="fill:#0f3c71;fill-opacity:1;fill-rule:nonzero;stroke:none"
                         d="m 0,0 c 0,-0.39 -0.319,-0.708 -0.709,-0.708 h -14.272 c -0.391,0 -0.709,0.318 -0.709,0.708 v 0.371 c 0,0.389 0.318,0.708 0.709,0.708 H -0.709 C -0.319,1.079 0,0.76 0,0.371 Z"
                         inkscape:connector-curvature="0" /></g><g
                       id="g4509"
                       transform="translate(46.8726,32.3193)"><path
                         id="path4511"
                         style="fill:#0f3c71;fill-opacity:1;fill-rule:nonzero;stroke:none"
                         d="m 0,0 c 0,-0.39 -0.319,-0.709 -0.709,-0.709 h -14.272 c -0.391,0 -0.709,0.319 -0.709,0.709 v 0.369 c 0,0.39 0.318,0.709 0.709,0.709 H -0.709 C -0.319,1.078 0,0.759 0,0.369 Z"
                         inkscape:connector-curvature="0" /></g><g
                       id="g4513"
                       transform="translate(46.8726,37.3223)"><path
                         id="path4515"
                         style="fill:#0f3c71;fill-opacity:1;fill-rule:nonzero;stroke:none"
                         d="m 0,0 c 0,-0.39 -0.319,-0.708 -0.709,-0.708 h -14.272 c -0.391,0 -0.709,0.318 -0.709,0.708 v 0.371 c 0,0.389 0.318,0.708 0.709,0.708 H -0.709 C -0.319,1.079 0,0.76 0,0.371 Z"
                         inkscape:connector-curvature="0" /></g><g
                       id="g4517"
                       transform="translate(46.8726,27.3154)"><path
                         id="path4519"
                         style="fill:#0f3c71;fill-opacity:1;fill-rule:nonzero;stroke:none"
                         d="m 0,0 c 0,-0.39 -0.319,-0.709 -0.709,-0.709 h -14.272 c -0.391,0 -0.709,0.319 -0.709,0.709 v 0.369 c 0,0.39 0.318,0.709 0.709,0.709 H -0.709 C -0.319,1.078 0,0.759 0,0.369 Z"
                         inkscape:connector-curvature="0" /></g><g
                       id="g4521"
                       transform="translate(46.8726,29.8174)"><path
                         id="path4523"
                         style="fill:#0f3c71;fill-opacity:1;fill-rule:nonzero;stroke:none"
                         d="m 0,0 c 0,-0.39 -0.319,-0.709 -0.709,-0.709 h -14.272 c -0.391,0 -0.709,0.319 -0.709,0.709 v 0.369 c 0,0.39 0.318,0.709 0.709,0.709 H -0.709 C -0.319,1.078 0,0.759 0,0.369 Z"
                         inkscape:connector-curvature="0" /></g><g
                       id="g4525"
                       transform="translate(30.0337,34.8208)"><path
                         id="path4527"
                         style="fill:#0f3c71;fill-opacity:1;fill-rule:nonzero;stroke:none"
                         d="m 0,0 c 0,-0.39 -0.319,-0.708 -0.708,-0.708 h -0.496 c -0.389,0 -0.708,0.318 -0.708,0.708 v 0.371 c 0,0.389 0.319,0.708 0.708,0.708 h 0.496 C -0.319,1.079 0,0.76 0,0.371 Z"
                         inkscape:connector-curvature="0" /></g><g
                       id="g4529"
                       transform="translate(30.0337,32.3193)"><path
                         id="path4531"
                         style="fill:#0f3c71;fill-opacity:1;fill-rule:nonzero;stroke:none"
                         d="m 0,0 c 0,-0.39 -0.319,-0.709 -0.708,-0.709 h -0.496 c -0.389,0 -0.708,0.319 -0.708,0.709 v 0.369 c 0,0.39 0.319,0.709 0.708,0.709 h 0.496 C -0.319,1.078 0,0.759 0,0.369 Z"
                         inkscape:connector-curvature="0" /></g><g
                       id="g4533"
                       transform="translate(30.0337,37.3223)"><path
                         id="path4535"
                         style="fill:#0f3c71;fill-opacity:1;fill-rule:nonzero;stroke:none"
                         d="m 0,0 c 0,-0.39 -0.319,-0.708 -0.708,-0.708 h -0.496 c -0.389,0 -0.708,0.318 -0.708,0.708 v 0.371 c 0,0.389 0.319,0.708 0.708,0.708 h 0.496 C -0.319,1.079 0,0.76 0,0.371 Z"
                         inkscape:connector-curvature="0" /></g><g
                       id="g4537"
                       transform="translate(30.0337,27.3154)"><path
                         id="path4539"
                         style="fill:#0f3c71;fill-opacity:1;fill-rule:nonzero;stroke:none"
                         d="m 0,0 c 0,-0.39 -0.319,-0.709 -0.708,-0.709 h -0.496 c -0.389,0 -0.708,0.319 -0.708,0.709 v 0.369 c 0,0.39 0.319,0.709 0.708,0.709 h 0.496 C -0.319,1.078 0,0.759 0,0.369 Z"
                         inkscape:connector-curvature="0" /></g><g
                       id="g4541"
                       transform="translate(30.0903,29.749)"><path
                         id="path4543"
                         style="fill:#0f3c71;fill-opacity:1;fill-rule:nonzero;stroke:none"
                         d="m 0,0 c 0,-0.39 -0.319,-0.709 -0.708,-0.709 h -0.496 c -0.389,0 -0.708,0.319 -0.708,0.709 v 0.369 c 0,0.39 0.319,0.709 0.708,0.709 h 0.496 C -0.319,1.078 0,0.759 0,0.369 Z"
                         inkscape:connector-curvature="0" /></g><g
                       id="g4545"
                       transform="translate(41.3101,21.04)"><path
                         id="path4547"
                         style="fill:#0f3c71;fill-opacity:1;fill-rule:nonzero;stroke:none"
                         d="m 0,0 c 0,-0.39 -0.319,-0.709 -0.709,-0.709 h -14.273 c -0.39,0 -0.708,0.319 -0.708,0.709 v 0.369 c 0,0.39 0.318,0.709 0.708,0.709 H -0.709 C -0.319,1.078 0,0.759 0,0.369 Z"
                         inkscape:connector-curvature="0" /></g><g
                       id="g4549"
                       transform="translate(41.3101,18.5381)"><path
                         id="path4551"
                         style="fill:#0f3c71;fill-opacity:1;fill-rule:nonzero;stroke:none"
                         d="m 0,0 c 0,-0.39 -0.319,-0.709 -0.709,-0.709 h -14.273 c -0.39,0 -0.708,0.319 -0.708,0.709 v 0.369 c 0,0.39 0.318,0.709 0.708,0.709 H -0.709 C -0.319,1.078 0,0.759 0,0.369 Z"
                         inkscape:connector-curvature="0" /></g><g
                       id="g4553"
                       transform="translate(41.3101,23.542)"><path
                         id="path4555"
                         style="fill:#0f3c71;fill-opacity:1;fill-rule:nonzero;stroke:none"
                         d="m 0,0 c 0,-0.39 -0.319,-0.709 -0.709,-0.709 h -14.273 c -0.39,0 -0.708,0.319 -0.708,0.709 v 0.369 c 0,0.39 0.318,0.709 0.708,0.709 H -0.709 C -0.319,1.078 0,0.759 0,0.369 Z"
                         inkscape:connector-curvature="0" /></g><g
                       id="g4557"
                       transform="translate(41.3101,13.5342)"><path
                         id="path4559"
                         style="fill:#0f3c71;fill-opacity:1;fill-rule:nonzero;stroke:none"
                         d="m 0,0 c 0,-0.39 -0.319,-0.709 -0.709,-0.709 h -14.273 c -0.39,0 -0.708,0.319 -0.708,0.709 v 0.369 c 0,0.39 0.318,0.709 0.708,0.709 H -0.709 C -0.319,1.078 0,0.759 0,0.369 Z"
                         inkscape:connector-curvature="0" /></g><g
                       id="g4561"
                       transform="translate(41.3101,16.0361)"><path
                         id="path4563"
                         style="fill:#0f3c71;fill-opacity:1;fill-rule:nonzero;stroke:none"
                         d="m 0,0 c 0,-0.39 -0.319,-0.709 -0.709,-0.709 h -14.273 c -0.39,0 -0.708,0.319 -0.708,0.709 v 0.369 c 0,0.39 0.318,0.709 0.708,0.709 H -0.709 C -0.319,1.078 0,0.759 0,0.369 Z"
                         inkscape:connector-curvature="0" /></g><g
                       id="g4565"
                       transform="translate(24.4712,21.04)"><path
                         id="path4567"
                         style="fill:#0f3c71;fill-opacity:1;fill-rule:nonzero;stroke:none"
                         d="m 0,0 c 0,-0.39 -0.319,-0.709 -0.708,-0.709 h -0.496 c -0.389,0 -0.708,0.319 -0.708,0.709 v 0.369 c 0,0.39 0.319,0.709 0.708,0.709 h 0.496 C -0.319,1.078 0,0.759 0,0.369 Z"
                         inkscape:connector-curvature="0" /></g><g
                       id="g4569"
                       transform="translate(24.4712,18.5381)"><path
                         id="path4571"
                         style="fill:#0f3c71;fill-opacity:1;fill-rule:nonzero;stroke:none"
                         d="m 0,0 c 0,-0.39 -0.319,-0.709 -0.708,-0.709 h -0.496 c -0.389,0 -0.708,0.319 -0.708,0.709 v 0.369 c 0,0.39 0.319,0.709 0.708,0.709 h 0.496 C -0.319,1.078 0,0.759 0,0.369 Z"
                         inkscape:connector-curvature="0" /></g><g
                       id="g4573"
                       transform="translate(24.4712,23.542)"><path
                         id="path4575"
                         style="fill:#0f3c71;fill-opacity:1;fill-rule:nonzero;stroke:none"
                         d="m 0,0 c 0,-0.39 -0.319,-0.709 -0.708,-0.709 h -0.496 c -0.389,0 -0.708,0.319 -0.708,0.709 v 0.369 c 0,0.39 0.319,0.709 0.708,0.709 h 0.496 C -0.319,1.078 0,0.759 0,0.369 Z"
                         inkscape:connector-curvature="0" /></g><g
                       id="g4577"
                       transform="translate(24.4712,13.5342)"><path
                         id="path4579"
                         style="fill:#0f3c71;fill-opacity:1;fill-rule:nonzero;stroke:none"
                         d="m 0,0 c 0,-0.39 -0.319,-0.709 -0.708,-0.709 h -0.496 c -0.389,0 -0.708,0.319 -0.708,0.709 v 0.369 c 0,0.39 0.319,0.709 0.708,0.709 h 0.496 C -0.319,1.078 0,0.759 0,0.369 Z"
                         inkscape:connector-curvature="0" /></g><g
                       id="g4581"
                       transform="translate(24.5278,15.9678)"><path
                         id="path4583"
                         style="fill:#0f3c71;fill-opacity:1;fill-rule:nonzero;stroke:none"
                         d="m 0,0 c 0,-0.39 -0.319,-0.709 -0.708,-0.709 h -0.496 c -0.389,0 -0.708,0.319 -0.708,0.709 v 0.369 c 0,0.39 0.319,0.709 0.708,0.709 h 0.496 C -0.319,1.078 0,0.759 0,0.369 Z"
                         inkscape:connector-curvature="0" /></g></g></g></g></g></g></g></g></g></g></mask><clipPath
   id="clipPath4343"
   clipPathUnits="userSpaceOnUse"><path
     id="path4345"
     d="M 16.6743,55.2192 H 48.5552 V 11.5459 H 16.6743 Z"
     inkscape:connector-curvature="0" /></clipPath><clipPath
   id="clipPath4347"
   clipPathUnits="userSpaceOnUse"><path
     id="path4349"
     d="M 16.6743,55.2192 H 48.5552 V 11.5459 H 16.6743 Z"
     inkscape:connector-curvature="0" /></clipPath><mask
   id="mask4377"
   height="1"
   width="1"
   y="0"
   x="0"
   maskUnits="userSpaceOnUse"><g
     id="g4379"><g
       style="opacity:0.30000299"
       id="g4381"
       clip-path="url(#clipPath4351)"><path
         id="path4383"
         style="fill:#000000;fill-opacity:1;fill-rule:nonzero;stroke:none"
         d="M 16.674,55.219 H 48.555 V 11.546 H 16.674 Z"
         inkscape:connector-curvature="0" /><g
         id="g4385"><g
           id="g4387" /><g
           id="g4389"><g
             id="g4391"
             clip-path="url(#clipPath4355)"><g
               id="g4393"><g
                 id="g4395"
                 clip-path="url(#clipPath4359)"><g
                   id="g4397"><g
                     id="g4399"><path
                       id="path4401"
                       style="fill:url(#linearGradient4363);stroke:none"
                       d="M 49.701,10.957 H 14.796 v 43.87 h 34.905 z"
                       inkscape:connector-curvature="0" /></g></g></g></g></g></g></g></g></g></mask><clipPath
   id="clipPath4351"
   clipPathUnits="userSpaceOnUse"><path
     id="path4353"
     d="M 16.6743,55.2192 H 48.5552 V 11.5459 H 16.6743 Z"
     inkscape:connector-curvature="0" /></clipPath><clipPath
   id="clipPath4355"
   clipPathUnits="userSpaceOnUse"><path
     id="path4357"
     d="M 16.6743,55.2192 H 48.5552 V 11.5459 H 16.6743 Z"
     inkscape:connector-curvature="0" /></clipPath><clipPath
   id="clipPath4359"
   clipPathUnits="userSpaceOnUse"><path
     id="path4361"
     d="M 49.701,10.957 H 14.796 v 43.87 h 34.905 z"
     inkscape:connector-curvature="0" /></clipPath><linearGradient
   id="linearGradient4363"
   spreadMethod="pad"
   gradientTransform="matrix(0,43.869141,43.869141,0,32.247559,10.957031)"
   gradientUnits="userSpaceOnUse"
   y2="0"
   x2="1"
   y1="0"
   x1="0"><stop
     id="stop4365"
     offset="0"
     style="stop-opacity:1;stop-color:#231f20" /><stop
     id="stop4367"
     offset="0.00561523"
     style="stop-opacity:1;stop-color:#231f20" /><stop
     id="stop4369"
     offset="0.28541857"
     style="stop-opacity:1;stop-color:#c6c5c5" /><stop
     id="stop4371"
     offset="0.679779"
     style="stop-opacity:1;stop-color:#c6c5c5" /><stop
     id="stop4373"
     offset="0.89896925"
     style="stop-opacity:1;stop-color:#c6c5c5" /><stop
     id="stop4375"
     offset="1"
     style="stop-opacity:1;stop-color:#231f20" /></linearGradient><clipPath
   id="clipPath4403"
   clipPathUnits="userSpaceOnUse"><path
     id="path4405"
     d="M 16.6743,55.2192 H 48.5552 V 11.5459 H 16.6743 Z"
     inkscape:connector-curvature="0" /></clipPath><clipPath
   id="clipPath4589"
   clipPathUnits="userSpaceOnUse"><path
     id="path4591"
     d="M 8.93408,53.583 H 54.9468 V 11.9658 H 8.93408 Z"
     inkscape:connector-curvature="0" /></clipPath><clipPath
   id="clipPath18-4"
   clipPathUnits="userSpaceOnUse"><path
     id="path20-6"
     d="M 196.418,112.854 H 419.676 V -0.228 H 196.418 Z"
     inkscape:connector-curvature="0" /></clipPath><clipPath
   id="clipPath28-9"
   clipPathUnits="userSpaceOnUse"><path
     id="path30-2"
     d="M 201,1 H 415 V 110 H 201 Z"
     inkscape:connector-curvature="0" /></clipPath>
</defs><g
     id="g12"
     transform="matrix(1.25,0,0,-1.25,0,132.28346)" /><g
     id="g108"
     transform="matrix(0.85158974,0,0,-0.85158974,13.812225,135.88425)"
     style="stroke-width:1.46784294"><g
       id="g110"
       clip-path="url(#clipPath112)"
       style="stroke-width:1.46784294"><g
         id="g116"
         transform="translate(0,-0.228348)"
         style="stroke-width:1.46784294"><g
           id="g118"
           style="stroke-width:1.46784294"><g
             id="g120"
             clip-path="url(#clipPath122)"
             style="stroke-width:1.46784294"><g
               id="g126"
               style="stroke-width:1.46784294"><path
                 inkscape:connector-curvature="0"
                 d="m 88.496,124.379 c 0,-2.813 -2.281,-5.094 -5.09,-5.094 -2.812,0 -5.094,2.281 -5.094,5.094 0,2.812 2.282,5.09 5.094,5.09 2.809,0 5.09,-2.278 5.09,-5.09"
                 style="fill:#ed6a1c;fill-opacity:1;fill-rule:nonzero;stroke:none;stroke-width:1.46784294"
                 id="path128" /><path
                 inkscape:connector-curvature="0"
                 d="m 140.797,87.785 h -14.656 l -8.426,-8.422 -8.422,8.422 H 102.75 L 83.379,68.418 64.008,87.785 h -6.492 l -8.422,-8.422 -8.422,8.422 H 25.844 L 26.02,87.613 C 26.113,74.945 36.406,64.707 49.094,64.707 h 68.625 c 12.683,0 22.976,10.238 23.07,22.906 l 0.176,0.172 z"
                 style="fill:#2d4b9a;fill-opacity:1;fill-rule:nonzero;stroke:none;stroke-width:1.46784294"
                 id="path130" /><path
                 inkscape:connector-curvature="0"
                 d="m 96.219,110.227 c -1.168,-2.02 -1.75,-4.633 -1.75,-7.836 V 91.535 h 19.539 v 13.414 c 0,3.102 1.219,4.653 3.656,4.653 2.508,0 3.762,-1.797 3.762,-5.383 V 91.535 h 19.539 v 11.586 c 0,3.098 -0.473,5.609 -1.41,7.524 -0.942,1.914 -2.598,3.675 -4.965,5.277 2.332,1.531 3.98,3.297 4.937,5.305 0.957,2 1.438,4.636 1.438,7.91 v 11.843 h -19.539 v -13.566 c 0,-3.102 -1.238,-4.652 -3.711,-4.652 -1.078,0 -1.965,0.437 -2.664,1.308 -0.696,0.871 -1.043,1.985 -1.043,3.344 V 140.98 H 94.469 v -11.109 c 0,-3.238 0.582,-5.906 1.75,-7.996 1.164,-2.09 3.195,-4.074 6.086,-5.953 -2.891,-1.777 -4.922,-3.676 -6.086,-5.695"
                 style="fill:#2d4b9a;fill-opacity:1;fill-rule:nonzero;stroke:none;stroke-width:1.46784294"
                 id="path132" /><path
                 inkscape:connector-curvature="0"
                 d="m 45.383,91.535 v 25.664 c 0,2.996 1.219,4.492 3.656,4.492 2.477,0 3.711,-1.496 3.711,-4.492 V 91.535 h 19.539 v 23.731 c 0,7.523 -1.758,13.39 -5.277,17.605 -4.492,5.399 -10.465,8.098 -17.918,8.098 -6.516,0 -12.016,-2.324 -16.512,-6.973 -4.492,-4.648 -6.738,-10.371 -6.738,-17.164 V 91.535 Z"
                 style="fill:#2d4b9a;fill-opacity:1;fill-rule:nonzero;stroke:none;stroke-width:1.46784294"
                 id="path134" /></g></g></g></g></g></g><g
     id="g1443"
     transform="matrix(0.65822949,0,0,0.65822949,209.16049,-141.74888)"
     style="stroke-width:1.51922691"><g
       transform="matrix(2.5,0,0,-2.5,613.64272,343.34068)"
       id="g4721"
       style="stroke-width:1.51922691"><path
         id="path4723"
         style="fill:#165283;fill-opacity:1;fill-rule:nonzero;stroke:none;stroke-width:1.51922691"
         d="m 0,0 v -1.15 c -2.464,-0.206 -2.594,-0.325 -2.497,-3.419 l 0.324,-9.876 c 0.098,-3.272 0.162,-3.361 2.497,-3.567 v -1.149 H -9.825 v 1.149 c 2.431,0.206 2.529,0.295 2.497,3.567 l -0.098,10.377 h -0.13 l -6.257,-14.769 h -1.752 L -21.499,-5.1 h -0.064 l -0.227,-6.545 c -0.098,-2.534 -0.065,-3.949 0.064,-4.864 0.129,-1.091 0.844,-1.355 2.952,-1.503 v -1.149 h -8.01 v 1.149 c 1.556,0.118 2.173,0.412 2.367,1.503 0.162,0.915 0.356,2.477 0.52,5.159 l 0.355,5.955 c 0.228,3.714 -0.031,4.039 -2.594,4.245 V 0 h 7.621 L -12.841,-11.674 -7.88,0 Z"
         inkscape:connector-curvature="0" /></g><g
       transform="matrix(2.5,0,0,-2.5,639.17723,380.41117)"
       id="g4725"
       style="stroke-width:1.51922691"><path
         id="path4727"
         style="fill:#165283;fill-opacity:1;fill-rule:nonzero;stroke:none;stroke-width:1.51922691"
         d="m 0,0 c 0,-1.532 0.064,-2.271 0.648,-2.535 0.52,-0.236 1.265,-0.266 2.27,-0.266 1.038,0 2.433,0.089 3.113,0.856 0.519,0.559 1.071,1.355 1.589,2.918 L 9.015,0.766 C 8.82,-0.354 8.139,-3.419 7.847,-4.333 H -8.236 v 1.149 c 2.465,0.177 2.723,0.383 2.723,3.567 v 9.728 c 0,3.184 -0.258,3.39 -2.432,3.567 v 1.15 H 2.594 v -1.15 C 0.26,13.501 0,13.295 0,10.111 Z"
         inkscape:connector-curvature="0" /></g><g
       transform="matrix(2.5,0,0,-2.5,596.47947,328.26993)"
       id="g4729"
       style="stroke-width:1.51922691"><path
         id="path4731"
         style="fill:#165283;fill-opacity:1;fill-rule:nonzero;stroke:none;stroke-width:1.51922691"
         d="M 0,0 C -1.806,4.958 -3.425,6.375 -4.705,5.91 -5.649,5.566 -5.938,3.893 -4.99,1.289 -3.78,-2.035 -1.858,-4.849 -0.304,-4.283 0.487,-3.995 1.079,-2.964 0,0 m 4.728,3.603 c 1.613,-4.433 -1.197,-7.997 -4.945,-9.36 -4.784,-1.741 -8.411,0.451 -9.561,3.61 -1.623,4.46 1.267,8.178 5.015,9.543 4.51,1.64 8.209,-0.276 9.491,-3.793"
         inkscape:connector-curvature="0" /></g><g
       transform="matrix(2.5,0,0,-2.5,631.67972,314.33693)"
       id="g4733"
       style="stroke-width:1.51922691"><path
         id="path4735"
         style="fill:#165283;fill-opacity:1;fill-rule:nonzero;stroke:none;stroke-width:1.51922691"
         d="m 0,0 c -0.71,0.432 -1.339,0.548 -1.948,0.326 -0.67,-0.244 -2.246,-1.413 -0.834,-5.292 1.461,-4.016 3.907,-4.193 4.638,-3.927 0.548,0.2 0.844,0.527 1.058,0.887 z M 7.425,-5.517 C 7.88,-6.764 8.092,-6.779 8.936,-6.536 L 9.9,-6.248 10.283,-7.3 C 9.531,-7.699 6.372,-9.163 3.933,-10.804 l -0.545,1.496 -0.989,-1.364 c -0.507,-0.686 -0.935,-0.936 -1.392,-1.102 -2.59,-0.943 -6.911,-0.258 -8.506,3.648 -1.594,3.906 0.883,8.384 5.637,10.115 0.304,0.111 0.73,0.171 1.054,0.227 l -1.148,3.157 c -0.596,1.636 -0.666,1.641 -2.535,1.086 l -0.363,0.997 c 1.605,0.804 3.872,2.067 6.321,3.398 z"
         inkscape:connector-curvature="0" /></g><g
       id="g4111"
       transform="matrix(2.5,0,0,-2.5,523.8077,421.06652)"
       style="stroke-width:1.51922691"><g
         clip-path="url(#clipPath4115)"
         id="g4113"
         style="stroke-width:1.51922691"><g
           id="g4119"
           style="stroke-width:1.51922691"><g
             id="g4121"
             style="stroke-width:1.51922691" /><g
             mask="url(#mask4149)"
             id="g4175"
             style="stroke-width:1.51922691"><g
               id="g4177"
               style="stroke-width:1.51922691" /><g
               id="g4183"
               style="stroke-width:1.51922691"><g
                 style="opacity:0.75;stroke-width:1.51922691"
                 id="g4185"
                 clip-path="url(#clipPath4179)"><g
                   id="g4187"
                   transform="translate(42.4282,41.127)"
                   style="stroke-width:1.51922691"><path
                     id="path4189"
                     style="fill:none;stroke:#252775;stroke-width:0.75961345;stroke-linecap:butt;stroke-linejoin:miter;stroke-miterlimit:4;stroke-dasharray:none;stroke-opacity:1"
                     d="m 0,0 c 0,-0.39 -0.319,-0.708 -0.709,-0.708 h -19.917 c -0.39,0 -0.709,0.318 -0.709,0.708 v 11.774 c 0,0.39 0.319,0.709 0.709,0.709 H -0.709 C -0.319,12.483 0,12.164 0,11.774 Z"
                     inkscape:connector-curvature="0" /></g><g
                   id="g4191"
                   transform="translate(41.3755,49.3145)"
                   style="stroke-width:1.51922691"><path
                     id="path4193"
                     style="fill:#1a1c54;fill-opacity:1;fill-rule:nonzero;stroke:none;stroke-width:1.51922691"
                     d="m 0,0 c 0,-0.39 -0.319,-0.708 -0.709,-0.708 h -14.273 c -0.39,0 -0.708,0.318 -0.708,0.708 v 0.371 c 0,0.389 0.318,0.708 0.708,0.708 H -0.709 C -0.319,1.079 0,0.76 0,0.371 Z"
                     inkscape:connector-curvature="0" /></g><g
                   id="g4195"
                   transform="translate(41.3755,46.812)"
                   style="stroke-width:1.51922691"><path
                     id="path4197"
                     style="fill:#1a1c54;fill-opacity:1;fill-rule:nonzero;stroke:none;stroke-width:1.51922691"
                     d="m 0,0 c 0,-0.39 -0.319,-0.708 -0.709,-0.708 h -14.273 c -0.39,0 -0.708,0.318 -0.708,0.708 v 0.37 c 0,0.39 0.318,0.709 0.708,0.709 H -0.709 C -0.319,1.079 0,0.76 0,0.37 Z"
                     inkscape:connector-curvature="0" /></g><g
                   id="g4199"
                   transform="translate(41.3755,51.8159)"
                   style="stroke-width:1.51922691"><path
                     id="path4201"
                     style="fill:#1a1c54;fill-opacity:1;fill-rule:nonzero;stroke:none;stroke-width:1.51922691"
                     d="m 0,0 c 0,-0.39 -0.319,-0.708 -0.709,-0.708 h -14.273 c -0.39,0 -0.708,0.318 -0.708,0.708 v 0.371 c 0,0.389 0.318,0.708 0.708,0.708 H -0.709 C -0.319,1.079 0,0.76 0,0.371 Z"
                     inkscape:connector-curvature="0" /></g><g
                   id="g4203"
                   transform="translate(41.3755,41.8081)"
                   style="stroke-width:1.51922691"><path
                     id="path4205"
                     style="fill:#1a1c54;fill-opacity:1;fill-rule:nonzero;stroke:none;stroke-width:1.51922691"
                     d="m 0,0 c 0,-0.39 -0.319,-0.708 -0.709,-0.708 h -14.273 c -0.39,0 -0.708,0.318 -0.708,0.708 v 0.37 c 0,0.39 0.318,0.709 0.708,0.709 H -0.709 C -0.319,1.079 0,0.76 0,0.37 Z"
                     inkscape:connector-curvature="0" /></g><g
                   id="g4207"
                   transform="translate(41.3755,44.3101)"
                   style="stroke-width:1.51922691"><path
                     id="path4209"
                     style="fill:#1a1c54;fill-opacity:1;fill-rule:nonzero;stroke:none;stroke-width:1.51922691"
                     d="m 0,0 c 0,-0.39 -0.319,-0.708 -0.709,-0.708 h -14.273 c -0.39,0 -0.708,0.318 -0.708,0.708 v 0.37 c 0,0.39 0.318,0.709 0.708,0.709 H -0.709 C -0.319,1.079 0,0.76 0,0.37 Z"
                     inkscape:connector-curvature="0" /></g><g
                   id="g4211"
                   transform="translate(24.5366,49.3145)"
                   style="stroke-width:1.51922691"><path
                     id="path4213"
                     style="fill:#1a1c54;fill-opacity:1;fill-rule:nonzero;stroke:none;stroke-width:1.51922691"
                     d="m 0,0 c 0,-0.39 -0.319,-0.708 -0.708,-0.708 h -0.496 c -0.389,0 -0.708,0.318 -0.708,0.708 v 0.371 c 0,0.389 0.319,0.708 0.708,0.708 h 0.496 C -0.319,1.079 0,0.76 0,0.371 Z"
                     inkscape:connector-curvature="0" /></g><g
                   id="g4215"
                   transform="translate(24.5366,46.812)"
                   style="stroke-width:1.51922691"><path
                     id="path4217"
                     style="fill:#1a1c54;fill-opacity:1;fill-rule:nonzero;stroke:none;stroke-width:1.51922691"
                     d="m 0,0 c 0,-0.39 -0.319,-0.708 -0.708,-0.708 h -0.496 c -0.389,0 -0.708,0.318 -0.708,0.708 v 0.37 c 0,0.39 0.319,0.709 0.708,0.709 h 0.496 C -0.319,1.079 0,0.76 0,0.37 Z"
                     inkscape:connector-curvature="0" /></g><g
                   id="g4219"
                   transform="translate(24.5366,51.8159)"
                   style="stroke-width:1.51922691"><path
                     id="path4221"
                     style="fill:#1a1c54;fill-opacity:1;fill-rule:nonzero;stroke:none;stroke-width:1.51922691"
                     d="m 0,0 c 0,-0.39 -0.319,-0.708 -0.708,-0.708 h -0.496 c -0.389,0 -0.708,0.318 -0.708,0.708 v 0.371 c 0,0.389 0.319,0.708 0.708,0.708 h 0.496 C -0.319,1.079 0,0.76 0,0.371 Z"
                     inkscape:connector-curvature="0" /></g><g
                   id="g4223"
                   transform="translate(24.5366,41.8081)"
                   style="stroke-width:1.51922691"><path
                     id="path4225"
                     style="fill:#1a1c54;fill-opacity:1;fill-rule:nonzero;stroke:none;stroke-width:1.51922691"
                     d="m 0,0 c 0,-0.39 -0.319,-0.708 -0.708,-0.708 h -0.496 c -0.389,0 -0.708,0.318 -0.708,0.708 v 0.37 c 0,0.39 0.319,0.709 0.708,0.709 h 0.496 C -0.319,1.079 0,0.76 0,0.37 Z"
                     inkscape:connector-curvature="0" /></g><g
                   id="g4227"
                   transform="translate(24.5366,44.3101)"
                   style="stroke-width:1.51922691"><path
                     id="path4229"
                     style="fill:#1a1c54;fill-opacity:1;fill-rule:nonzero;stroke:none;stroke-width:1.51922691"
                     d="m 0,0 c 0,-0.39 -0.319,-0.708 -0.708,-0.708 h -0.496 c -0.389,0 -0.708,0.318 -0.708,0.708 v 0.37 c 0,0.39 0.319,0.709 0.708,0.709 h 0.496 C -0.319,1.079 0,0.76 0,0.37 Z"
                     inkscape:connector-curvature="0" /></g><g
                   id="g4231"
                   transform="translate(48.3081,26.6563)"
                   style="stroke-width:1.51922691"><path
                     id="path4233"
                     style="fill:none;stroke:#252775;stroke-width:0.75961345;stroke-linecap:butt;stroke-linejoin:miter;stroke-miterlimit:4;stroke-dasharray:none;stroke-opacity:1"
                     d="m 0,0 c 0,-0.39 -0.319,-0.709 -0.709,-0.709 h -19.916 c -0.39,0 -0.709,0.319 -0.709,0.709 v 11.774 c 0,0.39 0.319,0.709 0.709,0.709 H -0.709 C -0.319,12.483 0,12.164 0,11.774 Z"
                     inkscape:connector-curvature="0" /></g><g
                   id="g4235"
                   transform="translate(42.5405,12.7139)"
                   style="stroke-width:1.51922691"><path
                     id="path4237"
                     style="fill:none;stroke:#252775;stroke-width:0.75961345;stroke-linecap:butt;stroke-linejoin:miter;stroke-miterlimit:4;stroke-dasharray:none;stroke-opacity:1"
                     d="m 0,0 c 0,-0.39 -0.319,-0.709 -0.709,-0.709 h -19.916 c -0.39,0 -0.709,0.319 -0.709,0.709 v 11.773 c 0,0.39 0.319,0.709 0.709,0.709 H -0.709 C -0.319,12.482 0,12.163 0,11.773 Z"
                     inkscape:connector-curvature="0" /></g><g
                   id="g4239"
                   transform="translate(17.1772,54.7129)"
                   style="stroke-width:1.51922691"><path
                     id="path4241"
                     style="fill:none;stroke:#252775;stroke-width:1.51922691;stroke-linecap:round;stroke-linejoin:miter;stroke-miterlimit:4;stroke-dasharray:none;stroke-opacity:1"
                     d="M 0,0 V -42.673"
                     inkscape:connector-curvature="0" /></g><g
                   id="g4243"
                   transform="translate(17.1772,17.8145)"
                   style="stroke-width:1.51922691"><path
                     id="path4245"
                     style="fill:none;stroke:#252775;stroke-width:1.51922691;stroke-linecap:round;stroke-linejoin:miter;stroke-miterlimit:4;stroke-dasharray:none;stroke-opacity:1"
                     d="M 0,0 H 3.619"
                     inkscape:connector-curvature="0" /></g><g
                   id="g4247"
                   transform="translate(17.3667,47.812)"
                   style="stroke-width:1.51922691"><path
                     id="path4249"
                     style="fill:none;stroke:#252775;stroke-width:1.51922691;stroke-linecap:round;stroke-linejoin:miter;stroke-miterlimit:4;stroke-dasharray:none;stroke-opacity:1"
                     d="M 0,0 H 3.279"
                     inkscape:connector-curvature="0" /></g><g
                   id="g4251"
                   transform="translate(23.9624,40.207)"
                   style="stroke-width:1.51922691"><path
                     id="path4253"
                     style="fill:none;stroke:#252775;stroke-width:1.51922691;stroke-linecap:round;stroke-linejoin:miter;stroke-miterlimit:4;stroke-dasharray:none;stroke-opacity:1"
                     d="M 0,0 V -6.549"
                     inkscape:connector-curvature="0" /></g><g
                   id="g4255"
                   transform="translate(23.9624,33.6582)"
                   style="stroke-width:1.51922691"><path
                     id="path4257"
                     style="fill:none;stroke:#252775;stroke-width:1.51922691;stroke-linecap:round;stroke-linejoin:miter;stroke-miterlimit:4;stroke-dasharray:none;stroke-opacity:1"
                     d="M 0,0 H 2.714"
                     inkscape:connector-curvature="0" /></g><g
                   id="g4259"
                   transform="translate(46.8755,34.8145)"
                   style="stroke-width:1.51922691"><path
                     id="path4261"
                     style="fill:#1a1c54;fill-opacity:1;fill-rule:nonzero;stroke:none;stroke-width:1.51922691"
                     d="m 0,0 c 0,-0.39 -0.319,-0.708 -0.709,-0.708 h -14.272 c -0.39,0 -0.709,0.318 -0.709,0.708 v 0.371 c 0,0.389 0.319,0.708 0.709,0.708 H -0.709 C -0.319,1.079 0,0.76 0,0.371 Z"
                     inkscape:connector-curvature="0" /></g><g
                   id="g4263"
                   transform="translate(46.8755,32.3125)"
                   style="stroke-width:1.51922691"><path
                     id="path4265"
                     style="fill:#1a1c54;fill-opacity:1;fill-rule:nonzero;stroke:none;stroke-width:1.51922691"
                     d="m 0,0 c 0,-0.39 -0.319,-0.709 -0.709,-0.709 h -14.272 c -0.39,0 -0.709,0.319 -0.709,0.709 v 0.37 c 0,0.389 0.319,0.708 0.709,0.708 H -0.709 C -0.319,1.078 0,0.759 0,0.37 Z"
                     inkscape:connector-curvature="0" /></g><g
                   id="g4267"
                   transform="translate(46.8755,37.3159)"
                   style="stroke-width:1.51922691"><path
                     id="path4269"
                     style="fill:#1a1c54;fill-opacity:1;fill-rule:nonzero;stroke:none;stroke-width:1.51922691"
                     d="m 0,0 c 0,-0.39 -0.319,-0.708 -0.709,-0.708 h -14.272 c -0.39,0 -0.709,0.318 -0.709,0.708 v 0.371 c 0,0.389 0.319,0.708 0.709,0.708 H -0.709 C -0.319,1.079 0,0.76 0,0.371 Z"
                     inkscape:connector-curvature="0" /></g><g
                   id="g4271"
                   transform="translate(46.8755,27.3086)"
                   style="stroke-width:1.51922691"><path
                     id="path4273"
                     style="fill:#1a1c54;fill-opacity:1;fill-rule:nonzero;stroke:none;stroke-width:1.51922691"
                     d="m 0,0 c 0,-0.39 -0.319,-0.709 -0.709,-0.709 h -14.272 c -0.39,0 -0.709,0.319 -0.709,0.709 v 0.369 c 0,0.39 0.319,0.709 0.709,0.709 H -0.709 C -0.319,1.078 0,0.759 0,0.369 Z"
                     inkscape:connector-curvature="0" /></g><g
                   id="g4275"
                   transform="translate(46.8755,29.8105)"
                   style="stroke-width:1.51922691"><path
                     id="path4277"
                     style="fill:#1a1c54;fill-opacity:1;fill-rule:nonzero;stroke:none;stroke-width:1.51922691"
                     d="m 0,0 c 0,-0.39 -0.319,-0.709 -0.709,-0.709 h -14.272 c -0.39,0 -0.709,0.319 -0.709,0.709 v 0.369 c 0,0.39 0.319,0.709 0.709,0.709 H -0.709 C -0.319,1.078 0,0.759 0,0.369 Z"
                     inkscape:connector-curvature="0" /></g><g
                   id="g4279"
                   transform="translate(30.0366,34.8145)"
                   style="stroke-width:1.51922691"><path
                     id="path4281"
                     style="fill:#1a1c54;fill-opacity:1;fill-rule:nonzero;stroke:none;stroke-width:1.51922691"
                     d="m 0,0 c 0,-0.39 -0.319,-0.708 -0.708,-0.708 h -0.496 c -0.389,0 -0.708,0.318 -0.708,0.708 v 0.371 c 0,0.389 0.319,0.708 0.708,0.708 h 0.496 C -0.319,1.079 0,0.76 0,0.371 Z"
                     inkscape:connector-curvature="0" /></g><g
                   id="g4283"
                   transform="translate(30.0366,32.3125)"
                   style="stroke-width:1.51922691"><path
                     id="path4285"
                     style="fill:#1a1c54;fill-opacity:1;fill-rule:nonzero;stroke:none;stroke-width:1.51922691"
                     d="m 0,0 c 0,-0.39 -0.319,-0.709 -0.708,-0.709 h -0.496 c -0.389,0 -0.708,0.319 -0.708,0.709 v 0.37 c 0,0.389 0.319,0.708 0.708,0.708 h 0.496 C -0.319,1.078 0,0.759 0,0.37 Z"
                     inkscape:connector-curvature="0" /></g><g
                   id="g4287"
                   transform="translate(30.0366,37.3159)"
                   style="stroke-width:1.51922691"><path
                     id="path4289"
                     style="fill:#1a1c54;fill-opacity:1;fill-rule:nonzero;stroke:none;stroke-width:1.51922691"
                     d="m 0,0 c 0,-0.39 -0.319,-0.708 -0.708,-0.708 h -0.496 c -0.389,0 -0.708,0.318 -0.708,0.708 v 0.371 c 0,0.389 0.319,0.708 0.708,0.708 h 0.496 C -0.319,1.079 0,0.76 0,0.371 Z"
                     inkscape:connector-curvature="0" /></g><g
                   id="g4291"
                   transform="translate(30.0366,27.3086)"
                   style="stroke-width:1.51922691"><path
                     id="path4293"
                     style="fill:#1a1c54;fill-opacity:1;fill-rule:nonzero;stroke:none;stroke-width:1.51922691"
                     d="m 0,0 c 0,-0.39 -0.319,-0.709 -0.708,-0.709 h -0.496 c -0.389,0 -0.708,0.319 -0.708,0.709 v 0.369 c 0,0.39 0.319,0.709 0.708,0.709 h 0.496 C -0.319,1.078 0,0.759 0,0.369 Z"
                     inkscape:connector-curvature="0" /></g><g
                   id="g4295"
                   transform="translate(30.0933,29.7432)"
                   style="stroke-width:1.51922691"><path
                     id="path4297"
                     style="fill:#1a1c54;fill-opacity:1;fill-rule:nonzero;stroke:none;stroke-width:1.51922691"
                     d="m 0,0 c 0,-0.39 -0.319,-0.709 -0.708,-0.709 h -0.496 c -0.389,0 -0.708,0.319 -0.708,0.709 v 0.369 c 0,0.39 0.319,0.709 0.708,0.709 h 0.496 C -0.319,1.078 0,0.759 0,0.369 Z"
                     inkscape:connector-curvature="0" /></g><g
                   id="g4299"
                   transform="translate(41.313,21.0342)"
                   style="stroke-width:1.51922691"><path
                     id="path4301"
                     style="fill:#1a1c54;fill-opacity:1;fill-rule:nonzero;stroke:none;stroke-width:1.51922691"
                     d="m 0,0 c 0,-0.39 -0.319,-0.709 -0.709,-0.709 h -14.273 c -0.39,0 -0.708,0.319 -0.708,0.709 v 0.369 c 0,0.39 0.318,0.709 0.708,0.709 H -0.709 C -0.319,1.078 0,0.759 0,0.369 Z"
                     inkscape:connector-curvature="0" /></g><g
                   id="g4303"
                   transform="translate(41.313,18.5313)"
                   style="stroke-width:1.51922691"><path
                     id="path4305"
                     style="fill:#1a1c54;fill-opacity:1;fill-rule:nonzero;stroke:none;stroke-width:1.51922691"
                     d="m 0,0 c 0,-0.39 -0.319,-0.709 -0.709,-0.709 h -14.273 c -0.39,0 -0.708,0.319 -0.708,0.709 v 0.369 c 0,0.39 0.318,0.709 0.708,0.709 H -0.709 C -0.319,1.078 0,0.759 0,0.369 Z"
                     inkscape:connector-curvature="0" /></g><g
                   id="g4307"
                   transform="translate(41.313,23.5352)"
                   style="stroke-width:1.51922691"><path
                     id="path4309"
                     style="fill:#1a1c54;fill-opacity:1;fill-rule:nonzero;stroke:none;stroke-width:1.51922691"
                     d="m 0,0 c 0,-0.39 -0.319,-0.709 -0.709,-0.709 h -14.273 c -0.39,0 -0.708,0.319 -0.708,0.709 v 0.37 c 0,0.39 0.318,0.709 0.708,0.709 H -0.709 C -0.319,1.079 0,0.76 0,0.37 Z"
                     inkscape:connector-curvature="0" /></g><g
                   id="g4311"
                   transform="translate(41.313,13.5273)"
                   style="stroke-width:1.51922691"><path
                     id="path4313"
                     style="fill:#1a1c54;fill-opacity:1;fill-rule:nonzero;stroke:none;stroke-width:1.51922691"
                     d="m 0,0 c 0,-0.39 -0.319,-0.709 -0.709,-0.709 h -14.273 c -0.39,0 -0.708,0.319 -0.708,0.709 v 0.369 c 0,0.39 0.318,0.709 0.708,0.709 H -0.709 C -0.319,1.078 0,0.759 0,0.369 Z"
                     inkscape:connector-curvature="0" /></g><g
                   id="g4315"
                   transform="translate(41.313,16.0293)"
                   style="stroke-width:1.51922691"><path
                     id="path4317"
                     style="fill:#1a1c54;fill-opacity:1;fill-rule:nonzero;stroke:none;stroke-width:1.51922691"
                     d="m 0,0 c 0,-0.39 -0.319,-0.709 -0.709,-0.709 h -14.273 c -0.39,0 -0.708,0.319 -0.708,0.709 v 0.369 c 0,0.39 0.318,0.709 0.708,0.709 H -0.709 C -0.319,1.078 0,0.759 0,0.369 Z"
                     inkscape:connector-curvature="0" /></g><g
                   id="g4319"
                   transform="translate(24.4741,21.0342)"
                   style="stroke-width:1.51922691"><path
                     id="path4321"
                     style="fill:#1a1c54;fill-opacity:1;fill-rule:nonzero;stroke:none;stroke-width:1.51922691"
                     d="m 0,0 c 0,-0.39 -0.319,-0.709 -0.708,-0.709 h -0.496 c -0.389,0 -0.708,0.319 -0.708,0.709 v 0.369 c 0,0.39 0.319,0.709 0.708,0.709 h 0.496 C -0.319,1.078 0,0.759 0,0.369 Z"
                     inkscape:connector-curvature="0" /></g><g
                   id="g4323"
                   transform="translate(24.4741,18.5313)"
                   style="stroke-width:1.51922691"><path
                     id="path4325"
                     style="fill:#1a1c54;fill-opacity:1;fill-rule:nonzero;stroke:none;stroke-width:1.51922691"
                     d="m 0,0 c 0,-0.39 -0.319,-0.709 -0.708,-0.709 h -0.496 c -0.389,0 -0.708,0.319 -0.708,0.709 v 0.369 c 0,0.39 0.319,0.709 0.708,0.709 h 0.496 C -0.319,1.078 0,0.759 0,0.369 Z"
                     inkscape:connector-curvature="0" /></g><g
                   id="g4327"
                   transform="translate(24.4741,23.5352)"
                   style="stroke-width:1.51922691"><path
                     id="path4329"
                     style="fill:#1a1c54;fill-opacity:1;fill-rule:nonzero;stroke:none;stroke-width:1.51922691"
                     d="m 0,0 c 0,-0.39 -0.319,-0.709 -0.708,-0.709 h -0.496 c -0.389,0 -0.708,0.319 -0.708,0.709 v 0.37 c 0,0.39 0.319,0.709 0.708,0.709 h 0.496 C -0.319,1.079 0,0.76 0,0.37 Z"
                     inkscape:connector-curvature="0" /></g><g
                   id="g4331"
                   transform="translate(24.4741,13.5273)"
                   style="stroke-width:1.51922691"><path
                     id="path4333"
                     style="fill:#1a1c54;fill-opacity:1;fill-rule:nonzero;stroke:none;stroke-width:1.51922691"
                     d="m 0,0 c 0,-0.39 -0.319,-0.709 -0.708,-0.709 h -0.496 c -0.389,0 -0.708,0.319 -0.708,0.709 v 0.369 c 0,0.39 0.319,0.709 0.708,0.709 h 0.496 C -0.319,1.078 0,0.759 0,0.369 Z"
                     inkscape:connector-curvature="0" /></g><g
                   id="g4335"
                   transform="translate(24.5308,15.9619)"
                   style="stroke-width:1.51922691"><path
                     id="path4337"
                     style="fill:#1a1c54;fill-opacity:1;fill-rule:nonzero;stroke:none;stroke-width:1.51922691"
                     d="m 0,0 c 0,-0.39 -0.319,-0.709 -0.708,-0.709 h -0.496 c -0.389,0 -0.708,0.319 -0.708,0.709 v 0.369 c 0,0.39 0.319,0.709 0.708,0.709 h 0.496 C -0.319,1.078 0,0.759 0,0.369 Z"
                     inkscape:connector-curvature="0" /></g></g></g></g></g><g
           id="g4339"
           style="stroke-width:1.51922691"><g
             id="g4341"
             style="stroke-width:1.51922691" /><g
             mask="url(#mask4407)"
             id="g4585"
             style="stroke-width:1.51922691"><g
               id="g4587"
               style="stroke-width:1.51922691" /><g
               id="g4593"
               style="stroke-width:1.51922691"><g
                 id="g4595"
                 clip-path="url(#clipPath4589)"
                 style="stroke-width:1.51922691"><g
                   id="g4597"
                   transform="translate(35.7183,31.127)"
                   style="stroke-width:1.51922691"><path
                     id="path4599"
                     style="fill:#165283;fill-opacity:1;fill-rule:nonzero;stroke:none;stroke-width:1.51922691"
                     d="m 0,0 v -1.15 c -2.464,-0.206 -2.594,-0.325 -2.497,-3.419 l 0.324,-9.876 c 0.098,-3.272 0.162,-3.361 2.497,-3.567 v -1.149 H -9.825 v 1.149 c 2.431,0.206 2.529,0.295 2.497,3.567 l -0.098,10.377 h -0.13 l -6.257,-14.769 h -1.752 L -21.499,-5.1 h -0.064 l -0.227,-6.545 c -0.098,-2.534 -0.065,-3.949 0.064,-4.864 0.129,-1.091 0.844,-1.355 2.952,-1.503 v -1.149 h -8.01 v 1.149 c 1.556,0.118 2.173,0.412 2.367,1.503 0.162,0.915 0.356,2.477 0.52,5.159 l 0.355,5.955 c 0.228,3.714 -0.031,4.039 -2.594,4.245 V 0 h 7.621 L -12.841,-11.674 -7.88,0 Z"
                     inkscape:connector-curvature="0" /></g><g
                   id="g4601"
                   transform="translate(45.9321,16.2988)"
                   style="stroke-width:1.51922691"><path
                     id="path4603"
                     style="fill:#165283;fill-opacity:1;fill-rule:nonzero;stroke:none;stroke-width:1.51922691"
                     d="m 0,0 c 0,-1.532 0.064,-2.271 0.648,-2.535 0.52,-0.236 1.265,-0.266 2.27,-0.266 1.038,0 2.433,0.089 3.113,0.856 0.519,0.559 1.071,1.355 1.589,2.918 L 9.015,0.766 C 8.82,-0.354 8.139,-3.419 7.847,-4.333 H -8.236 v 1.149 c 2.465,0.177 2.723,0.383 2.723,3.567 v 9.728 c 0,3.184 -0.258,3.39 -2.432,3.567 v 1.15 H 2.594 v -1.15 C 0.26,13.501 0,13.295 0,10.111 Z"
                     inkscape:connector-curvature="0" /></g><g
                   id="g4605"
                   transform="translate(28.853,37.1553)"
                   style="stroke-width:1.51922691"><path
                     id="path4607"
                     style="fill:#165283;fill-opacity:1;fill-rule:nonzero;stroke:none;stroke-width:1.51922691"
                     d="M 0,0 C -1.806,4.958 -3.425,6.375 -4.705,5.91 -5.649,5.566 -5.938,3.893 -4.99,1.289 -3.78,-2.035 -1.858,-4.849 -0.304,-4.283 0.487,-3.995 1.079,-2.964 0,0 m 4.728,3.603 c 1.613,-4.433 -1.197,-7.997 -4.945,-9.36 -4.784,-1.741 -8.411,0.451 -9.561,3.61 -1.623,4.46 1.267,8.178 5.015,9.543 4.51,1.64 8.209,-0.276 9.491,-3.793"
                     inkscape:connector-curvature="0" /></g><g
                   id="g4609"
                   transform="translate(42.9331,42.7285)"
                   style="stroke-width:1.51922691"><path
                     id="path4611"
                     style="fill:#165283;fill-opacity:1;fill-rule:nonzero;stroke:none;stroke-width:1.51922691"
                     d="m 0,0 c -0.71,0.432 -1.339,0.548 -1.948,0.326 -0.67,-0.244 -2.246,-1.413 -0.834,-5.292 1.461,-4.016 3.907,-4.193 4.638,-3.927 0.548,0.2 0.844,0.527 1.058,0.887 z M 7.425,-5.517 C 7.88,-6.764 8.092,-6.779 8.936,-6.536 L 9.9,-6.248 10.283,-7.3 C 9.531,-7.699 6.372,-9.163 3.933,-10.804 l -0.545,1.496 -0.989,-1.364 c -0.507,-0.686 -0.935,-0.936 -1.392,-1.102 -2.59,-0.943 -6.911,-0.258 -8.506,3.648 -1.594,3.906 0.883,8.384 5.637,10.115 0.304,0.111 0.73,0.171 1.054,0.227 l -1.148,3.157 c -0.596,1.636 -0.666,1.641 -2.535,1.086 l -0.363,0.997 c 1.605,0.804 3.872,2.067 6.321,3.398 z"
                     inkscape:connector-curvature="0" /></g></g></g></g></g></g></g></g><g
     id="g14"
     transform="matrix(0.69243821,0,0,-0.69243821,42.106678,107.37876)"
     style="stroke-width:1.75466919"><g
       id="g16"
       clip-path="url(#clipPath18-4)"
       style="stroke-width:1.75466919"><g
         id="g22"
         transform="translate(0,-0.228348)"
         style="stroke-width:1.75466919"><g
           id="g24"
           style="stroke-width:1.75466919"><g
             id="g26"
             clip-path="url(#clipPath28-9)"
             style="stroke-width:1.75466919"><g
               id="g32"
               style="stroke-width:1.75466919"><path
                 inkscape:connector-curvature="0"
                 d="m 301.223,64.801 c 0,4.504 -1.352,7.433 -2.481,8.894 -1.012,1.239 -2.586,2.254 -5.289,2.254 -2.367,0 -4.391,-0.789 -6.082,-2.816 -2.476,-3.153 -3.152,-8.332 -3.152,-12.723 0,-3.601 0.902,-7.203 2.816,-8.894 1.574,-1.575 3.266,-2.477 6.418,-2.477 5.856,0 7.77,7.77 7.77,15.762 M 285.797,25.059 c -3.152,-0.899 -6.867,-4.504 -6.867,-9.008 0,-3.153 1.914,-6.528 4.05,-7.77 3.493,-2.023 6.645,-2.699 13.176,-2.699 5.852,0 15.535,3.379 15.309,10.02 0,6.531 -4.727,10.582 -15.535,10.132 z M 274.539,4.68 c -4.055,2.367 -5.629,5.293 -5.629,8.894 0,6.082 6.305,10.36 11.707,12.61 v 0.675 c -4.953,1.125 -7.656,4.731 -7.656,8.332 0,6.079 6.305,9.911 9.684,11.485 v 0.226 c -4.278,2.477 -9.684,7.203 -9.684,16.774 0,7.429 6.305,16.437 20.828,16.437 9.684,0 14.188,-5.179 15.313,-6.418 2.703,2.141 6.644,4.168 9.57,4.168 4.168,0 6.078,-2.476 5.855,-5.406 0,-2.25 -2.027,-4.504 -4.504,-4.504 -1.687,0 -2.816,0.902 -3.492,1.578 -0.898,0.676 -1.801,1.352 -2.699,1.352 -0.676,0 -1.801,0 -2.703,-0.676 0.676,-1.352 1.351,-3.828 1.351,-7.43 0,-4.39 -1.351,-8.894 -4.73,-12.5 -3.602,-3.828 -9.008,-5.175 -14.297,-5.175 -2.476,0 -4.055,0 -6.418,0.449 -2.027,-0.903 -4.84,-2.93 -4.84,-5.629 0,-4.504 4.278,-4.504 14.184,-4.055 8.559,0.449 14.187,-0.226 19.141,-4.277 4.503,-3.379 5.628,-7.656 5.628,-11.035 0,-4.953 -2.027,-9.231 -6.98,-13.059 -3.602,-2.93 -11.484,-6.531 -22.066,-6.305 -5.407,0 -12.61,0.676 -17.563,3.489"
                 style="fill:#393536;fill-opacity:1;fill-rule:nonzero;stroke:none;stroke-width:1.75466919"
                 id="path34" /><path
                 inkscape:connector-curvature="0"
                 d="m 333.418,63.902 c 0,3.379 -0.676,5.629 -5.856,6.981 -1.011,0.222 -1.124,0.562 -1.124,1.012 v 1.238 c 0,0.453 0.226,0.676 0.789,0.902 1.578,0.676 12.722,4.617 14.636,5.403 1.125,0.453 2.028,0.675 2.703,0.675 0.676,0 1.012,-0.449 0.899,-1.351 -0.223,-1.801 -0.223,-9.004 -0.223,-18.352 V 48.254 c 0,-4.281 0,-8.332 0.223,-9.684 0.226,-2.027 0.676,-2.929 1.805,-2.929 h 4.503 c 0.899,0 1.125,-0.223 1.125,-0.786 v -2.253 c 0,-0.676 -0.226,-1.125 -0.902,-1.125 -0.902,0 -6.078,0.339 -13.625,0.339 -6.527,0 -10.809,-0.339 -12.156,-0.339 -0.563,0 -0.903,0.226 -0.903,1.125 v 2.14 c 0,0.676 0.45,0.899 1.126,0.899 h 4.957 c 1.125,0 1.687,0.453 1.8,2.254 0.114,3.375 0.223,6.98 0.223,10.132 z"
                 style="fill:#393536;fill-opacity:1;fill-rule:nonzero;stroke:none;stroke-width:1.75466919"
                 id="path36" /><path
                 inkscape:connector-curvature="0"
                 d="m 371.137,79.215 c 0.898,0.449 1.574,0.898 2.25,0.898 0.675,0 1.125,-0.449 1.351,-1.351 l 0.899,-5.852 h 0.675 c 1.352,1.574 3.379,3.375 5.633,4.504 2.7,1.574 5.629,2.699 9.004,2.699 3.828,0 7.434,-0.675 9.91,-2.699 4.953,-3.605 6.192,-6.98 6.192,-11.598 V 49.602 c 0,-3.602 -0.113,-8.555 -0.113,-10.809 0,-2.477 1.351,-3.148 2.703,-3.148 h 3.152 c 1.012,0 1.352,-0.227 1.352,-0.79 v -2.589 c 0,-0.563 -0.227,-0.789 -0.903,-0.789 -0.898,0 -4.277,0.335 -12.16,0.335 -6.754,0 -10.359,-0.335 -11.031,-0.335 -0.676,0 -0.903,0.449 -0.903,1.351 v 1.914 c 0,0.676 0.227,0.903 1.352,0.903 h 2.254 c 0.898,0 1.801,0.671 2.023,2.699 0.34,2.926 0.453,6.082 0.453,10.582 v 12.949 c 0,4.504 -0.226,7.43 -2.929,9.684 -2.25,2.027 -4.278,2.027 -6.754,2.027 -1.801,0 -4.504,-0.453 -7.207,-2.93 -1.801,-1.801 -2.363,-4.953 -2.363,-7.992 V 39.469 c 0,-2.477 0.562,-3.824 2.136,-3.824 h 2.032 c 0.898,0 1.125,-0.227 1.125,-1.016 v -2.027 c 0,-0.676 -0.227,-1.125 -0.899,-1.125 -0.68,0 -3.832,0.335 -10.586,0.335 -6.98,0 -10.586,-0.335 -11.262,-0.335 -0.449,0 -0.671,0.449 -0.671,1.125 v 2.14 c 0,0.676 0.222,0.903 1.125,0.903 h 2.25 c 1.351,0 2.929,0.449 2.929,2.25 v 25.332 c 0,3.375 -2.027,5.179 -4.73,6.531 l -0.903,0.449 c -0.671,0.227 -0.898,0.676 -0.898,1.125 v 0.902 c 0,0.45 0.449,0.899 1.125,1.125 z"
                 style="fill:#393536;fill-opacity:1;fill-rule:nonzero;stroke:none;stroke-width:1.75466919"
                 id="path38" /><path
                 inkscape:connector-curvature="0"
                 d="m 345.891,84.254 c 3.683,-1.742 7.8,-2.723 12.148,-2.723 4.344,0 8.465,0.977 12.149,2.723 -3.688,1.746 -7.805,2.723 -12.149,2.723 -4.348,0 -8.465,-0.981 -12.148,-2.723"
                 style="fill:#2854a4;fill-opacity:1;fill-rule:nonzero;stroke:none;stroke-width:1.75466919"
                 id="path40" /><path
                 inkscape:connector-curvature="0"
                 d="m 345.891,84.254 c 3.836,1.371 7.441,3.59 10.511,6.664 3.075,3.074 5.297,6.68 6.668,10.516 -3.84,-1.372 -7.445,-3.59 -10.515,-6.664 -3.075,-3.075 -5.293,-6.676 -6.664,-10.516"
                 style="fill:#2854a4;fill-opacity:1;fill-rule:nonzero;stroke:none;stroke-width:1.75466919"
                 id="path42" /><path
                 inkscape:connector-curvature="0"
                 d="m 261.852,74.84 c 0.039,1.355 -0.454,2.726 -1.489,3.765 l -20.39,20.391 v 3.645 h 1.015 c 1.797,0 3.258,1.457 3.258,3.257 0,1.801 -1.461,3.258 -3.258,3.258 h -18.832 c -1.797,0 -3.258,-1.457 -3.258,-3.258 0,-1.8 1.461,-3.257 3.258,-3.257 h 1.016 V 98.688 L 203.09,78.605 c -1.129,-1.128 -1.613,-2.652 -1.469,-4.125 -0.016,-0.168 -0.023,-0.343 -0.023,-0.515 V 37.059 c 0,-2.762 2.234,-5 4.996,-5 h 50.34 c 2.761,0 4.996,2.238 4.996,5 v 36.906 c 0,0.297 -0.032,0.59 -0.078,0.875"
                 style="fill:#2854a4;fill-opacity:1;fill-rule:nonzero;stroke:none;stroke-width:1.75466919"
                 id="path44" /><path
                 inkscape:connector-curvature="0"
                 d="m 261.852,74.84 c 0.039,1.355 -0.454,2.726 -1.489,3.765 l -20.39,20.391 v 3.645 h 1.015 c 1.797,0 3.258,1.457 3.258,3.257 0,1.801 -1.461,3.258 -3.258,3.258 h -18.832 c -1.797,0 -3.258,-1.457 -3.258,-3.258 0,-1.8 1.461,-3.257 3.258,-3.257 h 1.016 V 98.688 L 203.09,78.605 c -1.129,-1.128 -1.613,-2.652 -1.469,-4.125 -0.016,-0.168 -0.023,-0.343 -0.023,-0.515 V 37.059 c 0,-2.762 2.234,-5 4.996,-5 h 50.34 c 2.761,0 4.996,2.238 4.996,5 v 36.906 c 0,0.297 -0.032,0.59 -0.078,0.875"
                 style="fill:#2854a4;fill-opacity:1;fill-rule:nonzero;stroke:none;stroke-width:1.75466919"
                 id="path46" /><path
                 inkscape:connector-curvature="0"
                 d="m 240.23,77.496 c 3.383,0 6.586,0.762 9.454,2.117 -2.868,1.36 -6.071,2.121 -9.454,2.121 -2.464,0 -4.832,-0.41 -7.046,-1.156 2.128,1.047 4.128,2.449 5.902,4.223 2.391,2.39 4.117,5.195 5.184,8.179 -2.985,-1.066 -5.79,-2.792 -8.18,-5.183 -2.375,-2.375 -4.09,-5.156 -5.16,-8.117 -0.051,-0.024 -0.102,-0.043 -0.149,-0.067 2.864,-1.355 6.067,-2.117 9.449,-2.117 m -25.847,-2.293 c -3.383,0 -6.586,-0.762 -9.449,-2.121 2.863,-1.355 6.066,-2.117 9.449,-2.117 2.535,0 4.969,0.43 7.234,1.215 -2.176,-1.051 -4.215,-2.477 -6.023,-4.282 -2.387,-2.39 -4.117,-5.195 -5.184,-8.179 2.988,1.066 5.789,2.793 8.18,5.183 2.383,2.383 4.105,5.176 5.176,8.153 0.023,0.007 0.046,0.019 0.07,0.027 -2.867,1.359 -6.07,2.121 -9.453,2.121 m 0.125,14.817 14.738,-14.743 c 0.793,0.489 1.719,0.774 2.719,0.774 2.867,0 5.195,-2.324 5.195,-5.196 0,-0.964 -0.269,-1.867 -0.726,-2.64 l 7.031,-6.77 c 0.758,0.43 1.629,0.68 2.562,0.68 2.871,0 5.196,-2.328 5.196,-5.199 0,-2.867 -2.325,-5.196 -5.196,-5.196 -2.871,0 -5.195,2.329 -5.195,5.196 0,0.847 0.207,1.64 0.563,2.347 l -7.176,6.907 c -0.242,-0.118 -0.492,-0.219 -0.754,-0.297 V 46.992 c 2.242,-0.578 3.902,-2.605 3.902,-5.031 0,-2.867 -2.324,-5.195 -5.195,-5.195 -2.871,0 -5.195,2.328 -5.195,5.195 0,2.273 1.457,4.199 3.488,4.906 v 19.016 c -2.141,0.644 -3.695,2.625 -3.695,4.972 0,0.778 0.175,1.512 0.48,2.176 l -14.867,14.867"
                 style="fill:#ffffff;fill-opacity:1;fill-rule:nonzero;stroke:none;stroke-width:1.75466919"
                 id="path48" /><path
                 inkscape:connector-curvature="0"
                 d="m 345.262,91.484 c 0,-4.304 -3.489,-7.793 -7.789,-7.793 -4.301,0 -7.789,3.489 -7.789,7.793 0,4.301 3.488,7.789 7.789,7.789 4.3,0 7.789,-3.488 7.789,-7.789"
                 style="fill:#2854a4;fill-opacity:1;fill-rule:nonzero;stroke:none;stroke-width:1.75466919"
                 id="path50" /></g></g></g></g></g></g><g
     id="g1337"
     transform="matrix(1.25,0,0,-1.25,45.828552,-3.5714963)">


<g
   id="g1180"
   transform="translate(147.47651,-97.558123)"><g
     id="g52"
     transform="matrix(0.5,0,0,0.5,21.098114,-36.273265)"><path
       d="m 286.848,144.58 v 9.832 h -3.719 c -0.586,0 -0.633,0.098 -0.633,0.633 v 1.957 c 0,0.586 0.047,0.684 0.633,0.684 h 6.992 c 0.539,0 0.637,-0.145 0.637,-0.684 v -13.887 c 0,-0.39 -0.098,-0.539 -0.442,-0.734 -1.855,-1.125 -4.984,-1.855 -7.871,-1.855 -7.433,0 -11.441,5.816 -11.441,16.625 0,11.293 4.008,17.257 11.539,17.257 2.594,0 5.332,-0.828 7.383,-2.297 0.293,-0.195 0.441,-0.39 0.441,-0.585 0,-0.098 0,-0.149 -0.148,-0.391 l -0.977,-2.008 c -0.047,-0.144 -0.195,-0.242 -0.344,-0.242 -0.097,0 -0.195,0.047 -0.339,0.144 -2.692,1.715 -3.914,2.204 -6.016,2.204 -5.035,0 -7.332,-4.157 -7.332,-13.204 0,-10.171 2.297,-14.328 7.918,-14.328 1.32,0 2.398,0.246 3.719,0.879"
       style="fill:#1c4f9c;fill-opacity:1;fill-rule:nonzero;stroke:none"
       id="path54"
       inkscape:connector-curvature="0" /><path
       d="m 295.793,152.162 v 2.297 c 0,0.539 0.098,0.637 0.637,0.637 h 11.929 c 0.539,0 0.637,-0.098 0.637,-0.637 v -2.297 c 0,-0.539 -0.098,-0.636 -0.637,-0.636 H 296.43 c -0.539,0 -0.637,0.097 -0.637,0.636"
       style="fill:#1c4f9c;fill-opacity:1;fill-rule:nonzero;stroke:none"
       id="path56"
       inkscape:connector-curvature="0" /><path
       d="m 331,147.127 c -0.246,1.856 -0.344,2.883 -0.344,4.152 v 21.809 c 0,0.59 0.098,0.688 0.688,0.688 h 2.148 c 0.539,0 0.637,-0.098 0.637,-0.688 v -31.293 c 0,-0.539 -0.098,-0.637 -0.637,-0.637 h -2.59 c -0.343,0 -0.586,0.149 -0.734,0.442 l -10.902,23.519 c -0.586,1.27 -0.883,2.25 -1.418,4.496 l 0.195,-1.121 c 0.195,-1.175 0.293,-2.398 0.293,-3.57 v -23.129 c 0,-0.539 -0.098,-0.637 -0.684,-0.637 H 315.5 c -0.539,0 -0.637,0.098 -0.637,0.637 v 31.293 c 0,0.59 0.098,0.688 0.637,0.688 h 3.031 c 0.344,0 0.539,-0.149 0.684,-0.493 l 10.465,-22.148 c 0.441,-0.977 0.879,-2.25 1.32,-4.008"
       style="fill:#1c4f9c;fill-opacity:1;fill-rule:nonzero;stroke:none"
       id="path58"
       inkscape:connector-curvature="0" /><path
       d="m 359.289,152.701 c 0,-7.679 -3.668,-12.175 -9.777,-12.175 -5.821,0 -9.192,4.398 -9.192,11.929 0,7.676 3.618,12.176 9.68,12.176 5.867,0 9.289,-4.352 9.289,-11.93 z m -3.863,-0.343 v 0.441 c 0,5.719 -1.953,8.848 -5.574,8.848 -3.715,0 -5.672,-2.981 -5.672,-8.703 0,-6.356 1.859,-9.438 5.672,-9.438 3.668,0 5.429,2.789 5.574,8.852"
       style="fill:#1c4f9c;fill-opacity:1;fill-rule:nonzero;stroke:none"
       id="path60"
       inkscape:connector-curvature="0" /><path
       d="m 378.605,143.557 c -3.082,-2.348 -4.746,-3.031 -7.043,-3.031 -4.695,0 -7.48,4.546 -7.48,12.273 0,7.332 3.273,11.832 8.559,11.832 1.707,0 3.175,-0.441 5.179,-1.516 v 11.246 c 0,0.293 0.196,0.54 0.442,0.586 l 2.543,0.586 c 0.144,0.051 0.195,0.051 0.242,0.051 0.297,0 0.344,-0.098 0.344,-0.539 v -26.402 c 0,-2.934 0.246,-4.063 1.175,-5.574 l 0.293,-0.493 c 0.047,-0.097 0.098,-0.195 0.098,-0.242 0,-0.148 -0.051,-0.195 -0.246,-0.293 l -2.152,-1.222 c -0.145,-0.098 -0.243,-0.149 -0.34,-0.149 -0.442,0 -1.172,1.32 -1.614,2.887 z m -0.785,16.379 c -2.004,1.125 -3.226,1.515 -4.84,1.515 -3.57,0 -5.039,-2.445 -5.039,-8.457 0,-6.554 1.274,-9.242 4.403,-9.242 1.808,0 3.375,0.731 5.476,2.738 v 13.446"
       style="fill:#1c4f9c;fill-opacity:1;fill-rule:nonzero;stroke:none"
       id="path62"
       inkscape:connector-curvature="0" /><path
       d="m 391.758,151.772 c 0.242,-5.184 2.445,-8.02 6.304,-8.02 1.668,0 3.473,0.535 5.481,1.711 0.145,0.098 0.34,0.148 0.437,0.148 0.149,0 0.293,-0.097 0.344,-0.246 l 0.879,-1.859 c 0.047,-0.195 0.098,-0.242 0.098,-0.34 0,-0.441 -0.781,-0.93 -2.395,-1.617 -1.711,-0.684 -3.426,-1.023 -5.183,-1.023 -6.016,0 -9.879,4.644 -9.879,12.027 0,7.383 3.668,12.078 9.39,12.078 5.426,0 8.606,-3.863 8.704,-10.562 v -1.418 c 0,-0.684 -0.098,-0.879 -0.54,-0.879 z m 0.047,2.933 h 10.269 c -0.097,4.547 -1.906,7.039 -5.086,7.039 -3.176,0 -4.988,-2.394 -5.183,-7.039"
       style="fill:#1c4f9c;fill-opacity:1;fill-rule:nonzero;stroke:none"
       id="path64"
       inkscape:connector-curvature="0" /><path
       d="m 255.27,179.451 c 0,-4.64 -3.454,-8.402 -7.711,-8.402 -4.262,0 -7.715,3.762 -7.715,8.402 0,4.641 3.453,8.403 7.715,8.403 4.257,0 7.711,-3.762 7.711,-8.403"
       style="fill:#1c4f9c;fill-opacity:1;fill-rule:nonzero;stroke:none"
       id="path66"
       inkscape:connector-curvature="0" /><path
       d="m 233.531,172.944 c 0,-4.387 -3.453,-7.946 -7.715,-7.946 -4.261,0 -7.711,3.559 -7.711,7.946 0,4.39 3.45,7.945 7.711,7.945 4.262,0 7.715,-3.555 7.715,-7.945"
       style="fill:#1c4f9c;fill-opacity:1;fill-rule:nonzero;stroke:none"
       id="path68"
       inkscape:connector-curvature="0" /><path
       d="m 239.219,188.936 c 0,-3.223 -2.602,-5.836 -5.817,-5.836 -3.214,0 -5.82,2.613 -5.82,5.836 0,3.222 2.606,5.836 5.82,5.836 3.215,0 5.817,-2.614 5.817,-5.836"
       style="fill:#1c4f9c;fill-opacity:1;fill-rule:nonzero;stroke:none"
       id="path70"
       inkscape:connector-curvature="0" /><path
       d="m 245.824,163.557 c 0,-3.223 -2.605,-5.836 -5.82,-5.836 -3.215,0 -5.816,2.613 -5.816,5.836 0,3.219 2.601,5.832 5.816,5.832 3.215,0 5.82,-2.613 5.82,-5.832"
       style="fill:#1c4f9c;fill-opacity:1;fill-rule:nonzero;stroke:none"
       id="path72"
       inkscape:connector-curvature="0" /><path
       d="m 247.785,197.217 c 0,-2.176 -1.762,-3.941 -3.933,-3.941 -2.176,0 -3.938,1.765 -3.938,3.941 0,2.176 1.762,3.937 3.938,3.937 2.171,0 3.933,-1.761 3.933,-3.937"
       style="fill:#2857af;fill-opacity:1;fill-rule:nonzero;stroke:none"
       id="path74"
       inkscape:connector-curvature="0" /><path
       d="m 223.18,188.983 c -0.094,-2.176 -2.196,-3.848 -4.692,-3.739 -2.492,0.11 -4.437,1.965 -4.34,4.137 0.094,2.176 2.196,3.852 4.688,3.742 2.496,-0.113 4.441,-1.965 4.344,-4.14"
       style="fill:#2857af;fill-opacity:1;fill-rule:nonzero;stroke:none"
       id="path76"
       inkscape:connector-curvature="0" /><path
       d="m 215.945,198.744 c -0.125,-1.484 -1.789,-2.554 -3.715,-2.39 -1.929,0.16 -3.386,1.496 -3.261,2.98 0.125,1.485 1.789,2.555 3.715,2.391 1.929,-0.164 3.386,-1.5 3.261,-2.981"
       style="fill:#5788c2;fill-opacity:1;fill-rule:nonzero;stroke:none"
       id="path78"
       inkscape:connector-curvature="0" /><path
       d="m 271.867,194.365 c -0.137,-1.601 -1.894,-2.757 -3.929,-2.586 -2.036,0.176 -3.579,1.61 -3.442,3.211 0.137,1.602 1.895,2.762 3.934,2.59 2.035,-0.176 3.574,-1.609 3.437,-3.215"
       style="fill:#5788c2;fill-opacity:1;fill-rule:nonzero;stroke:none"
       id="path80"
       inkscape:connector-curvature="0" /><path
       d="m 262.18,192.678 c 0.699,-1.781 -0.77,-4.027 -3.285,-5.016 -2.516,-0.984 -5.122,-0.343 -5.821,1.442 -0.699,1.781 0.77,4.027 3.285,5.011 2.516,0.989 5.121,0.344 5.821,-1.437"
       style="fill:#2857af;fill-opacity:1;fill-rule:nonzero;stroke:none"
       id="path82"
       inkscape:connector-curvature="0" /><path
       d="m 250.254,206.557 c -0.195,-1.399 -1.918,-2.313 -3.848,-2.043 -1.929,0.269 -3.332,1.625 -3.136,3.023 0.199,1.399 1.921,2.317 3.847,2.047 1.93,-0.273 3.332,-1.629 3.137,-3.027"
       style="fill:#5788c2;fill-opacity:1;fill-rule:nonzero;stroke:none"
       id="path84"
       inkscape:connector-curvature="0" /><path
       d="m 247.719,216.108 c -0.114,-1.2 -1.422,-2.051 -2.918,-1.903 -1.492,0.145 -2.61,1.235 -2.492,2.43 0.117,1.199 1.425,2.051 2.918,1.902 1.496,-0.144 2.613,-1.234 2.492,-2.429"
       style="fill:#bbd9f3;fill-opacity:1;fill-rule:nonzero;stroke:none"
       id="path86"
       inkscape:connector-curvature="0" /><path
       d="m 206.965,205.697 c -0.09,-1.074 -1.473,-1.836 -3.082,-1.695 -1.613,0.137 -2.844,1.113 -2.758,2.188 0.09,1.074 1.473,1.832 3.086,1.695 1.613,-0.133 2.848,-1.113 2.754,-2.188"
       style="fill:#bbd9f3;fill-opacity:1;fill-rule:nonzero;stroke:none"
       id="path88"
       inkscape:connector-curvature="0" /><path
       d="m 282.074,196.705 c -0.054,-1.289 -1.625,-2.269 -3.512,-2.191 -1.882,0.078 -3.367,1.187 -3.312,2.48 0.055,1.285 1.625,2.266 3.512,2.188 1.883,-0.078 3.367,-1.188 3.312,-2.477"
       style="fill:#bbd9f3;fill-opacity:1;fill-rule:nonzero;stroke:none"
       id="path90"
       inkscape:connector-curvature="0" /><path
       d="m 233.293,154.174 c 0,-2.383 -2.273,-4.313 -5.078,-4.313 -2.801,0 -5.074,1.93 -5.074,4.313 0,2.379 2.273,4.312 5.074,4.312 2.805,0 5.078,-1.933 5.078,-4.312"
       style="fill:#2857af;fill-opacity:1;fill-rule:nonzero;stroke:none"
       id="path92"
       inkscape:connector-curvature="0" /><path
       d="m 219.809,161.471 c 1.347,-2.524 0.734,-5.481 -1.364,-6.594 -2.097,-1.121 -4.89,0.02 -6.234,2.547 -1.344,2.527 -0.734,5.48 1.363,6.598 2.102,1.117 4.891,-0.024 6.235,-2.551"
       style="fill:#2857af;fill-opacity:1;fill-rule:nonzero;stroke:none"
       id="path94"
       inkscape:connector-curvature="0" /><path
       d="m 207.883,158.736 c 1.539,-1.472 1.875,-3.621 0.754,-4.8 -1.125,-1.176 -3.285,-0.942 -4.828,0.531 -1.539,1.469 -1.879,3.613 -0.754,4.797 1.125,1.176 3.285,0.941 4.828,-0.528"
       style="fill:#5788c2;fill-opacity:1;fill-rule:nonzero;stroke:none"
       id="path96"
       inkscape:connector-curvature="0" /><path
       d="m 227.75,141.057 c 0.934,-1.321 3.078,-1.414 4.789,-0.207 1.711,1.207 2.34,3.258 1.406,4.582 -0.933,1.32 -3.074,1.414 -4.789,0.207 -1.707,-1.211 -2.34,-3.262 -1.406,-4.582"
       style="fill:#5788c2;fill-opacity:1;fill-rule:nonzero;stroke:none"
       id="path98"
       inkscape:connector-curvature="0" /><path
       d="m 236.148,135.768 c 0.231,-1.203 -0.929,-2.438 -2.593,-2.758 -1.664,-0.32 -3.2,0.394 -3.43,1.601 -0.23,1.204 0.93,2.438 2.594,2.754 1.664,0.321 3.199,-0.394 3.429,-1.597"
       style="fill:#63a1d9;fill-opacity:1;fill-rule:nonzero;stroke:none"
       id="path100"
       inkscape:connector-curvature="0" /><path
       d="m 237.707,127.772 c 0.094,-1.09 -1.019,-2.078 -2.48,-2.207 -1.465,-0.125 -2.731,0.66 -2.825,1.754 -0.093,1.093 1.016,2.082 2.481,2.207 1.465,0.128 2.73,-0.661 2.824,-1.754"
       style="fill:#bbd9f3;fill-opacity:1;fill-rule:nonzero;stroke:none"
       id="path102"
       inkscape:connector-curvature="0" /><path
       d="m 200.039,151.467 c -0.641,-1.027 -2.707,-0.895 -4.617,0.297 -1.91,1.191 -2.942,2.992 -2.301,4.015 0.641,1.028 2.707,0.895 4.617,-0.296 1.91,-1.192 2.942,-2.993 2.301,-4.016"
       style="fill:#63a1d9;fill-opacity:1;fill-rule:nonzero;stroke:none"
       id="path104"
       inkscape:connector-curvature="0" /><path
       d="m 191.273,148.584 c -0.546,-0.875 -2.437,-0.676 -4.222,0.438 -1.789,1.113 -2.793,2.726 -2.25,3.597 0.547,0.875 2.437,0.68 4.222,-0.437 1.789,-1.113 2.793,-2.723 2.25,-3.598"
       style="fill:#bbd9f3;fill-opacity:1;fill-rule:nonzero;stroke:none"
       id="path106"
       inkscape:connector-curvature="0" /></g><text
     xml:space="preserve"
     style="font-style:normal;font-variant:normal;font-weight:normal;font-stretch:normal;font-size:12px;line-height:0%;font-family:'ITC Officina Sans Std';-inkscape-font-specification:'ITC Officina Sans Std';letter-spacing:0px;word-spacing:0px;fill:#1c4f9c;fill-opacity:1;stroke:none;stroke-width:1px;stroke-linecap:butt;stroke-linejoin:miter;stroke-opacity:1"
     x="165.40334"
     y="-20.756363"
     id="text3463"
     transform="scale(1,-1)"><tspan
       id="tspan3465"
       x="165.40334"
       y="-20.756363"
       style="font-style:normal;font-variant:normal;font-weight:normal;font-stretch:normal;font-size:12px;line-height:1.25;font-family:'ITC Officina Sans Std';-inkscape-font-specification:'ITC Officina Sans Std';fill:#1c4f9c;fill-opacity:1;stroke-width:1px">g-node.org</tspan></text>
<path
     style="fill:#1c4f9c;fill-opacity:1;fill-rule:evenodd;stroke:#1c4f9c;stroke-width:0.80000001px;stroke-linecap:butt;stroke-linejoin:miter;stroke-opacity:1"
     d="m 161.8047,31.221552 58.1472,-0.49208 v 0.328048"
     id="path3522"
     inkscape:connector-curvature="0" /></g></g></svg>