<?xml version="1.0" encoding="UTF-8" standalone="no"?>
<!-- Created with Inkscape (http://www.inkscape.org/) -->

<svg
   xmlns:dc="http://purl.org/dc/elements/1.1/"
   xmlns:cc="http://creativecommons.org/ns#"
   xmlns:rdf="http://www.w3.org/1999/02/22-rdf-syntax-ns#"
   xmlns:svg="http://www.w3.org/2000/svg"
   xmlns="http://www.w3.org/2000/svg"
   xmlns:sodipodi="http://sodipodi.sourceforge.net/DTD/sodipodi-0.dtd"
   xmlns:inkscape="http://www.inkscape.org/namespaces/inkscape"
   version="1.1"
   id="svg835"
   xml:space="preserve"
   width="4721.3335"
   height="1242.2"
   viewBox="0 0 4721.3335 1242.2"
   sodipodi:docname="G-Node_extended.svg"
   inkscape:version="0.92.3 (2405546, 2018-03-11)"><metadata
     id="metadata841"><rdf:RDF><cc:Work
         rdf:about=""><dc:format>image/svg+xml</dc:format><dc:type
           rdf:resource="http://purl.org/dc/dcmitype/StillImage" /><dc:title></dc:title></cc:Work></rdf:RDF></metadata><defs
     id="defs839" /><sodipodi:namedview
     pagecolor="#ffffff"
     bordercolor="#666666"
     borderopacity="1"
     objecttolerance="10"
     gridtolerance="10"
     guidetolerance="10"
     inkscape:pageopacity="0"
     inkscape:pageshadow="2"
     inkscape:window-width="806"
     inkscape:window-height="480"
     id="namedview837"
     showgrid="false"
     inkscape:zoom="0.077944081"
     inkscape:cx="866.00546"
     inkscape:cy="621.09998"
     inkscape:window-x="47"
     inkscape:window-y="27"
     inkscape:window-maximized="0"
     inkscape:current-layer="g843" /><g
     id="g843"
     inkscape:groupmode="layer"
     inkscape:label="G-Node_extended"
     transform="matrix(1.3333333,0,0,1.3333333,0,8.0388332e-5)"><g
       id="g845"><path
         d="m 1123.719,741.02 v -98.461 h -37.231 c -5.879,0 -6.367,-0.977 -6.367,-6.368 v -19.586 c 0,-5.878 0.488,-6.859 6.367,-6.859 h 70.051 c 5.391,0 6.371,1.457 6.371,6.859 v 139.11 c 0,3.918 -0.98,5.387 -4.41,7.344 -18.621,11.265 -49.969,18.613 -78.871,18.613 -74.449,0 -114.613,-58.293 -114.613,-166.551 0,-113.141 40.164,-172.906 115.593,-172.906 25.961,0 53.403,8.332 73.969,23.023 2.942,1.961 4.41,3.918 4.41,5.879 0,0.977 0,1.469 -1.468,3.918 l -9.801,20.09 c -0.489,1.457 -1.957,2.437 -3.43,2.437 -0.98,0 -1.961,-0.476 -3.43,-1.457 -26.929,-17.152 -39.179,-22.05 -60.25,-22.05 -50.449,0 -73.468,41.64 -73.468,132.254 0,101.886 23.019,143.527 79.347,143.527 13.231,0 24,-2.457 37.231,-8.816"
         style="fill:#1c4f9c;fill-opacity:1;fill-rule:nonzero;stroke:none"
         id="path847"
         inkscape:connector-curvature="0" /><path
         d="m 1213.352,665.09 v -23.02 c 0,-5.386 0.976,-6.367 6.367,-6.367 h 119.519 c 5.391,0 6.371,0.981 6.371,6.367 v 23.02 c 0,5.387 -0.98,6.363 -6.371,6.363 h -119.519 c -5.391,0 -6.367,-0.976 -6.367,-6.363"
         style="fill:#1c4f9c;fill-opacity:1;fill-rule:nonzero;stroke:none"
         id="path849"
         inkscape:connector-curvature="0" /><path
         d="m 1566.031,715.543 c -2.453,-18.609 -3.429,-28.895 -3.429,-41.629 V 455.445 c 0,-5.879 0.976,-6.855 6.859,-6.855 h 21.551 c 5.379,0 6.359,0.976 6.359,6.855 v 313.493 c 0,5.386 -0.98,6.363 -6.359,6.363 h -25.961 c -3.43,0 -5.879,-1.465 -7.352,-4.406 l -109.23,-235.61 c -5.879,-12.734 -8.821,-22.531 -14.207,-45.058 l 1.957,11.253 c 1.961,11.766 2.941,24.008 2.941,35.762 v 231.696 c 0,5.386 -0.98,6.363 -6.859,6.363 h -21.551 c -5.391,0 -6.371,-0.977 -6.371,-6.363 V 455.445 c 0,-5.879 0.98,-6.855 6.371,-6.855 h 30.371 c 3.43,0 5.391,1.469 6.859,4.894 l 104.821,221.887 c 4.41,9.797 8.82,22.539 13.23,40.172"
         style="fill:#1c4f9c;fill-opacity:1;fill-rule:nonzero;stroke:none"
         id="path851"
         inkscape:connector-curvature="0" /><path
         d="m 1849.414,659.703 c 0,76.899 -36.726,121.969 -97.961,121.969 -58.285,0 -92.086,-44.09 -92.086,-119.52 0,-76.902 36.25,-121.968 96.988,-121.968 58.782,0 93.059,43.597 93.059,119.519 z m -38.691,3.426 v -4.406 c 0,-57.309 -19.606,-88.657 -55.844,-88.657 -37.227,0 -56.82,29.875 -56.82,87.188 0,63.676 18.617,94.543 56.82,94.543 36.75,0 54.383,-27.926 55.844,-88.668"
         style="fill:#1c4f9c;fill-opacity:1;fill-rule:nonzero;stroke:none"
         id="path853"
         inkscape:connector-curvature="0" /><path
         d="m 2042.898,751.293 c -30.863,23.519 -47.515,30.375 -70.531,30.375 -47.027,0 -74.945,-45.543 -74.945,-122.945 0,-73.473 32.82,-118.539 85.723,-118.539 17.14,0 31.824,4.418 51.921,15.191 V 442.707 c 0,-2.937 1.957,-5.387 4.403,-5.879 l 25.484,-5.875 c 1.449,-0.488 1.961,-0.488 2.434,-0.488 2.945,0 3.441,0.976 3.441,5.383 v 264.511 c 0,29.387 2.434,40.661 11.754,55.832 l 2.93,4.911 c 0.5,0.98 0.984,1.957 0.984,2.449 0,1.469 -0.484,1.957 -2.441,2.937 l -21.571,12.242 c -1.445,0.981 -2.433,1.469 -3.418,1.469 -4.418,0 -11.75,-13.222 -16.168,-28.906 z m -7.832,-164.086 c -20.097,-11.262 -32.324,-15.18 -48.504,-15.18 -35.75,0 -50.445,24.485 -50.445,84.735 0,65.636 12.723,92.574 44.086,92.574 18.125,0 33.793,-7.336 54.863,-27.426 V 587.207"
         style="fill:#1c4f9c;fill-opacity:1;fill-rule:nonzero;stroke:none"
         id="path855"
         inkscape:connector-curvature="0" /><path
         d="m 2174.66,669.02 c 2.445,51.91 24.504,80.316 63.192,80.316 16.656,0 34.765,-5.375 54.863,-17.129 1.461,-0.98 3.422,-1.48 4.406,-1.48 1.461,0 2.941,0.98 3.422,2.457 l 8.812,18.613 c 0.5,1.957 0.981,2.433 0.981,3.414 0,4.422 -7.828,9.316 -23.988,16.176 -17.145,6.855 -34.297,10.285 -51.922,10.285 -60.25,0 -98.949,-46.527 -98.949,-120.5 0,-73.965 36.738,-120.988 94.046,-120.988 54.379,0 86.215,38.699 87.196,105.804 v 14.203 c 0,6.868 -0.981,8.829 -5.403,8.829 z m 0.485,-29.399 h 102.871 c -0.981,-45.555 -19.114,-70.531 -50.938,-70.531 -31.836,0 -49.973,23.996 -51.933,70.531"
         style="fill:#1c4f9c;fill-opacity:1;fill-rule:nonzero;stroke:none"
         id="path857"
         inkscape:connector-curvature="0" /><path
         d="m 2444.234,586.5 h 32.192 v 20.219 c 0,24.211 -10.606,25.203 -30.067,25.203 -23.714,0 -31.828,-4.5 -31.828,-30.942 v -30.457 c 0,-26.445 8.114,-30.945 31.828,-30.945 17.715,0 30.067,1.492 30.067,18.598 v 9.113 h -8.719 v -3.258 c 0,-13.851 -3.008,-15.719 -21.348,-15.719 -20.464,0 -23.093,2.747 -23.093,22.711 v 29.454 c 0,19.964 2.629,22.711 23.093,22.711 17.352,0 21.348,-0.126 21.348,-18.973 v -8.977 h -23.473 V 586.5"
         style="fill:#1c4f9c;fill-opacity:1;fill-rule:nonzero;stroke:none"
         id="path859"
         inkscape:connector-curvature="0" /><path
         d="m 2496.387,600.977 v 5.867 c 0,13.847 2.379,17.847 13.367,17.847 12.851,0 15.586,-0.25 15.586,-12.734 h 7.988 v 2.367 c 0,12.735 -3.121,17.598 -22.207,17.598 -20.969,0 -23.469,-6.981 -23.469,-32.813 0,-26.332 4.243,-32.824 23.469,-32.824 19.086,0 22.207,7.735 22.207,25.078 v 9.614 z m 28.953,-7.997 c 0,-13.46 -0.246,-19.453 -14.469,-19.453 -14.219,0 -14.484,5.993 -14.484,19.453 h 28.953"
         style="fill:#1c4f9c;fill-opacity:1;fill-rule:nonzero;stroke:none"
         id="path861"
         inkscape:connector-curvature="0" /><path
         d="m 2546.566,567.289 h 7.973 v 7.731 h 0.254 c 2.996,-6.114 6.738,-8.735 14.73,-8.735 10.098,0 14.711,4.375 14.711,17.098 v 5.113 h -7.23 c 0.129,-11.73 -1.234,-14.969 -10.352,-14.969 -8.007,-0.132 -12.113,4.364 -12.113,13.102 v 44.305 h -7.973 v -63.645"
         style="fill:#1c4f9c;fill-opacity:1;fill-rule:nonzero;stroke:none"
         id="path863"
         inkscape:connector-curvature="0" /><path
         d="m 2592.727,567.289 h 7.988 v 9.477 h 0.246 c 4.004,-6.856 7.859,-10.481 16.848,-10.481 8.48,0 14.98,1.871 18.226,10.367 4.856,-7.746 10.106,-10.367 19.082,-10.367 12.844,0 18.981,6.242 18.981,18.84 v 45.809 h -7.993 v -41.188 c 0,-12.73 -5.25,-15.476 -13.351,-15.476 -10.223,0 -15.356,4.113 -15.356,16.593 v 40.071 h -7.992 v -44.055 c 0,-9.488 -3.855,-12.609 -12.597,-12.609 -11.598,0 -16.094,6.98 -16.094,20.214 v 36.45 h -7.988 v -63.645"
         style="fill:#1c4f9c;fill-opacity:1;fill-rule:nonzero;stroke:none"
         id="path865"
         inkscape:connector-curvature="0" /><path
         d="m 2724.641,625.441 c -4.61,4.989 -9.235,6.481 -18.606,6.481 -16.223,0 -19.844,-7.731 -19.844,-19.965 0,-12.484 2.883,-19.965 19.844,-19.965 12.117,0 14.735,1.379 17.617,5.738 h 0.25 v -11.605 c 0,-9.359 -0.886,-12.598 -14.113,-12.598 -13.105,0 -13.355,3.239 -13.355,11.344 h -7.981 V 581.5 c 0,-7.723 1.863,-15.215 21.707,-15.215 17.715,0 21.719,5.742 21.719,18.086 v 46.559 h -7.238 z m -15.235,-1.503 c 10.625,0 15.235,-2.618 15.235,-12.356 0,-9.738 -4.61,-12.359 -15.235,-12.359 -10.594,0 -15.218,2.621 -15.218,12.359 0,9.738 4.624,12.356 15.218,12.356"
         style="fill:#1c4f9c;fill-opacity:1;fill-rule:nonzero;stroke:none"
         id="path867"
         inkscape:connector-curvature="0" /><path
         d="m 2745.113,567.285 h 7.992 v 8.227 h 0.243 c 3.988,-6.86 8.367,-9.227 17.593,-9.227 14.719,0 18.723,7.356 18.723,19.715 v 44.93 h -7.992 v -43.051 c 0,-7.367 -1.625,-14.352 -12.102,-14.352 -9.738,0 -16.465,3.735 -16.465,17.219 v 40.184 h -7.992 v -63.645"
         style="fill:#1c4f9c;fill-opacity:1;fill-rule:nonzero;stroke:none"
         id="path869"
         inkscape:connector-curvature="0" /><path
         d="m 2415.785,690.328 h 13.86 l 40.531,80.863 h 0.258 v -80.863 h 8.746 v 90.352 h -13.856 l -40.562,-80.864 h -0.246 v 80.864 h -8.731 v -90.352"
         style="fill:#1c4f9c;fill-opacity:1;fill-rule:nonzero;stroke:none"
         id="path871"
         inkscape:connector-curvature="0" /><path
         d="m 2501.012,750.723 v 5.867 c 0,13.848 2.383,17.848 13.359,17.848 12.859,0 15.586,-0.25 15.586,-12.735 h 8 v 2.371 c 0,12.731 -3.113,17.594 -22.203,17.594 -20.988,0 -23.461,-6.98 -23.461,-32.813 0,-26.332 4.234,-32.824 23.461,-32.824 19.09,0 22.203,7.735 22.203,25.082 v 9.61 z m 28.945,-7.996 c 0,-13.461 -0.25,-19.45 -14.465,-19.45 -14.234,0 -14.48,5.989 -14.48,19.45 h 28.945"
         style="fill:#1c4f9c;fill-opacity:1;fill-rule:nonzero;stroke:none"
         id="path873"
         inkscape:connector-curvature="0" /><path
         d="m 2595.727,780.68 h -7.981 v -8.246 h -0.254 c -3.996,6.867 -8.359,9.234 -17.613,9.234 -14.715,0 -18.711,-7.367 -18.711,-19.715 v -44.918 h 7.996 v 43.051 c 0,7.359 1.625,14.352 12.102,14.352 9.73,0 16.48,-3.747 16.48,-17.219 v -40.184 h 7.981 v 63.645"
         style="fill:#1c4f9c;fill-opacity:1;fill-rule:nonzero;stroke:none"
         id="path875"
         inkscape:connector-curvature="0" /><path
         d="m 2608.961,717.035 h 7.988 v 7.735 h 0.262 c 2.984,-6.118 6.719,-8.739 14.711,-8.739 10.113,0 14.726,4.375 14.726,17.098 v 5.113 h -7.226 c 0.113,-11.73 -1.266,-14.965 -10.375,-14.965 -7.973,-0.136 -12.098,4.36 -12.098,13.098 v 44.305 h -7.988 v -63.645"
         style="fill:#1c4f9c;fill-opacity:1;fill-rule:nonzero;stroke:none"
         id="path877"
         inkscape:connector-curvature="0" /><path
         d="m 2677.465,716.035 c 20.961,0 23.461,7.492 23.461,32.82 0,26.336 -2.75,32.813 -23.461,32.813 -20.731,0 -23.465,-6.477 -23.465,-32.813 0,-25.328 2.484,-32.82 23.465,-32.82 z m 0,58.403 c 12.723,0 14.711,-1.868 14.711,-25.583 0,-23.71 -1.988,-25.578 -14.711,-25.578 -12.727,0 -14.735,1.868 -14.735,25.578 0,23.715 2.008,25.583 14.735,25.583"
         style="fill:#1c4f9c;fill-opacity:1;fill-rule:nonzero;stroke:none"
         id="path879"
         inkscape:connector-curvature="0" /><path
         d="m 2715.141,690.328 h 8.004 v 10.602 h -8.004 z m 0,26.707 h 8.004 v 63.645 h -8.004 v -63.645"
         style="fill:#1c4f9c;fill-opacity:1;fill-rule:nonzero;stroke:none"
         id="path881"
         inkscape:connector-curvature="0" /><path
         d="m 2738.484,717.035 h 7.989 v 8.223 h 0.257 c 3.997,-6.856 8.348,-9.227 17.586,-9.227 14.735,0 18.731,7.36 18.731,19.715 v 44.934 h -7.992 v -43.055 c 0,-7.367 -1.621,-14.348 -12.106,-14.348 -9.73,0 -16.476,3.735 -16.476,17.219 v 40.184 h -7.989 v -63.645"
         style="fill:#1c4f9c;fill-opacity:1;fill-rule:nonzero;stroke:none"
         id="path883"
         inkscape:connector-curvature="0" /><path
         d="m 2800.648,724.266 h -7.863 v -7.231 h 7.863 v -11.48 c 0,-11.731 5.489,-16.231 16.59,-16.231 1.871,0 3.742,0.125 5.614,0.25 v 7.121 c -1.75,-0.136 -3.5,-0.136 -5.25,-0.136 -5.231,0 -8.969,1.753 -8.969,8.996 v 11.48 h 13.976 v 7.231 h -13.976 v 56.414 h -7.985 v -56.414"
         style="fill:#1c4f9c;fill-opacity:1;fill-rule:nonzero;stroke:none"
         id="path885"
         inkscape:connector-curvature="0" /><path
         d="m 2850.902,716.031 c 20.985,0 23.473,7.496 23.473,32.824 0,26.336 -2.75,32.813 -23.473,32.813 -20.703,0 -23.453,-6.477 -23.453,-32.813 0,-25.328 2.489,-32.824 23.453,-32.824 z m 0,58.407 c 12.735,0 14.743,-1.868 14.743,-25.583 0,-23.71 -2.008,-25.578 -14.743,-25.578 -12.714,0 -14.722,1.868 -14.722,25.578 0,23.715 2.008,25.583 14.722,25.583"
         style="fill:#1c4f9c;fill-opacity:1;fill-rule:nonzero;stroke:none"
         id="path887"
         inkscape:connector-curvature="0" /><path
         d="m 2886.496,717.035 h 7.984 v 7.735 h 0.25 c 2.997,-6.118 6.731,-8.739 14.731,-8.739 10.098,0 14.711,4.375 14.711,17.098 v 5.113 h -7.231 c 0.125,-11.73 -1.238,-14.965 -10.351,-14.965 -8,-0.136 -12.11,4.36 -12.11,13.098 v 44.305 h -7.984 v -63.645"
         style="fill:#1c4f9c;fill-opacity:1;fill-rule:nonzero;stroke:none"
         id="path889"
         inkscape:connector-curvature="0" /><path
         d="m 2932.672,717.035 h 7.969 v 9.477 h 0.261 c 3.993,-6.856 7.856,-10.481 16.844,-10.481 8.488,0 14.977,1.871 18.215,10.364 4.879,-7.743 10.113,-10.364 19.101,-10.364 12.852,0 18.969,6.242 18.969,18.84 v 45.809 h -7.988 v -41.188 c 0,-12.73 -5.25,-15.476 -13.348,-15.476 -10.226,0 -15.367,4.113 -15.367,16.593 v 40.071 h -7.969 v -44.055 c 0,-9.488 -3.867,-12.609 -12.613,-12.609 -11.594,0 -16.105,6.984 -16.105,20.218 v 36.446 h -7.969 v -63.645"
         style="fill:#1c4f9c;fill-opacity:1;fill-rule:nonzero;stroke:none"
         id="path891"
         inkscape:connector-curvature="0" /><path
         d="m 3064.562,775.188 c -4.617,4.988 -9.234,6.48 -18.597,6.48 -16.207,0 -19.828,-7.734 -19.828,-19.965 0,-12.48 2.867,-19.965 19.828,-19.965 12.117,0 14.734,1.379 17.601,5.739 h 0.243 v -11.606 c 0,-9.359 -0.868,-12.594 -14.094,-12.594 -13.098,0 -13.363,3.235 -13.363,11.344 h -7.973 v -3.375 c 0,-7.719 1.867,-15.215 21.711,-15.215 17.715,0 21.711,5.742 21.711,18.086 v 46.563 h -7.239 z m -15.226,-1.504 c 10.609,0 15.226,-2.618 15.226,-12.356 0,-9.738 -4.617,-12.359 -15.226,-12.359 -10.609,0 -15.207,2.621 -15.207,12.359 0,9.738 4.598,12.356 15.207,12.356"
         style="fill:#1c4f9c;fill-opacity:1;fill-rule:nonzero;stroke:none"
         id="path893"
         inkscape:connector-curvature="0" /><path
         d="m 3087.148,724.266 h -6.621 v -7.231 h 6.621 v -14.738 h 7.997 v 14.738 h 20.578 v 7.231 h -20.578 v 42.562 c 0,5.238 1.625,7.61 6.863,7.61 5.988,0 8.609,-1.129 8.609,-15.227 h 7.231 c 0,20.34 -6.485,22.457 -15.723,22.457 -11.727,0 -14.977,-3.609 -14.977,-13.109 v -44.293"
         style="fill:#1c4f9c;fill-opacity:1;fill-rule:nonzero;stroke:none"
         id="path895"
         inkscape:connector-curvature="0" /><path
         d="m 3128.703,690.328 h 7.988 v 10.602 h -7.988 z m 0,26.707 h 7.988 v 63.645 h -7.988 v -63.645"
         style="fill:#1c4f9c;fill-opacity:1;fill-rule:nonzero;stroke:none"
         id="path897"
         inkscape:connector-curvature="0" /><path
         d="m 3187.234,738.242 c 0,-11.605 -2.257,-14.965 -12.863,-14.965 -12.726,0 -14.726,1.868 -14.726,25.578 0,23.715 2,25.583 14.726,25.583 11.488,0 13.981,-3.122 13.981,-16.856 h 7.98 v 4.121 c 0,16.469 -7.727,19.965 -21.961,19.965 -20.965,0 -23.453,-6.98 -23.453,-32.813 0,-26.328 4.234,-32.824 23.453,-32.824 17.215,0 20.844,5.367 20.844,22.211 h -7.981"
         style="fill:#1c4f9c;fill-opacity:1;fill-rule:nonzero;stroke:none"
         id="path899"
         inkscape:connector-curvature="0" /><path
         d="m 3215.301,760.953 c -0.262,10.977 1.734,13.485 13.605,13.485 12.848,0 15.223,-1.868 15.223,-12.61 0,-8.359 -0.875,-8.984 -15.961,-9.851 -15.98,-0.887 -20.352,-3.258 -20.352,-17.356 0,-13.348 2.496,-18.59 21.45,-18.59 18.617,0 22.226,4.239 22.226,17.598 h -8 c 0,-9.738 -2.613,-10.352 -14.586,-10.352 -11.113,0 -13.109,1.118 -13.109,10.977 0,8.976 1.121,9.726 14.605,10.48 18.836,1.118 21.707,2.618 21.707,16.594 0,14.977 -2.871,20.34 -23.461,20.34 -14.605,0 -21.328,-1.742 -21.328,-20.715 h 7.981"
         style="fill:#1c4f9c;fill-opacity:1;fill-rule:nonzero;stroke:none"
         id="path901"
         inkscape:connector-curvature="0" /><path
         d="m 3300.902,690.328 h 13.848 l 40.559,80.863 h 0.25 v -80.863 h 8.73 v 90.352 h -13.851 l -40.559,-80.864 h -0.246 v 80.864 h -8.731 v -90.352"
         style="fill:#1c4f9c;fill-opacity:1;fill-rule:nonzero;stroke:none"
         id="path903"
         inkscape:connector-curvature="0" /><path
         d="m 3400.855,716.035 c 20.965,0 23.465,7.492 23.465,32.824 0,26.329 -2.754,32.809 -23.465,32.809 -20.714,0 -23.468,-6.48 -23.468,-32.809 0,-25.332 2.5,-32.824 23.468,-32.824 z m 0,58.403 c 12.731,0 14.727,-1.868 14.727,-25.579 0,-23.714 -1.996,-25.582 -14.727,-25.582 -12.73,0 -14.726,1.868 -14.726,25.582 0,23.711 1.996,25.579 14.726,25.579"
         style="fill:#1c4f9c;fill-opacity:1;fill-rule:nonzero;stroke:none"
         id="path905"
         inkscape:connector-curvature="0" /><path
         d="m 3474.488,772.684 h -0.234 c -3.012,6.367 -7.371,8.984 -16.367,8.984 -17.711,0 -22.582,-7.856 -22.582,-32.813 0,-24.964 4.871,-32.82 21.343,-32.82 7.223,0 13.227,1.504 17.606,8.985 h 0.234 v -34.692 h 7.992 v 90.352 h -7.992 z m -15.211,1 c 13.332,0 15.211,-4.735 15.211,-28.575 0,-15.601 -3.738,-21.093 -15.211,-21.093 -12.5,0 -15.234,2.871 -15.234,24.839 0,21.961 2.734,24.829 15.234,24.829"
         style="fill:#1c4f9c;fill-opacity:1;fill-rule:nonzero;stroke:none"
         id="path907"
         inkscape:connector-curvature="0" /><path
         d="m 3504.066,750.723 v 5.867 c 0,13.848 2.368,17.848 13.336,17.848 12.864,0 15.598,-0.25 15.598,-12.735 h 7.996 v 2.371 c 0,12.731 -3.129,17.594 -22.203,17.594 -20.961,0 -23.461,-6.98 -23.461,-32.813 0,-26.332 4.234,-32.824 23.461,-32.824 19.074,0 22.203,7.735 22.203,25.082 v 9.61 z M 3533,742.73 c 0,-13.464 -0.238,-19.453 -14.469,-19.453 -14.226,0 -14.465,5.989 -14.465,19.453 H 3533"
         style="fill:#1c4f9c;fill-opacity:1;fill-rule:nonzero;stroke:none"
         id="path909"
         inkscape:connector-curvature="0" /><path
         d="m 707.41,391.734 c 0,46.465 -34.598,84.145 -77.265,84.145 -42.676,0 -77.262,-37.68 -77.262,-84.145 0,-46.492 34.586,-84.191 77.262,-84.191 42.667,0 77.265,37.699 77.265,84.191"
         style="fill:#1c4f9c;fill-opacity:1;fill-rule:nonzero;stroke:none"
         id="path911"
         inkscape:connector-curvature="0" /><path
         d="m 489.613,456.902 c 0,43.961 -34.59,79.59 -77.277,79.59 -42.664,0 -77.254,-35.629 -77.254,-79.59 0,-43.964 34.59,-79.59 77.254,-79.59 42.687,0 77.277,35.626 77.277,79.59"
         style="fill:#1c4f9c;fill-opacity:1;fill-rule:nonzero;stroke:none"
         id="path913"
         inkscape:connector-curvature="0" /><path
         d="m 546.617,296.699 c 0,32.278 -26.082,58.449 -58.293,58.449 -32.183,0 -58.289,-26.171 -58.289,-58.449 0,-32.277 26.106,-58.449 58.289,-58.449 32.211,0 58.293,26.172 58.293,58.449"
         style="fill:#1c4f9c;fill-opacity:1;fill-rule:nonzero;stroke:none"
         id="path915"
         inkscape:connector-curvature="0" /><path
         d="m 612.766,550.957 c 0,32.277 -26.094,58.426 -58.289,58.426 -32.2,0 -58.293,-26.149 -58.293,-58.426 0,-32.277 26.093,-58.453 58.293,-58.453 32.195,0 58.289,26.176 58.289,58.453"
         style="fill:#1c4f9c;fill-opacity:1;fill-rule:nonzero;stroke:none"
         id="path917"
         inkscape:connector-curvature="0" /><path
         d="m 632.402,213.762 c 0,21.8 -17.644,39.476 -39.41,39.476 -21.762,0 -39.406,-17.676 -39.406,-39.476 0,-21.797 17.644,-39.477 39.406,-39.477 21.766,0 39.41,17.68 39.41,39.477"
         style="fill:#2857af;fill-opacity:1;fill-rule:nonzero;stroke:none"
         id="path919"
         inkscape:connector-curvature="0" /><path
         d="m 385.938,296.223 c -0.958,21.797 -22.004,38.562 -46.997,37.468 -24.988,-1.113 -44.461,-19.679 -43.48,-41.457 0.953,-21.796 21.992,-38.562 46.969,-37.468 25,1.113 44.465,19.656 43.508,41.457"
         style="fill:#2857af;fill-opacity:1;fill-rule:nonzero;stroke:none"
         id="path921"
         inkscape:connector-curvature="0" /><path
         d="m 313.477,198.453 c -1.254,14.856 -17.926,25.582 -37.231,23.942 -19.316,-1.618 -33.941,-14.989 -32.676,-29.864 1.25,-14.851 17.926,-25.578 37.219,-23.937 19.316,1.64 33.941,15.011 32.688,29.859"
         style="fill:#5788c2;fill-opacity:1;fill-rule:nonzero;stroke:none"
         id="path923"
         inkscape:connector-curvature="0" /><path
         d="m 873.672,242.305 c -1.367,16.035 -18.996,27.629 -39.383,25.898 -20.387,-1.73 -35.832,-16.125 -34.465,-32.16 1.356,-16.039 18.988,-27.656 39.383,-25.926 20.391,1.731 35.832,16.129 34.465,32.188"
         style="fill:#5788c2;fill-opacity:1;fill-rule:nonzero;stroke:none"
         id="path925"
         inkscape:connector-curvature="0" /><path
         d="m 776.613,259.23 c 7.004,17.836 -7.722,40.34 -32.914,50.227 -25.183,9.887 -51.277,3.438 -58.281,-14.422 -7.027,-17.855 7.711,-40.34 32.883,-50.226 25.203,-9.883 51.297,-3.438 58.312,14.421"
         style="fill:#2857af;fill-opacity:1;fill-rule:nonzero;stroke:none"
         id="path927"
         inkscape:connector-curvature="0" /><path
         d="m 657.16,120.164 c -1.969,14.012 -19.222,23.191 -38.539,20.481 -19.328,-2.711 -33.383,-16.266 -31.426,-30.297 1.973,-14.008 19.239,-23.188 38.543,-20.477 19.328,2.731 33.383,16.285 31.422,30.293"
         style="fill:#5788c2;fill-opacity:1;fill-rule:nonzero;stroke:none"
         id="path929"
         inkscape:connector-curvature="0" /><path
         d="m 631.766,24.516 c -1.164,12.007 -14.262,20.527 -29.227,19.07 -14.965,-1.461 -26.148,-12.371 -24.965,-24.375 1.16,-11.981 14.258,-20.523 29.211,-19.043 14.981,1.457 26.164,12.367 24.981,24.348"
         style="fill:#bbd9f3;fill-opacity:1;fill-rule:nonzero;stroke:none"
         id="path931"
         inkscape:connector-curvature="0" /><path
         d="m 223.512,128.797 c -0.899,10.754 -14.75,18.383 -30.899,16.996 -16.148,-1.367 -28.496,-11.188 -27.609,-21.938 0.91,-10.75 14.762,-18.359 30.91,-16.992 16.152,1.367 28.512,11.184 27.598,21.934"
         style="fill:#bbd9f3;fill-opacity:1;fill-rule:nonzero;stroke:none"
         id="path933"
         inkscape:connector-curvature="0" /><path
         d="m 975.902,218.863 c -0.547,12.918 -16.285,22.758 -35.168,21.961 -18.863,-0.797 -33.714,-11.89 -33.179,-24.828 0.539,-12.894 16.277,-22.734 35.16,-21.937 18.859,0.796 33.734,11.914 33.187,24.804"
         style="fill:#bbd9f3;fill-opacity:1;fill-rule:nonzero;stroke:none"
         id="path935"
         inkscape:connector-curvature="0" /><path
         d="m 487.23,644.941 c 0,23.848 -22.777,43.211 -50.851,43.211 -28.074,0 -50.852,-19.363 -50.852,-43.211 0,-23.851 22.778,-43.187 50.852,-43.187 28.074,0 50.851,19.336 50.851,43.187"
         style="fill:#2857af;fill-opacity:1;fill-rule:nonzero;stroke:none"
         id="path937"
         inkscape:connector-curvature="0" /><path
         d="m 352.18,571.844 c 13.472,25.285 7.355,54.875 -13.668,66.058 -21.028,11.207 -48.989,-0.226 -62.461,-25.535 -13.461,-25.308 -7.356,-54.875 13.668,-66.082 21.023,-11.183 48.972,0.25 62.461,25.559"
         style="fill:#2857af;fill-opacity:1;fill-rule:nonzero;stroke:none"
         id="path939"
         inkscape:connector-curvature="0" /><path
         d="m 232.68,599.246 c 15.433,14.738 18.816,36.242 7.562,48.063 -11.262,11.8 -32.914,9.429 -48.359,-5.305 -15.43,-14.719 -18.813,-36.219 -7.563,-48.043 11.278,-11.801 32.918,-9.43 48.36,5.285"
         style="fill:#5788c2;fill-opacity:1;fill-rule:nonzero;stroke:none"
         id="path941"
         inkscape:connector-curvature="0" /><path
         d="m 431.723,776.328 c 9.347,13.234 30.816,14.168 47.968,2.074 17.129,-12.097 23.442,-32.644 14.102,-45.879 -9.363,-13.257 -30.82,-14.168 -47.973,-2.07 -17.129,12.094 -23.437,32.641 -14.097,45.875"
         style="fill:#5788c2;fill-opacity:1;fill-rule:nonzero;stroke:none"
         id="path943"
         inkscape:connector-curvature="0" /><path
         d="m 515.844,829.336 c 2.308,12.047 -9.317,24.418 -25.981,27.629 -16.664,3.187 -32.039,-3.988 -34.351,-16.059 -2.313,-12.051 9.304,-24.418 25.98,-27.609 16.653,-3.188 32.028,3.988 34.352,16.039"
         style="fill:#63a1d9;fill-opacity:1;fill-rule:nonzero;stroke:none"
         id="path945"
         inkscape:connector-curvature="0" /><path
         d="m 531.445,909.402 c 0.957,10.953 -10.179,20.84 -24.851,22.118 -14.668,1.253 -27.332,-6.606 -28.27,-17.563 -0.957,-10.957 10.184,-20.844 24.856,-22.117 14.668,-1.278 27.332,6.605 28.265,17.562"
         style="fill:#bbd9f3;fill-opacity:1;fill-rule:nonzero;stroke:none"
         id="path947"
         inkscape:connector-curvature="0" /><path
         d="m 154.117,672.07 c -6.426,10.274 -27.129,8.93 -46.262,-3.008 -19.136,-11.933 -29.453,-29.953 -23.054,-40.203 6.426,-10.297 27.129,-8.953 46.265,2.985 19.145,11.933 29.454,29.953 23.051,40.226"
         style="fill:#63a1d9;fill-opacity:1;fill-rule:nonzero;stroke:none"
         id="path949"
         inkscape:connector-curvature="0" /><path
         d="M 66.305,700.93 C 60.84,709.676 41.91,707.719 24.004,696.559 6.102,685.395 -3.969,669.246 1.477,660.496 c 5.468,-8.742 24.394,-6.808 42.3,4.375 17.903,11.16 27.973,27.313 22.528,36.059"
         style="fill:#bbd9f3;fill-opacity:1;fill-rule:nonzero;stroke:none"
         id="path951"
         inkscape:connector-curvature="0" /></g></g></svg>