<?xml version="1.0" encoding="UTF-8" standalone="no"?>
<!-- Created with Inkscape (http://www.inkscape.org/) -->

<svg
   xmlns:dc="http://purl.org/dc/elements/1.1/"
   xmlns:cc="http://creativecommons.org/ns#"
   xmlns:rdf="http://www.w3.org/1999/02/22-rdf-syntax-ns#"
   xmlns:svg="http://www.w3.org/2000/svg"
   xmlns="http://www.w3.org/2000/svg"
   xmlns:sodipodi="http://sodipodi.sourceforge.net/DTD/sodipodi-0.dtd"
   xmlns:inkscape="http://www.inkscape.org/namespaces/inkscape"
   version="1.1"
   id="svg2"
   xml:space="preserve"
   width="2962.4934"
   height="1247.5333"
   viewBox="0 0 2962.4934 1247.5333"
   sodipodi:docname="G-Node_LogoShort.svg"
   inkscape:version="0.92.3 (2405546, 2018-03-11)"><metadata
     id="metadata8"><rdf:RDF><cc:Work
         rdf:about=""><dc:format>image/svg+xml</dc:format><dc:type
           rdf:resource="http://purl.org/dc/dcmitype/StillImage" /><dc:title></dc:title></cc:Work></rdf:RDF></metadata><defs
     id="defs6" /><sodipodi:namedview
     pagecolor="#ffffff"
     bordercolor="#666666"
     borderopacity="1"
     objecttolerance="10"
     gridtolerance="10"
     guidetolerance="10"
     inkscape:pageopacity="0"
     inkscape:pageshadow="2"
     inkscape:window-width="806"
     inkscape:window-height="480"
     id="namedview4"
     showgrid="false"
     inkscape:zoom="0.12185681"
     inkscape:cx="525.20659"
     inkscape:cy="623.76666"
     inkscape:window-x="0"
     inkscape:window-y="27"
     inkscape:window-maximized="0"
     inkscape:current-layer="g10" /><g
     id="g10"
     inkscape:groupmode="layer"
     inkscape:label="ink_ext_XXXXXX"
     transform="matrix(1.3333333,0,0,-1.3333333,0,1247.5333)"><g
       id="g12"
       transform="scale(0.1)"><path
         d="m 10267.2,1926.29 v 984.61 h -372.26 c -58.82,0 -63.72,9.79 -63.72,63.67 v 195.89 c 0,58.77 4.9,68.56 63.72,68.56 h 700.46 c 53.9,0 63.7,-14.57 63.7,-68.56 v -1391.1 c 0,-39.18 -9.8,-53.86 -44.1,-73.45 -186.2,-112.65 -499.7,-186.11 -788.68,-186.11 -744.52,0 -1146.16,582.91 -1146.16,1665.47 0,1131.41 401.64,1729.07 1155.96,1729.07 259.58,0 533.98,-83.32 739.68,-230.24 29.4,-19.59 44.1,-39.18 44.1,-58.77 0,-9.78 0,-14.69 -14.7,-39.18 l -98,-200.9 c -4.9,-14.57 -19.6,-24.37 -34.3,-24.37 -9.8,0 -19.6,4.78 -34.3,14.57 -269.3,171.52 -391.8,220.51 -602.48,220.51 -504.49,0 -734.73,-416.4 -734.73,-1322.54 0,-1018.89 230.24,-1435.28 793.55,-1435.28 132.26,0 239.96,24.59 372.26,88.15"
         style="fill:#1c4f9c;fill-opacity:1;fill-rule:nonzero;stroke:none"
         id="path14"
         inkscape:connector-curvature="0" /><path
         d="m 11163.5,2685.61 v 230.19 c 0,53.87 9.8,63.66 63.7,63.66 h 1195.2 c 53.9,0 63.7,-9.79 63.7,-63.66 v -230.19 c 0,-53.86 -9.8,-63.66 -63.7,-63.66 h -1195.2 c -53.9,0 -63.7,9.8 -63.7,63.66"
         style="fill:#1c4f9c;fill-opacity:1;fill-rule:nonzero;stroke:none"
         id="path16"
         inkscape:connector-curvature="0" /><path
         d="m 14690.3,2181.07 c -24.5,186.1 -34.3,288.95 -34.3,416.28 v 2184.7 c 0,58.77 9.8,68.57 68.6,68.57 h 215.5 c 53.8,0 63.6,-9.8 63.6,-68.57 V 1647.14 c 0,-53.88 -9.8,-63.66 -63.6,-63.66 h -259.6 c -34.3,0 -58.8,14.68 -73.5,44.07 l -1092.3,2356.11 c -58.8,127.34 -88.2,225.29 -142.1,450.56 l 19.6,-112.52 c 19.6,-117.66 29.4,-240.09 29.4,-357.63 V 1647.14 c 0,-53.88 -9.8,-63.66 -68.6,-63.66 h -215.5 c -53.9,0 -63.7,9.78 -63.7,63.66 v 3134.91 c 0,58.77 9.8,68.57 63.7,68.57 h 303.7 c 34.3,0 53.9,-14.69 68.6,-48.98 L 14558,2582.77 c 44.1,-97.95 88.2,-225.39 132.3,-401.7"
         style="fill:#1c4f9c;fill-opacity:1;fill-rule:nonzero;stroke:none"
         id="path18"
         inkscape:connector-curvature="0" /><g
         id="g20"
         transform="scale(1.0751)"><path
           d="m 16300,2548.12 c 0,-715.3 -341.6,-1134.49 -911.2,-1134.49 -542.2,0 -856.5,410.08 -856.5,1111.7 0,715.3 337.1,1134.49 902.1,1134.49 546.7,0 865.6,-405.53 865.6,-1111.7 z m -359.9,-31.89 v 41 c 0,533.06 -182.3,824.61 -519.4,824.61 -346.2,0 -528.5,-277.87 -528.5,-810.95 0,-592.3 173.2,-879.38 528.5,-879.38 341.8,0 505.8,259.75 519.4,824.72"
           style="fill:#1c4f9c;fill-opacity:1;fill-rule:nonzero;stroke:none"
           id="path22"
           inkscape:connector-curvature="0" /></g><g
         id="g24"
         transform="scale(1.22055)"><path
           d="m 15942.8,1494.04 c -252.9,-192.69 -389.3,-248.86 -577.9,-248.86 -385.3,0 -614,373.16 -614,1007.31 0,601.97 268.8,971.2 702.4,971.2 140.3,0 260.7,-36.2 425.3,-124.48 v 923.1 c 0,24.08 16.1,44.14 36.1,48.15 l 208.7,48.15 c 12,4.01 16.1,4.01 20,4.01 24.1,0 28.2,-8.02 28.2,-44.13 V 1911.34 c 0,-240.75 20,-333.13 96.3,-457.42 l 24.1,-40.22 c 4,-8.02 8,-16.05 8,-20.06 0,-12.04 -4,-16.05 -20.1,-24.08 l -176.6,-100.31 c -12,-8.02 -20,-12.04 -28,-12.04 -36.2,0 -96.3,108.34 -132.5,236.83 z m -64.2,1344.37 c -164.6,92.28 -264.8,124.38 -397.3,124.38 -293,0 -413.4,-200.63 -413.4,-694.25 0,-537.77 104.3,-758.45 361.2,-758.45 148.5,0 276.9,60.09 449.5,224.7 v 1103.62"
           style="fill:#1c4f9c;fill-opacity:1;fill-rule:nonzero;stroke:none"
           id="path26"
           inkscape:connector-curvature="0" /></g><g
         id="g28"
         transform="scale(1.36179)"><path
           d="m 15256.8,1943.26 c 18,-381.21 179.9,-589.79 464,-589.79 122.4,0 255.4,39.47 402.9,125.78 10.8,7.2 25.2,10.88 32.4,10.88 10.7,0 21.5,-7.2 25.1,-18.07 l 64.8,-136.66 c 3.6,-14.38 7.2,-17.89 7.2,-25.09 0,-32.45 -57.6,-68.41 -176.3,-118.76 -125.8,-50.35 -251.8,-75.52 -381.2,-75.52 -442.5,0 -726.7,341.65 -726.7,884.86 0,543.12 269.8,888.45 690.7,888.45 399.3,0 633.1,-284.19 640.3,-776.97 v -100.69 -3.6 c 0,-50.43 -7.2,-64.82 -39.6,-64.82 z m 3.6,215.86 h 755.4 c -7.2,334.54 -140.3,517.95 -374.1,517.95 -233.7,0 -366.9,-176.21 -381.3,-517.95"
           style="fill:#1c4f9c;fill-opacity:1;fill-rule:nonzero;stroke:none"
           id="path30"
           inkscape:connector-curvature="0" /></g><path
         d="m 7104.11,5419.17 c 0,-464.68 -346,-841.44 -772.65,-841.44 -426.76,0 -772.65,376.76 -772.65,841.44 0,464.92 345.89,841.9 772.65,841.9 426.65,0 772.65,-376.98 772.65,-841.9"
         style="fill:#1c4f9c;fill-opacity:1;fill-rule:nonzero;stroke:none"
         id="path32"
         inkscape:connector-curvature="0" /><path
         d="m 4926.13,4767.48 c 0,-439.63 -345.9,-795.9 -772.77,-795.9 -426.64,0 -772.54,356.27 -772.54,795.9 0,439.63 345.9,795.88 772.54,795.88 426.87,0 772.77,-356.25 772.77,-795.88"
         style="fill:#1c4f9c;fill-opacity:1;fill-rule:nonzero;stroke:none"
         id="path34"
         inkscape:connector-curvature="0" /><path
         d="m 5496.17,6369.5 c 0,-322.77 -260.82,-584.5 -582.91,-584.5 -321.86,0 -582.91,261.73 -582.91,584.5 0,322.78 261.05,584.5 582.91,584.5 322.09,0 582.91,-261.72 582.91,-584.5"
         style="fill:#1c4f9c;fill-opacity:1;fill-rule:nonzero;stroke:none"
         id="path36"
         inkscape:connector-curvature="0" /><path
         d="m 6157.66,3826.94 c 0,-322.77 -260.93,-584.26 -582.9,-584.26 -321.99,0 -582.91,261.49 -582.91,584.26 0,322.78 260.92,584.51 582.91,584.51 321.97,0 582.9,-261.73 582.9,-584.51"
         style="fill:#1c4f9c;fill-opacity:1;fill-rule:nonzero;stroke:none"
         id="path38"
         inkscape:connector-curvature="0" /><path
         d="m 6354.02,7198.87 c 0,-217.99 -176.43,-394.75 -394.08,-394.75 -217.65,0 -394.07,176.76 -394.07,394.75 0,218 176.42,394.76 394.07,394.76 217.65,0 394.08,-176.76 394.08,-394.76"
         style="fill:#2857af;fill-opacity:1;fill-rule:nonzero;stroke:none"
         id="path40"
         inkscape:connector-curvature="0" /><path
         d="m 3889.36,6374.28 c -9.57,-217.99 -220.04,-385.64 -469.93,-374.71 -249.88,11.16 -444.63,196.81 -434.84,414.57 9.57,218 219.93,385.65 469.7,374.72 250,-11.16 444.64,-196.58 435.07,-414.58"
         style="fill:#2857af;fill-opacity:1;fill-rule:nonzero;stroke:none"
         id="path42"
         inkscape:connector-curvature="0" /><path
         d="m 3164.77,7351.95 c -12.53,-148.52 -179.27,-255.81 -372.32,-239.41 -193.16,16.17 -339.4,149.88 -326.75,298.63 12.52,148.52 179.26,255.8 372.19,239.41 193.16,-16.41 339.41,-150.12 326.88,-298.63"
         style="fill:#5788c2;fill-opacity:1;fill-rule:nonzero;stroke:none"
         id="path44"
         inkscape:connector-curvature="0" /><path
         d="m 8766.73,6913.46 c -13.67,-160.36 -189.97,-276.31 -393.84,-259 -203.87,17.31 -358.31,161.27 -344.65,321.63 13.56,160.37 189.87,276.54 393.85,259.23 203.87,-17.31 358.31,-161.28 344.64,-321.86"
         style="fill:#5788c2;fill-opacity:1;fill-rule:nonzero;stroke:none"
         id="path46"
         inkscape:connector-curvature="0" /><path
         d="m 7796.13,6744.21 c 70.04,-178.36 -77.22,-403.41 -329.15,-502.27 -251.82,-98.86 -512.75,-34.4 -582.8,144.19 -70.27,178.58 77.11,403.41 328.82,502.27 252.04,98.86 512.97,34.39 583.13,-144.19"
         style="fill:#2857af;fill-opacity:1;fill-rule:nonzero;stroke:none"
         id="path48"
         inkscape:connector-curvature="0" /><path
         d="m 6601.62,8134.85 c -19.71,-140.09 -192.25,-231.89 -385.42,-204.78 -193.28,27.1 -333.82,162.64 -314.23,302.96 19.7,140.09 192.37,231.88 385.41,204.77 193.28,-27.33 333.83,-162.86 314.24,-302.95"
         style="fill:#5788c2;fill-opacity:1;fill-rule:nonzero;stroke:none"
         id="path50"
         inkscape:connector-curvature="0" /><path
         d="m 6347.64,9091.33 c -11.62,-120.05 -142.6,-205.24 -292.26,-190.67 -149.65,14.59 -261.49,123.7 -249.65,243.74 11.61,119.81 142.59,205.23 292.14,190.43 149.77,-14.58 261.61,-123.69 249.77,-243.5"
         style="fill:#bbd9f3;fill-opacity:1;fill-rule:nonzero;stroke:none"
         id="path52"
         inkscape:connector-curvature="0" /><path
         d="m 2265.13,8048.52 c -9,-107.52 -147.5,-183.83 -309,-169.93 -161.5,13.67 -284.96,111.84 -276.08,219.36 9.11,107.51 147.61,183.59 309.11,169.93 161.5,-13.67 285.08,-111.84 275.97,-219.36"
         style="fill:#bbd9f3;fill-opacity:1;fill-rule:nonzero;stroke:none"
         id="path54"
         inkscape:connector-curvature="0" /><path
         d="m 9789.04,7147.85 c -5.47,-129.16 -162.87,-227.56 -351.7,-219.59 -188.61,7.97 -337.13,118.91 -331.78,248.29 5.36,128.93 162.76,227.33 351.59,219.36 188.61,-7.98 337.35,-119.13 331.89,-248.06"
         style="fill:#bbd9f3;fill-opacity:1;fill-rule:nonzero;stroke:none"
         id="path56"
         inkscape:connector-curvature="0" /><path
         d="m 4902.32,2887.09 c 0,-238.49 -227.78,-432.11 -508.53,-432.11 -280.74,0 -508.53,193.62 -508.53,432.11 0,238.5 227.79,431.89 508.53,431.89 280.75,0 508.53,-193.39 508.53,-431.89"
         style="fill:#2857af;fill-opacity:1;fill-rule:nonzero;stroke:none"
         id="path58"
         inkscape:connector-curvature="0" /><path
         d="m 3551.78,3618.07 c 134.74,-252.86 73.57,-548.74 -136.67,-660.59 -210.25,-112.07 -489.86,2.28 -624.59,255.35 -134.63,253.07 -73.58,548.73 136.67,660.81 210.24,111.85 489.74,-2.51 624.59,-255.57"
         style="fill:#2857af;fill-opacity:1;fill-rule:nonzero;stroke:none"
         id="path60"
         inkscape:connector-curvature="0" /><path
         d="m 2356.81,3344.04 c 154.32,-147.38 188.15,-362.42 75.62,-480.63 -112.63,-118 -329.15,-94.31 -483.59,53.07 -154.32,147.15 -188.14,362.18 -75.62,480.41 112.75,117.99 329.15,94.3 483.59,-52.85"
         style="fill:#5788c2;fill-opacity:1;fill-rule:nonzero;stroke:none"
         id="path62"
         inkscape:connector-curvature="0" /><path
         d="m 4347.21,1573.22 c 93.5,-132.34 308.2,-141.68 479.72,-20.73 171.29,120.96 234.39,326.42 141,458.76 -93.62,132.58 -308.19,141.69 -479.72,20.73 -171.3,-120.96 -234.39,-326.41 -141,-458.76"
         style="fill:#5788c2;fill-opacity:1;fill-rule:nonzero;stroke:none"
         id="path64"
         inkscape:connector-curvature="0" /><path
         d="m 5188.43,1043.16 c 23.11,-120.504 -93.16,-244.187 -259.8,-276.305 -166.62,-31.894 -320.38,39.864 -343.5,160.586 -23.12,120.509 93.05,244.189 259.79,276.079 166.52,31.89 320.28,-39.86 343.51,-160.36"
         style="fill:#63a1d9;fill-opacity:1;fill-rule:nonzero;stroke:none"
         id="path66"
         inkscape:connector-curvature="0" /><path
         d="M 5344.46,242.488 C 5354.03,132.93 5242.64,34.0625 5095.95,21.3086 4949.25,8.77734 4822.6,87.3633 4813.26,196.934 c -9.57,109.57 101.82,208.418 248.52,221.179 146.69,12.754 273.34,-66.062 282.68,-175.625"
         style="fill:#bbd9f3;fill-opacity:1;fill-rule:nonzero;stroke:none"
         id="path68"
         inkscape:connector-curvature="0" /><path
         d="m 1571.17,2615.8 c -64.24,-102.73 -271.29,-89.3 -462.63,30.07 -191.341,119.36 -294.532,299.54 -230.52,402.04 64.23,102.96 271.29,89.52 462.64,-29.84 191.45,-119.36 294.52,-299.53 230.51,-402.27"
         style="fill:#63a1d9;fill-opacity:1;fill-rule:nonzero;stroke:none"
         id="path70"
         inkscape:connector-curvature="0" /><path
         d="m 693.059,2327.2 c -54.676,-87.47 -243.965,-67.88 -423.004,43.73 -179.0394,111.62 -279.72297,273.11 -225.2777,360.59 54.668,87.46 243.9527,68.11 422.9957,-43.74 179.04,-111.61 279.723,-273.11 225.286,-360.58"
         style="fill:#bbd9f3;fill-opacity:1;fill-rule:nonzero;stroke:none"
         id="path72"
         inkscape:connector-curvature="0" /></g></g></svg>