<?xml version="1.0" encoding="UTF-8" standalone="no"?>
<!-- Created with Inkscape (http://www.inkscape.org/) -->

<svg
   xmlns:dc="http://purl.org/dc/elements/1.1/"
   xmlns:cc="http://creativecommons.org/ns#"
   xmlns:rdf="http://www.w3.org/1999/02/22-rdf-syntax-ns#"
   xmlns:svg="http://www.w3.org/2000/svg"
   xmlns="http://www.w3.org/2000/svg"
   xmlns:sodipodi="http://sodipodi.sourceforge.net/DTD/sodipodi-0.dtd"
   xmlns:inkscape="http://www.inkscape.org/namespaces/inkscape"
   version="1.1"
   id="svg2"
   xml:space="preserve"
   width="160.59"
   height="160.59"
   viewBox="0 0 160.59 160.59"
   sodipodi:docname="gin.svg"
   inkscape:version="0.92.3 (2405546, 2018-03-11)"><metadata
     id="metadata8"><rdf:RDF><cc:Work
         rdf:about=""><dc:format>image/svg+xml</dc:format><dc:type
           rdf:resource="http://purl.org/dc/dcmitype/StillImage" /><dc:title></dc:title></cc:Work></rdf:RDF></metadata><defs
     id="defs6"><clipPath
       clipPathUnits="userSpaceOnUse"
       id="clipPath24"><path
         d="M 0,0 H 121 V 121 H 0 Z"
         id="path22"
         inkscape:connector-curvature="0" /></clipPath></defs><sodipodi:namedview
     pagecolor="#ffffff"
     bordercolor="#666666"
     borderopacity="1"
     objecttolerance="10"
     gridtolerance="10"
     guidetolerance="10"
     inkscape:pageopacity="0"
     inkscape:pageshadow="2"
     inkscape:window-width="806"
     inkscape:window-height="480"
     id="namedview4"
     showgrid="false"
     inkscape:zoom="1.469581"
     inkscape:cx="1.0206991"
     inkscape:cy="80.294998"
     inkscape:window-x="47"
     inkscape:window-y="27"
     inkscape:window-maximized="0"
     inkscape:current-layer="g10" /><g
     id="g10"
     inkscape:groupmode="layer"
     inkscape:label="gin"
     transform="matrix(1.3333333,0,0,1.3333333,0,8.0147499e-6)"><g
       id="g12" /><g
       id="g14"><g
         id="g16"><g
           id="g18"><g
             id="g20"
             clip-path="url(#clipPath24)"><g
               id="g26"><path
                 d="m 107.234,53.617 c 0.067,-2.121 -0.703,-4.265 -2.324,-5.887 L 73.051,15.871 v -5.695 h 1.582 c 2.812,0 5.094,-2.281 5.094,-5.094 0,-2.812 -2.282,-5.09 -5.094,-5.09 H 45.215 c -2.813,0 -5.094,2.278 -5.094,5.09 0,2.813 2.281,5.094 5.094,5.094 h 1.586 v 6.176 L 15.418,47.73 c -1.762,1.762 -2.523,4.145 -2.289,6.442 -0.027,0.266 -0.043,0.539 -0.043,0.812 v 57.664 c 0,4.313 3.496,7.809 7.809,7.809 h 78.656 c 4.316,0 7.808,-3.496 7.808,-7.809 V 54.984 c 0,-0.468 -0.05,-0.922 -0.129,-1.367"
                 style="fill:#2854a4;fill-opacity:1;fill-rule:nonzero;stroke:none"
                 id="path28"
                 inkscape:connector-curvature="0" /><path
                 d="m 107.234,53.617 c 0.067,-2.121 -0.703,-4.265 -2.324,-5.887 L 73.051,15.871 v -5.695 h 1.582 c 2.812,0 5.094,-2.281 5.094,-5.094 0,-2.812 -2.282,-5.09 -5.094,-5.09 H 45.215 c -2.813,0 -5.094,2.278 -5.094,5.09 0,2.813 2.281,5.094 5.094,5.094 h 1.586 v 6.176 L 15.418,47.73 c -1.762,1.762 -2.523,4.145 -2.289,6.442 -0.027,0.266 -0.043,0.539 -0.043,0.812 v 57.664 c 0,4.313 3.496,7.809 7.809,7.809 h 78.656 c 4.316,0 7.808,-3.496 7.808,-7.809 V 54.984 c 0,-0.468 -0.05,-0.922 -0.129,-1.367"
                 style="fill:#2854a4;fill-opacity:1;fill-rule:nonzero;stroke:none"
                 id="path30"
                 inkscape:connector-curvature="0" /><path
                 d="m 73.453,49.461 c 5.285,0 10.289,-1.188 14.77,-3.309 -4.481,-2.121 -9.485,-3.308 -14.77,-3.308 -3.851,0 -7.555,0.636 -11.015,1.801 3.332,-1.633 6.457,-3.829 9.222,-6.594 3.738,-3.739 6.434,-8.117 8.102,-12.785 -4.664,1.672 -9.043,4.367 -12.782,8.105 -3.707,3.707 -6.39,8.051 -8.062,12.68 -0.078,0.035 -0.156,0.066 -0.234,0.101 4.48,2.121 9.484,3.309 14.769,3.309 m -40.391,3.586 c -5.285,0 -10.289,1.191 -14.765,3.308 4.476,2.122 9.48,3.313 14.765,3.313 3.961,0 7.762,-0.668 11.305,-1.895 -3.398,1.641 -6.586,3.868 -9.41,6.688 -3.734,3.734 -6.434,8.117 -8.102,12.781 4.668,-1.668 9.047,-4.367 12.786,-8.101 3.722,-3.723 6.414,-8.09 8.082,-12.739 0.035,-0.015 0.074,-0.027 0.109,-0.047 -4.48,-2.117 -9.484,-3.308 -14.77,-3.308 M 33.258,29.898 56.285,52.93 c 1.238,-0.762 2.692,-1.211 4.25,-1.211 4.485,0 8.117,3.636 8.117,8.121 0,1.508 -0.418,2.914 -1.136,4.125 l 10.988,10.578 c 1.184,-0.672 2.547,-1.059 4.004,-1.059 4.484,-0.004 8.121,3.633 8.121,8.118 0,4.484 -3.637,8.117 -8.121,8.117 -4.485,0 -8.117,-3.633 -8.117,-8.117 0,-1.321 0.32,-2.563 0.879,-3.664 L 64.059,67.145 c -0.379,0.183 -0.77,0.343 -1.18,0.464 v 29.52 c 3.504,0.898 6.101,4.07 6.101,7.855 0,4.485 -3.636,8.121 -8.121,8.121 -4.484,0 -8.117,-3.636 -8.117,-8.121 0,-3.546 2.278,-6.554 5.449,-7.66 V 67.609 c -3.339,-1.004 -5.777,-4.101 -5.777,-7.769 0,-1.215 0.277,-2.363 0.754,-3.402 L 29.938,33.207"
                 style="fill:#ffffff;fill-opacity:1;fill-rule:nonzero;stroke:none"
                 id="path32"
                 inkscape:connector-curvature="0" /></g></g></g></g></g></g></svg>