<?xml version="1.0" encoding="UTF-8" standalone="no"?>
<!-- Created with Inkscape (http://www.inkscape.org/) -->

<svg
   xmlns:dc="http://purl.org/dc/elements/1.1/"
   xmlns:cc="http://creativecommons.org/ns#"
   xmlns:rdf="http://www.w3.org/1999/02/22-rdf-syntax-ns#"
   xmlns:svg="http://www.w3.org/2000/svg"
   xmlns="http://www.w3.org/2000/svg"
   xmlns:sodipodi="http://sodipodi.sourceforge.net/DTD/sodipodi-0.dtd"
   xmlns:inkscape="http://www.inkscape.org/namespaces/inkscape"
   version="1.1"
   id="svg2"
   xml:space="preserve"
   width="171.29201"
   height="171.29201"
   viewBox="0 0 171.29201 171.29201"
   sodipodi:docname="gin_variant_d.svg"
   inkscape:version="0.92.3 (2405546, 2018-03-11)"><metadata
     id="metadata8"><rdf:RDF><cc:Work
         rdf:about=""><dc:format>image/svg+xml</dc:format><dc:type
           rdf:resource="http://purl.org/dc/dcmitype/StillImage" /><dc:title></dc:title></cc:Work></rdf:RDF></metadata><defs
     id="defs6"><clipPath
       clipPathUnits="userSpaceOnUse"
       id="clipPath18"><path
         d="M 0,128.469 H 128.469 V 0 H 0 Z"
         id="path16"
         inkscape:connector-curvature="0" /></clipPath></defs><sodipodi:namedview
     pagecolor="#ffffff"
     bordercolor="#666666"
     borderopacity="1"
     objecttolerance="10"
     gridtolerance="10"
     guidetolerance="10"
     inkscape:pageopacity="0"
     inkscape:pageshadow="2"
     inkscape:window-width="806"
     inkscape:window-height="480"
     id="namedview4"
     showgrid="false"
     inkscape:zoom="1.3777642"
     inkscape:cx="1.0887204"
     inkscape:cy="85.646004"
     inkscape:window-x="47"
     inkscape:window-y="27"
     inkscape:window-maximized="0"
     inkscape:current-layer="g10" /><g
     id="g10"
     inkscape:groupmode="layer"
     inkscape:label="gin_variants"
     transform="matrix(1.3333333,0,0,-1.3333333,0,171.292)"><g
       id="g12"><g
         id="g14"
         clip-path="url(#clipPath18)"><g
           id="g20"
           transform="translate(114.3779,71.2832)"><path
             d="M 0,0 C 0.07,2.263 -0.75,4.549 -2.478,6.276 L -36.462,40.26 v 6.076 h 1.69 c 3,0 5.431,2.432 5.431,5.432 0,3 -2.431,5.431 -5.431,5.431 h -31.381 c -3,0 -5.432,-2.431 -5.432,-5.431 0,-3 2.432,-5.432 5.432,-5.432 h 1.691 v -6.59 L -97.933,6.276 c -1.879,-1.879 -2.692,-4.418 -2.445,-6.87 -0.029,-0.284 -0.045,-0.573 -0.045,-0.865 v -61.508 c 0,-4.601 3.729,-8.33 8.33,-8.33 h 83.9 c 4.6,0 8.329,3.729 8.329,8.33 V -1.459 C 0.136,-0.96 0.084,-0.475 0,0"
             style="fill:#2854a4;fill-opacity:1;fill-rule:nonzero;stroke:none"
             id="path22"
             inkscape:connector-curvature="0" /></g><g
           id="g24"
           transform="translate(114.3779,71.2832)"><path
             d="M 0,0 C 0.07,2.263 -0.75,4.549 -2.478,6.276 L -36.462,40.26 v 6.076 h 1.69 c 3,0 5.431,2.432 5.431,5.432 0,3 -2.431,5.431 -5.431,5.431 h -31.381 c -3,0 -5.432,-2.431 -5.432,-5.431 0,-3 2.432,-5.432 5.432,-5.432 h 1.691 v -6.59 L -97.933,6.276 c -1.879,-1.879 -2.692,-4.418 -2.445,-6.87 -0.029,-0.284 -0.045,-0.573 -0.045,-0.865 v -61.508 c 0,-4.601 3.729,-8.33 8.33,-8.33 h 83.9 c 4.6,0 8.329,3.729 8.329,8.33 V -1.459 C 0.136,-0.96 0.084,-0.475 0,0"
             style="fill:#2854a4;fill-opacity:1;fill-rule:nonzero;stroke:none"
             id="path26"
             inkscape:connector-curvature="0" /></g><g
           id="g28"
           transform="translate(78.3477,75.7139)"><path
             d="M 0,0 C 5.637,0 10.975,1.269 15.752,3.53 10.975,5.792 5.636,7.061 0,7.061 c -4.109,0 -8.058,-0.682 -11.748,-1.924 3.552,1.741 6.884,4.083 9.836,7.035 3.986,3.986 6.863,8.658 8.643,13.635 C 1.754,24.027 -2.918,21.15 -6.904,17.164 -10.859,13.209 -13.722,8.575 -15.503,3.64 -15.585,3.602 -15.67,3.569 -15.752,3.53 -10.976,1.269 -5.637,0 0,0 m -43.081,-3.825 c -5.637,0 -10.976,-1.27 -15.752,-3.53 4.776,-2.262 10.115,-3.531 15.752,-3.531 4.223,0 8.278,0.713 12.056,2.021 -3.626,-1.75 -7.026,-4.124 -10.035,-7.133 -3.984,-3.984 -6.863,-8.657 -8.641,-13.634 4.977,1.778 9.649,4.657 13.634,8.642 3.972,3.972 6.841,8.627 8.624,13.585 0.037,0.017 0.077,0.032 0.114,0.05 -4.777,2.261 -10.116,3.53 -15.752,3.53 m 0.206,24.693 24.565,-24.566 c 1.32,0.812 2.868,1.289 4.531,1.289 4.782,10e-4 8.659,-3.877 8.659,-8.66 0,-1.609 -0.446,-3.11 -1.211,-4.401 l 11.72,-11.284 c 1.261,0.718 2.716,1.132 4.271,1.132 4.782,0.001 8.659,-3.877 8.659,-8.66 0,-4.782 -3.877,-8.659 -8.659,-8.659 -4.783,0 -8.66,3.877 -8.66,8.659 0,1.408 0.343,2.733 0.939,3.908 l -11.958,11.514 c -0.405,-0.196 -0.824,-0.367 -1.26,-0.498 v -31.486 c 3.739,-0.958 6.507,-4.341 6.507,-8.38 0,-4.782 -3.877,-8.659 -8.66,-8.659 -4.783,0 -8.66,3.877 -8.66,8.659 0,3.785 2.431,6.994 5.813,8.172 v 31.694 c -3.564,1.073 -6.16,4.376 -6.16,8.289 0,1.297 0.293,2.522 0.803,3.627 l -24.779,24.779"
             style="fill:#ffffff;fill-opacity:1;fill-rule:nonzero;stroke:none"
             id="path30"
             inkscape:connector-curvature="0" /></g></g></g></g></svg>