<?xml version="1.0" encoding="UTF-8" standalone="no"?>
<!-- Created with Inkscape (http://www.inkscape.org/) -->

<svg
   xmlns:dc="http://purl.org/dc/elements/1.1/"
   xmlns:cc="http://creativecommons.org/ns#"
   xmlns:rdf="http://www.w3.org/1999/02/22-rdf-syntax-ns#"
   xmlns:svg="http://www.w3.org/2000/svg"
   xmlns="http://www.w3.org/2000/svg"
   xmlns:sodipodi="http://sodipodi.sourceforge.net/DTD/sodipodi-0.dtd"
   xmlns:inkscape="http://www.inkscape.org/namespaces/inkscape"
   version="1.1"
   id="svg2"
   xml:space="preserve"
   width="496.12799"
   height="254.66667"
   viewBox="0 0 496.12799 254.66667"
   sodipodi:docname="gin_variant_b.svg"
   inkscape:version="0.92.3 (2405546, 2018-03-11)"><metadata
     id="metadata8"><rdf:RDF><cc:Work
         rdf:about=""><dc:format>image/svg+xml</dc:format><dc:type
           rdf:resource="http://purl.org/dc/dcmitype/StillImage" /><dc:title></dc:title></cc:Work></rdf:RDF></metadata><defs
     id="defs6"><clipPath
       clipPathUnits="userSpaceOnUse"
       id="clipPath18"><path
         d="M 0,191 H 372.096 V 0 H 0 Z"
         id="path16"
         inkscape:connector-curvature="0" /></clipPath><clipPath
       clipPathUnits="userSpaceOnUse"
       id="clipPath54"><path
         d="M 12.4512,175.203 H 105.363 V 60.0215 H 12.4512 Z"
         id="path52"
         inkscape:connector-curvature="0" /></clipPath><clipPath
       clipPathUnits="userSpaceOnUse"
       id="clipPath58"><path
         d="m 17.832,60.021 c -2.968,0 -5.381,2.414 -5.381,5.38 v 60.227 c 0,0.19 0.01,0.378 0.028,0.562 l 0.031,0.283 -0.03,0.281 c -0.167,1.668 0.414,3.304 1.597,4.486 l 33.586,33.586 v 10.377 h 21.865 v -9.875 l 34.09,-34.089 c 1.089,-1.089 1.662,-2.544 1.614,-4.096 l -0.009,-0.287 0.05,-0.283 c 0.061,-0.344 0.09,-0.653 0.09,-0.945 V 65.401 c 0,-2.966 -2.413,-5.38 -5.38,-5.38 z"
         id="path56"
         inkscape:connector-curvature="0" /></clipPath><clipPath
       clipPathUnits="userSpaceOnUse"
       id="clipPath62"><path
         d="M -32768,32767 H 32767 V -32768 H -32768 Z"
         id="path60"
         inkscape:connector-curvature="0" /></clipPath><linearGradient
       x1="0"
       y1="0"
       x2="1"
       y2="0"
       gradientUnits="userSpaceOnUse"
       gradientTransform="matrix(-5e-6,115.18164,115.18164,5e-6,58.907227,60.021484)"
       spreadMethod="pad"
       id="linearGradient70"><stop
         style="stop-opacity:1;stop-color:#ffffff"
         offset="0"
         id="stop64" /><stop
         style="stop-opacity:0;stop-color:#ffffff"
         offset="0.5"
         id="stop66" /><stop
         style="stop-opacity:1;stop-color:#ffffff"
         offset="1"
         id="stop68" /></linearGradient><mask
       maskUnits="userSpaceOnUse"
       x="0"
       y="0"
       width="1"
       height="1"
       id="mask72"><g
         id="g82"><g
           clip-path="url(#clipPath62)"
           id="g80"><g
             id="g78"><g
               id="g76"><path
                 d="M -32768,32767 H 32767 V -32768 H -32768 Z"
                 style="fill:url(#linearGradient70);stroke:none"
                 id="path74"
                 inkscape:connector-curvature="0" /></g></g></g></g></mask><linearGradient
       x1="0"
       y1="0"
       x2="1"
       y2="0"
       gradientUnits="userSpaceOnUse"
       gradientTransform="matrix(-5e-6,115.18164,115.18164,5e-6,58.907227,60.021484)"
       spreadMethod="pad"
       id="linearGradient90"><stop
         style="stop-opacity:1;stop-color:#50ade5"
         offset="0"
         id="stop84" /><stop
         style="stop-opacity:1;stop-color:#2854a4"
         offset="0.5"
         id="stop86" /><stop
         style="stop-opacity:1;stop-color:#231f20"
         offset="1"
         id="stop88" /></linearGradient><clipPath
       clipPathUnits="userSpaceOnUse"
       id="clipPath116"><path
         d="M 12.2939,175.398 H 105.521 V 59.8262 H 12.2939 Z"
         id="path114"
         inkscape:connector-curvature="0" /></clipPath><clipPath
       clipPathUnits="userSpaceOnUse"
       id="clipPath120"><path
         d="m 17.693,59.826 c -2.977,0 -5.399,2.422 -5.399,5.399 v 60.43 c 0,0.192 0.01,0.379 0.028,0.565 l 0.031,0.283 -0.029,0.282 c -0.169,1.674 0.414,3.315 1.601,4.501 l 33.7,33.699 v 10.413 h 21.938 v -9.908 l 34.207,-34.205 c 1.092,-1.093 1.668,-2.552 1.619,-4.109 l -0.009,-0.288 0.051,-0.284 c 0.06,-0.345 0.09,-0.656 0.09,-0.949 v -60.43 c 0,-2.977 -2.422,-5.399 -5.398,-5.399 z"
         id="path118"
         inkscape:connector-curvature="0" /></clipPath><clipPath
       clipPathUnits="userSpaceOnUse"
       id="clipPath124"><path
         d="M -32768,32767 H 32767 V -32768 H -32768 Z"
         id="path122"
         inkscape:connector-curvature="0" /></clipPath><linearGradient
       x1="0"
       y1="0"
       x2="1"
       y2="0"
       gradientUnits="userSpaceOnUse"
       gradientTransform="matrix(-53.856598,115.49583,115.49583,53.856598,80.40625,50.074219)"
       spreadMethod="pad"
       id="linearGradient132"><stop
         style="stop-opacity:1;stop-color:#ffffff"
         offset="0"
         id="stop126" /><stop
         style="stop-opacity:0;stop-color:#ffffff"
         offset="0.5"
         id="stop128" /><stop
         style="stop-opacity:0;stop-color:#ffffff"
         offset="1"
         id="stop130" /></linearGradient><mask
       maskUnits="userSpaceOnUse"
       x="0"
       y="0"
       width="1"
       height="1"
       id="mask134"><g
         id="g144"><g
           clip-path="url(#clipPath124)"
           id="g142"><g
             id="g140"><g
               id="g138"><path
                 d="M -32768,32767 H 32767 V -32768 H -32768 Z"
                 style="fill:url(#linearGradient132);stroke:none"
                 id="path136"
                 inkscape:connector-curvature="0" /></g></g></g></g></mask><linearGradient
       x1="0"
       y1="0"
       x2="1"
       y2="0"
       gradientUnits="userSpaceOnUse"
       gradientTransform="matrix(-53.856598,115.49583,115.49583,53.856598,80.40625,50.074219)"
       spreadMethod="pad"
       id="linearGradient152"><stop
         style="stop-opacity:1;stop-color:#50ade5"
         offset="0"
         id="stop146" /><stop
         style="stop-opacity:1;stop-color:#2854a4"
         offset="0.5"
         id="stop148" /><stop
         style="stop-opacity:1;stop-color:#2854a4"
         offset="1"
         id="stop150" /></linearGradient><clipPath
       clipPathUnits="userSpaceOnUse"
       id="clipPath178"><path
         d="m 14.801,132.086 c 0,0 -2.349,-2.002 -2.349,-4.062 v 0 -1.173 V 64 H 23.9 v 64.89 c 0,0 -0.106,0.679 0.449,1.562 v 0 c 0.553,0.883 18.732,29.881 18.732,29.881 v 0 z"
         id="path176"
         inkscape:connector-curvature="0" /></clipPath><clipPath
       clipPathUnits="userSpaceOnUse"
       id="clipPath186"><path
         d="M -32768,32767 H 32767 V -32768 H -32768 Z"
         id="path184"
         inkscape:connector-curvature="0" /></clipPath><linearGradient
       x1="0"
       y1="0"
       x2="1"
       y2="0"
       gradientUnits="userSpaceOnUse"
       gradientTransform="matrix(26.786518,-7.1774263,-7.1774263,-26.786518,9.4150391,117.08398)"
       spreadMethod="pad"
       id="linearGradient196"><stop
         style="stop-opacity:1;stop-color:#ffffff"
         offset="0"
         id="stop188" /><stop
         style="stop-opacity:0;stop-color:#ffffff"
         offset="0.844086"
         id="stop190" /><stop
         style="stop-opacity:0.19354543;stop-color:#ffffff"
         offset="0.989247"
         id="stop192" /><stop
         style="stop-opacity:0.19354543;stop-color:#ffffff"
         offset="1"
         id="stop194" /></linearGradient><mask
       maskUnits="userSpaceOnUse"
       x="0"
       y="0"
       width="1"
       height="1"
       id="mask198"><g
         id="g208"><g
           clip-path="url(#clipPath186)"
           id="g206"><g
             id="g204"><g
               id="g202"><path
                 d="M -32768,32767 H 32767 V -32768 H -32768 Z"
                 style="fill:url(#linearGradient196);stroke:none"
                 id="path200"
                 inkscape:connector-curvature="0" /></g></g></g></g></mask><linearGradient
       x1="0"
       y1="0"
       x2="1"
       y2="0"
       gradientUnits="userSpaceOnUse"
       gradientTransform="matrix(26.786518,-7.1774263,-7.1774263,-26.786518,9.4150391,117.08398)"
       spreadMethod="pad"
       id="linearGradient222"><stop
         style="stop-opacity:1;stop-color:#78b7e7"
         offset="0"
         id="stop214" /><stop
         style="stop-opacity:1;stop-color:#2854a4"
         offset="0.844086"
         id="stop216" /><stop
         style="stop-opacity:1;stop-color:#2a58a7"
         offset="0.989247"
         id="stop218" /><stop
         style="stop-opacity:1;stop-color:#2a58a7"
         offset="1"
         id="stop220" /></linearGradient><clipPath
       clipPathUnits="userSpaceOnUse"
       id="clipPath232"><path
         d="M 0,191 H 372.096 V 0 H 0 Z"
         id="path230"
         inkscape:connector-curvature="0" /></clipPath><clipPath
       clipPathUnits="userSpaceOnUse"
       id="clipPath248"><path
         d="m 224.86,165.228 h 20.457 V 144.771 H 224.86 Z"
         id="path246"
         inkscape:connector-curvature="0" /></clipPath><clipPath
       clipPathUnits="userSpaceOnUse"
       id="clipPath252"><path
         d="m 242.321,147.767 c -3.994,-3.996 -10.47,-3.995 -14.465,0 -3.995,3.995 -3.995,10.47 0,14.464 3.995,3.996 10.471,3.996 14.465,0 3.994,-3.993 3.995,-10.469 0,-14.464"
         id="path250"
         inkscape:connector-curvature="0" /></clipPath><clipPath
       clipPathUnits="userSpaceOnUse"
       id="clipPath256"><path
         d="M -32768,32767 H 32767 V -32768 H -32768 Z"
         id="path254"
         inkscape:connector-curvature="0" /></clipPath><linearGradient
       x1="0"
       y1="0"
       x2="1"
       y2="0"
       gradientUnits="userSpaceOnUse"
       gradientTransform="matrix(-14.464615,14.464615,14.464615,14.464615,242.32129,147.7666)"
       spreadMethod="pad"
       id="linearGradient264"><stop
         style="stop-opacity:1;stop-color:#ffffff"
         offset="0"
         id="stop258" /><stop
         style="stop-opacity:0;stop-color:#ffffff"
         offset="0.5"
         id="stop260" /><stop
         style="stop-opacity:0;stop-color:#ffffff"
         offset="1"
         id="stop262" /></linearGradient><mask
       maskUnits="userSpaceOnUse"
       x="0"
       y="0"
       width="1"
       height="1"
       id="mask266"><g
         id="g276"><g
           clip-path="url(#clipPath256)"
           id="g274"><g
             id="g272"><g
               id="g270"><path
                 d="M -32768,32767 H 32767 V -32768 H -32768 Z"
                 style="fill:url(#linearGradient264);stroke:none"
                 id="path268"
                 inkscape:connector-curvature="0" /></g></g></g></g></mask><linearGradient
       x1="0"
       y1="0"
       x2="1"
       y2="0"
       gradientUnits="userSpaceOnUse"
       gradientTransform="matrix(-14.464615,14.464615,14.464615,14.464615,242.32129,147.7666)"
       spreadMethod="pad"
       id="linearGradient284"><stop
         style="stop-opacity:1;stop-color:#50ade5"
         offset="0"
         id="stop278" /><stop
         style="stop-opacity:1;stop-color:#2854a4"
         offset="0.5"
         id="stop280" /><stop
         style="stop-opacity:1;stop-color:#2854a4"
         offset="1"
         id="stop282" /></linearGradient><clipPath
       clipPathUnits="userSpaceOnUse"
       id="clipPath310"><path
         d="m 227.459,162.631 c -2.67,-2.669 -3.505,-6.158 -1.867,-7.793 v 0 c 1.636,-1.639 5.125,-0.802 7.791,1.867 v 0 c 2.669,2.667 3.505,6.155 1.87,7.793 v 0 c -0.567,0.567 -1.356,0.837 -2.256,0.837 v 0 c -1.699,0 -3.794,-0.961 -5.538,-2.704"
         id="path308"
         inkscape:connector-curvature="0" /></clipPath><clipPath
       clipPathUnits="userSpaceOnUse"
       id="clipPath318"><path
         d="M -32768,32767 H 32767 V -32768 H -32768 Z"
         id="path316"
         inkscape:connector-curvature="0" /></clipPath><radialGradient
       fx="0"
       fy="0"
       cx="0"
       cy="0"
       r="1"
       gradientUnits="userSpaceOnUse"
       gradientTransform="matrix(2.9629476,-2.9629443,-4.8299408,-4.8299379,228.72266,161.02734)"
       spreadMethod="pad"
       id="radialGradient330"><stop
         style="stop-opacity:1;stop-color:#ffffff"
         offset="0"
         id="stop320" /><stop
         style="stop-opacity:1;stop-color:#ffffff"
         offset="0.63747715"
         id="stop322" /><stop
         style="stop-opacity:0;stop-color:#ffffff"
         offset="0.844086"
         id="stop324" /><stop
         style="stop-opacity:0.19354543;stop-color:#ffffff"
         offset="0.989247"
         id="stop326" /><stop
         style="stop-opacity:0.19354543;stop-color:#ffffff"
         offset="1"
         id="stop328" /></radialGradient><mask
       maskUnits="userSpaceOnUse"
       x="0"
       y="0"
       width="1"
       height="1"
       id="mask332"><g
         id="g342"><g
           clip-path="url(#clipPath318)"
           id="g340"><g
             id="g338"><g
               id="g336"><path
                 d="M -32768,32767 H 32767 V -32768 H -32768 Z"
                 style="fill:url(#radialGradient330);stroke:none"
                 id="path334"
                 inkscape:connector-curvature="0" /></g></g></g></g></mask><radialGradient
       fx="0"
       fy="0"
       cx="0"
       cy="0"
       r="1"
       gradientUnits="userSpaceOnUse"
       gradientTransform="matrix(2.9629476,-2.9629443,-4.8299408,-4.8299379,228.72266,161.02734)"
       spreadMethod="pad"
       id="radialGradient358"><stop
         style="stop-opacity:1;stop-color:#78b7e7"
         offset="0"
         id="stop348" /><stop
         style="stop-opacity:1;stop-color:#78b7e7"
         offset="0.63747715"
         id="stop350" /><stop
         style="stop-opacity:1;stop-color:#2854a4"
         offset="0.844086"
         id="stop352" /><stop
         style="stop-opacity:1;stop-color:#2a58a7"
         offset="0.989247"
         id="stop354" /><stop
         style="stop-opacity:1;stop-color:#2a58a7"
         offset="1"
         id="stop356" /></radialGradient></defs><sodipodi:namedview
     pagecolor="#ffffff"
     bordercolor="#666666"
     borderopacity="1"
     objecttolerance="10"
     gridtolerance="10"
     guidetolerance="10"
     inkscape:pageopacity="0"
     inkscape:pageshadow="2"
     inkscape:window-width="806"
     inkscape:window-height="480"
     id="namedview4"
     showgrid="false"
     inkscape:zoom="0.68933825"
     inkscape:cx="79.061332"
     inkscape:cy="127.33334"
     inkscape:window-x="47"
     inkscape:window-y="27"
     inkscape:window-maximized="0"
     inkscape:current-layer="g10" /><g
     id="g10"
     inkscape:groupmode="layer"
     inkscape:label="gin_variants"
     transform="matrix(1.3333333,0,0,-1.3333333,0,254.66667)"><g
       id="g12"><g
         id="g14"
         clip-path="url(#clipPath18)"><g
           id="g20"
           transform="translate(174.6699,110.5313)"><path
             d="m 0,0 c 0,7.506 -2.252,12.385 -4.129,14.824 -1.688,2.064 -4.315,3.753 -8.819,3.753 -3.941,0 -7.319,-1.313 -10.133,-4.691 C -27.209,8.631 -28.335,0 -28.335,-7.318 c 0,-6.006 1.502,-12.01 4.691,-14.825 2.627,-2.627 5.442,-4.128 10.696,-4.128 C -3.19,-26.271 0,-13.324 0,0 m -25.708,-66.239 c -5.254,-1.501 -11.447,-7.505 -11.447,-15.011 0,-5.254 3.191,-10.883 6.756,-12.949 5.817,-3.377 11.072,-4.502 21.955,-4.502 9.757,0 25.894,5.629 25.519,16.699 0,10.885 -7.881,17.639 -25.894,16.889 z m -18.765,-33.964 c -6.755,3.941 -9.381,8.818 -9.381,14.824 0,10.133 10.507,17.264 19.515,21.016 v 1.127 c -8.258,1.875 -12.762,7.881 -12.762,13.884 0,10.133 10.51,16.514 16.139,19.141 v 0.375 c -7.131,4.129 -16.139,12.009 -16.139,27.959 0,12.385 10.51,27.398 34.715,27.398 16.139,0 23.645,-8.633 25.521,-10.697 4.503,3.565 11.071,6.944 15.95,6.944 6.943,0 10.133,-4.129 9.758,-9.008 0,-3.752 -3.379,-7.506 -7.506,-7.506 -2.815,0 -4.691,1.502 -5.817,2.627 -1.501,1.127 -3.002,2.252 -4.503,2.252 -1.127,0 -3.003,0 -4.504,-1.125 1.125,-2.252 2.252,-6.381 2.252,-12.386 0,-7.317 -2.252,-14.823 -7.882,-20.828 -6.005,-6.38 -15.012,-8.632 -23.831,-8.632 -4.129,0 -6.755,0 -10.696,0.75 -3.377,-1.501 -8.068,-4.879 -8.068,-9.382 0,-7.506 7.13,-7.506 23.643,-6.756 14.261,0.751 23.643,-0.374 31.9,-7.129 7.506,-5.629 9.383,-12.76 9.383,-18.389 0,-8.258 -3.379,-15.387 -11.635,-21.768 -6.005,-4.879 -19.141,-10.884 -36.779,-10.508 -9.007,0 -21.016,1.125 -29.273,5.817"
             style="fill:#393536;fill-opacity:1;fill-rule:nonzero;stroke:none"
             id="path22"
             inkscape:connector-curvature="0" /></g><g
           id="g24"
           transform="translate(228.333,109.0303)"><path
             d="m 0,0 c 0,5.629 -1.127,9.382 -9.758,11.634 -1.687,0.375 -1.875,0.938 -1.875,1.689 v 2.064 c 0,0.751 0.375,1.126 1.313,1.501 2.627,1.127 21.205,7.693 24.396,9.007 1.875,0.751 3.377,1.126 4.5,1.126 1.129,0 1.692,-0.75 1.502,-2.252 C 19.705,21.767 19.705,9.758 19.705,-5.817 v -20.266 c 0,-7.131 0,-13.886 0.373,-16.138 0.375,-3.377 1.127,-4.878 3.004,-4.878 h 7.506 c 1.5,0 1.875,-0.376 1.875,-1.314 v -3.754 c 0,-1.125 -0.375,-1.875 -1.5,-1.875 -1.502,0 -10.133,0.563 -22.707,0.563 -10.883,0 -18.014,-0.563 -20.266,-0.563 -0.937,0 -1.5,0.375 -1.5,1.875 v 3.566 c 0,1.126 0.75,1.502 1.877,1.502 h 8.256 c 1.877,0 2.815,0.75 3.002,3.752 C -0.187,-37.718 0,-31.712 0,-26.458 Z"
             style="fill:#393536;fill-opacity:1;fill-rule:nonzero;stroke:none"
             id="path26"
             inkscape:connector-curvature="0" /></g><g
           id="g28"
           transform="translate(291.1943,134.5508)"><path
             d="m 0,0 c 1.502,0.75 2.625,1.501 3.75,1.501 1.127,0 1.879,-0.751 2.252,-2.253 l 1.502,-9.757 h 1.127 c 2.252,2.626 5.629,5.63 9.383,7.506 4.502,2.627 9.382,4.504 15.011,4.504 6.379,0 12.385,-1.127 16.514,-4.504 8.254,-6.005 10.32,-11.634 10.32,-19.328 v -27.022 c 0,-6.004 -0.187,-14.26 -0.187,-18.013 0,-4.128 2.252,-5.253 4.502,-5.253 h 5.254 c 1.689,0 2.252,-0.376 2.252,-1.315 v -4.316 c 0,-0.938 -0.377,-1.313 -1.5,-1.313 -1.502,0 -7.131,0.563 -20.268,0.563 -11.258,0 -17.264,-0.563 -18.389,-0.563 -1.125,0 -1.5,0.75 -1.5,2.252 v 3.19 c 0,1.126 0.375,1.502 2.252,1.502 h 3.752 c 1.502,0 3.002,1.125 3.377,4.503 0.563,4.878 0.752,10.133 0.752,17.637 v 21.581 c 0,7.505 -0.377,12.384 -4.881,16.137 -3.752,3.378 -7.13,3.378 -11.257,3.378 -3,0 -7.506,-0.751 -12.01,-4.879 -3.002,-3.002 -3.94,-8.256 -3.94,-13.322 V -66.24 c 0,-4.128 0.938,-6.379 3.563,-6.379 h 3.381 c 1.5,0 1.875,-0.376 1.875,-1.69 v -3.379 c 0,-1.125 -0.375,-1.875 -1.498,-1.875 -1.129,0 -6.383,0.563 -17.641,0.563 -11.635,0 -17.641,-0.563 -18.766,-0.563 -0.75,0 -1.125,0.75 -1.125,1.875 v 3.567 c 0,1.126 0.375,1.502 1.875,1.502 h 3.754 c 2.25,0 4.879,0.75 4.879,3.752 v 42.221 c 0,5.628 -3.377,8.63 -7.881,10.883 l -1.502,0.751 c -1.125,0.375 -1.502,1.125 -1.502,1.875 v 1.502 c 0,0.75 0.752,1.501 1.879,1.877 z"
             style="fill:#393536;fill-opacity:1;fill-rule:nonzero;stroke:none"
             id="path30"
             inkscape:connector-curvature="0" /></g><g
           id="g32"
           transform="translate(249.1162,142.9512)"><path
             d="M 0,0 C 6.14,-2.907 13.002,-4.538 20.247,-4.539 27.493,-4.538 34.356,-2.908 40.495,0 34.355,2.906 27.492,4.538 20.248,4.538 13.003,4.538 6.14,2.904 0,0"
             style="fill:#2854a4;fill-opacity:1;fill-rule:nonzero;stroke:none"
             id="path34"
             inkscape:connector-curvature="0" /></g><g
           id="g36"
           transform="translate(249.1162,142.9512)"><path
             d="m 0,0 c 6.396,2.286 12.402,5.984 17.525,11.108 5.123,5.124 8.825,11.13 11.108,17.527 C 22.237,26.349 16.23,22.649 11.109,17.527 5.985,12.404 2.287,6.396 0,0"
             style="fill:#2854a4;fill-opacity:1;fill-rule:nonzero;stroke:none"
             id="path38"
             inkscape:connector-curvature="0" /></g><g
           id="g40"
           transform="translate(109.0508,127.2578)"><path
             d="M 0,0 C 0.07,2.263 -0.75,4.549 -2.478,6.276 L -36.462,40.26 v 6.076 h 1.69 c 3,0 5.431,2.432 5.431,5.432 0,3 -2.431,5.431 -5.431,5.431 h -31.381 c -3,0 -5.432,-2.431 -5.432,-5.431 0,-3 2.432,-5.432 5.432,-5.432 h 1.691 v -6.59 L -97.933,6.276 c -1.879,-1.879 -2.692,-4.418 -2.445,-6.87 -0.029,-0.284 -0.045,-0.573 -0.045,-0.865 v -61.508 c 0,-4.601 3.729,-8.33 8.33,-8.33 h 83.9 c 4.6,0 8.329,3.729 8.329,8.33 V -1.459 C 0.136,-0.96 0.084,-0.475 0,0"
             style="fill:#2854a4;fill-opacity:1;fill-rule:nonzero;stroke:none"
             id="path42"
             inkscape:connector-curvature="0" /></g><g
           id="g44"
           transform="translate(109.0508,127.2578)"><path
             d="M 0,0 C 0.07,2.263 -0.75,4.549 -2.478,6.276 L -36.462,40.26 v 6.076 h 1.69 c 3,0 5.431,2.432 5.431,5.432 0,3 -2.431,5.431 -5.431,5.431 h -31.381 c -3,0 -5.432,-2.431 -5.432,-5.431 0,-3 2.432,-5.432 5.432,-5.432 h 1.691 v -6.59 L -97.933,6.276 c -1.879,-1.879 -2.692,-4.418 -2.445,-6.87 -0.029,-0.284 -0.045,-0.573 -0.045,-0.865 v -61.508 c 0,-4.601 3.729,-8.33 8.33,-8.33 h 83.9 c 4.6,0 8.329,3.729 8.329,8.33 V -1.459 C 0.136,-0.96 0.084,-0.475 0,0"
             style="fill:#2854a4;fill-opacity:1;fill-rule:nonzero;stroke:none"
             id="path46"
             inkscape:connector-curvature="0" /></g><g
           id="g48"><g
             id="g50" /><g
             id="g108"><g
               clip-path="url(#clipPath54)"
               id="g106"
               style="opacity:0.5"><g
                 id="g104"><g
                   clip-path="url(#clipPath58)"
                   id="g102"><g
                     id="g100"><g
                       id="g92" /><g
                       mask="url(#mask72)"
                       id="g98"><g
                         id="g96"><path
                           d="m 17.832,60.021 c -2.968,0 -5.381,2.414 -5.381,5.38 v 60.227 c 0,0.19 0.01,0.378 0.028,0.562 l 0.031,0.283 -0.03,0.281 c -0.167,1.668 0.414,3.304 1.597,4.486 l 33.586,33.586 v 10.377 h 21.865 v -9.875 l 34.09,-34.089 c 1.089,-1.089 1.662,-2.544 1.614,-4.096 l -0.009,-0.287 0.05,-0.283 c 0.061,-0.344 0.09,-0.653 0.09,-0.945 V 65.401 c 0,-2.966 -2.413,-5.38 -5.38,-5.38 z"
                           style="fill:url(#linearGradient90);stroke:none"
                           id="path94"
                           inkscape:connector-curvature="0" /></g></g></g></g></g></g></g></g><g
           id="g110"><g
             id="g112" /><g
             id="g170"><g
               clip-path="url(#clipPath116)"
               id="g168"
               style="opacity:0.5"><g
                 id="g166"><g
                   clip-path="url(#clipPath120)"
                   id="g164"><g
                     id="g162"><g
                       id="g154" /><g
                       mask="url(#mask134)"
                       id="g160"><g
                         id="g158"><path
                           d="m 17.693,59.826 c -2.977,0 -5.399,2.422 -5.399,5.399 v 60.43 c 0,0.192 0.01,0.379 0.028,0.565 l 0.031,0.283 -0.029,0.282 c -0.169,1.674 0.414,3.315 1.601,4.501 l 33.7,33.699 v 10.413 h 21.938 v -9.908 l 34.207,-34.205 c 1.092,-1.093 1.668,-2.552 1.619,-4.109 l -0.009,-0.288 0.051,-0.284 c 0.06,-0.345 0.09,-0.656 0.09,-0.949 v -60.43 c 0,-2.977 -2.422,-5.399 -5.398,-5.399 z"
                           style="fill:url(#linearGradient152);stroke:none"
                           id="path156"
                           inkscape:connector-curvature="0" /></g></g></g></g></g></g></g></g></g></g><g
       id="g172"><g
         id="g174"
         clip-path="url(#clipPath178)"><g
           id="g180"><g
             id="g182" /><g
             id="g210"
             mask="url(#mask198)"><g
               id="g212"><path
                 d="m 14.801,132.086 c 0,0 -2.349,-2.002 -2.349,-4.062 v 0 -1.173 V 64 H 23.9 v 64.89 c 0,0 -0.106,0.679 0.449,1.562 v 0 c 0.553,0.883 18.732,29.881 18.732,29.881 v 0 z"
                 style="fill:url(#linearGradient222);stroke:none"
                 id="path224"
                 inkscape:connector-curvature="0" /></g></g></g></g></g><g
       id="g226"><g
         id="g228"
         clip-path="url(#clipPath232)"><g
           id="g234"
           transform="translate(73.0205,131.6885)"><path
             d="M 0,0 C 5.637,0 10.975,1.269 15.752,3.53 10.975,5.792 5.636,7.061 0,7.061 c -4.109,0 -8.058,-0.682 -11.748,-1.924 3.552,1.741 6.884,4.083 9.836,7.035 3.986,3.986 6.863,8.658 8.643,13.635 C 1.754,24.027 -2.918,21.15 -6.904,17.164 -10.859,13.209 -13.722,8.575 -15.503,3.64 -15.585,3.602 -15.67,3.569 -15.752,3.53 -10.976,1.269 -5.637,0 0,0 m -43.081,-3.825 c -5.637,0 -10.976,-1.27 -15.752,-3.53 4.776,-2.262 10.115,-3.531 15.752,-3.531 4.223,0 8.278,0.713 12.056,2.021 -3.626,-1.75 -7.026,-4.124 -10.035,-7.133 -3.984,-3.984 -6.863,-8.657 -8.641,-13.634 4.977,1.778 9.649,4.657 13.634,8.642 3.972,3.972 6.841,8.627 8.624,13.585 0.037,0.017 0.077,0.032 0.114,0.05 -4.777,2.261 -10.116,3.53 -15.752,3.53 m 0.206,24.693 24.565,-24.566 c 1.32,0.812 2.868,1.289 4.531,1.289 4.782,10e-4 8.659,-3.877 8.659,-8.66 0,-1.609 -0.446,-3.11 -1.211,-4.401 l 11.72,-11.284 c 1.261,0.718 2.716,1.132 4.271,1.132 4.782,0.001 8.659,-3.877 8.659,-8.66 0,-4.782 -3.877,-8.659 -8.659,-8.659 -4.783,0 -8.66,3.877 -8.66,8.659 0,1.408 0.343,2.733 0.939,3.908 l -11.958,11.514 c -0.405,-0.196 -0.824,-0.367 -1.26,-0.498 v -31.486 c 3.739,-0.958 6.507,-4.341 6.507,-8.38 0,-4.782 -3.877,-8.659 -8.66,-8.659 -4.783,0 -8.66,3.877 -8.66,8.659 0,3.785 2.431,6.994 5.813,8.172 v 31.694 c -3.564,1.073 -6.16,4.376 -6.16,8.289 0,1.297 0.293,2.522 0.803,3.627 l -24.779,24.779"
             style="fill:#ffffff;fill-opacity:1;fill-rule:nonzero;stroke:none"
             id="path236"
             inkscape:connector-curvature="0" /></g><g
           id="g238"
           transform="translate(248.0732,154.999)"><path
             d="m 0,0 c 0,-7.171 -5.813,-12.984 -12.984,-12.984 -7.171,0 -12.985,5.813 -12.985,12.984 0,7.171 5.814,12.984 12.985,12.984 C -5.813,12.984 0,7.171 0,0"
             style="fill:#2854a4;fill-opacity:1;fill-rule:nonzero;stroke:none"
             id="path240"
             inkscape:connector-curvature="0" /></g><g
           id="g242"><g
             id="g244" /><g
             id="g302"><g
               clip-path="url(#clipPath248)"
               id="g300"
               style="opacity:0.5"><g
                 id="g298"><g
                   clip-path="url(#clipPath252)"
                   id="g296"><g
                     id="g294"><g
                       id="g286" /><g
                       mask="url(#mask266)"
                       id="g292"><g
                         id="g290"><path
                           d="m 242.321,147.767 c -3.994,-3.996 -10.47,-3.995 -14.465,0 -3.995,3.995 -3.995,10.47 0,14.464 3.995,3.996 10.471,3.996 14.465,0 3.994,-3.993 3.995,-10.469 0,-14.464"
                           style="fill:url(#linearGradient284);stroke:none"
                           id="path288"
                           inkscape:connector-curvature="0" /></g></g></g></g></g></g></g></g></g></g><g
       id="g304"><g
         id="g306"
         clip-path="url(#clipPath310)"><g
           id="g312"><g
             id="g314" /><g
             id="g344"
             mask="url(#mask332)"><g
               id="g346"><path
                 d="m 227.459,162.631 c -2.67,-2.669 -3.505,-6.158 -1.867,-7.793 v 0 c 1.636,-1.639 5.125,-0.802 7.791,1.867 v 0 c 2.669,2.667 3.505,6.155 1.87,7.793 v 0 c -0.567,0.567 -1.356,0.837 -2.256,0.837 v 0 c -1.699,0 -3.794,-0.961 -5.538,-2.704"
                 style="fill:url(#radialGradient358);stroke:none"
                 id="path360"
                 inkscape:connector-curvature="0" /></g></g></g></g></g></g></svg>