<?xml version="1.0" encoding="UTF-8" standalone="no"?>
<!-- Created with Inkscape (http://www.inkscape.org/) -->

<svg
   xmlns:dc="http://purl.org/dc/elements/1.1/"
   xmlns:cc="http://creativecommons.org/ns#"
   xmlns:rdf="http://www.w3.org/1999/02/22-rdf-syntax-ns#"
   xmlns:svg="http://www.w3.org/2000/svg"
   xmlns="http://www.w3.org/2000/svg"
   xmlns:sodipodi="http://sodipodi.sourceforge.net/DTD/sodipodi-0.dtd"
   xmlns:inkscape="http://www.inkscape.org/namespaces/inkscape"
   version="1.1"
   id="svg2"
   xml:space="preserve"
   width="465.12"
   height="238.75"
   viewBox="0 0 465.12 238.75"
   sodipodi:docname="gin_text.svg"
   inkscape:version="0.92.3 (2405546, 2018-03-11)"><metadata
     id="metadata8"><rdf:RDF><cc:Work
         rdf:about=""><dc:format>image/svg+xml</dc:format><dc:type
           rdf:resource="http://purl.org/dc/dcmitype/StillImage" /><dc:title></dc:title></cc:Work></rdf:RDF></metadata><defs
     id="defs6"><clipPath
       clipPathUnits="userSpaceOnUse"
       id="clipPath24"><path
         d="M 0,0 H 349 V 180 H 0 Z"
         id="path22"
         inkscape:connector-curvature="0" /></clipPath></defs><sodipodi:namedview
     pagecolor="#ffffff"
     bordercolor="#666666"
     borderopacity="1"
     objecttolerance="10"
     gridtolerance="10"
     guidetolerance="10"
     inkscape:pageopacity="0"
     inkscape:pageshadow="2"
     inkscape:window-width="806"
     inkscape:window-height="480"
     id="namedview4"
     showgrid="false"
     inkscape:zoom="0.73529413"
     inkscape:cx="74.119999"
     inkscape:cy="119.375"
     inkscape:window-x="47"
     inkscape:window-y="27"
     inkscape:window-maximized="0"
     inkscape:current-layer="g10" /><g
     id="g10"
     inkscape:groupmode="layer"
     inkscape:label="gin_text"
     transform="matrix(1.3333333,0,0,1.3333333,0,5.96875e-6)"><g
       id="g12" /><g
       id="g14"><g
         id="g16"><g
           id="g18"><g
             id="g20"
             clip-path="url(#clipPath24)"><g
               id="g26"><path
                 d="m 163.754,75.438 c 0,-7.036 -2.113,-11.61 -3.871,-13.895 -1.582,-1.938 -4.047,-3.52 -8.27,-3.52 -3.695,0 -6.859,1.231 -9.5,4.399 -3.867,4.926 -4.925,13.016 -4.925,19.879 0,5.629 1.41,11.258 4.398,13.898 2.465,2.461 5.102,3.871 10.027,3.871 9.149,0 12.141,-12.14 12.141,-24.632 m -24.102,62.101 c -4.925,1.406 -10.73,7.035 -10.73,14.07 0,4.926 2.988,10.203 6.332,12.141 5.453,3.168 10.379,4.223 20.582,4.223 9.148,0 24.277,-5.278 23.926,-15.657 0,-10.203 -7.391,-16.535 -24.278,-15.832 z m -17.593,31.84 c -6.332,-3.695 -8.793,-8.266 -8.793,-13.899 0,-9.496 9.847,-16.183 18.293,-19.699 v -1.058 c -7.743,-1.758 -11.961,-7.387 -11.961,-13.016 0,-9.5 9.851,-15.48 15.129,-17.945 v -0.352 c -6.688,-3.871 -15.129,-11.258 -15.129,-26.211 0,-11.609 9.851,-25.687 32.543,-25.687 15.129,0 22.168,8.093 23.925,10.031 4.223,-3.344 10.379,-6.512 14.954,-6.512 6.507,0 9.5,3.871 9.148,8.446 0,3.519 -3.168,7.039 -7.035,7.039 -2.641,0 -4.399,-1.411 -5.453,-2.465 -1.41,-1.055 -2.817,-2.11 -4.223,-2.11 -1.059,0 -2.816,0 -4.223,1.055 1.055,2.109 2.11,5.981 2.11,11.609 0,6.86 -2.11,13.899 -7.387,19.528 -5.633,5.98 -14.074,8.094 -22.344,8.094 -3.871,0 -6.332,0 -10.027,-0.704 -3.164,1.407 -7.563,4.575 -7.563,8.793 0,7.039 6.684,7.039 22.165,6.336 13.371,-0.707 22.167,0.348 29.906,6.684 7.039,5.277 8.797,11.961 8.797,17.238 0,7.742 -3.168,14.426 -10.907,20.406 -5.629,4.575 -17.945,10.208 -34.48,9.852 -8.445,0 -19.703,-1.055 -27.445,-5.453"
                 style="fill:#393536;fill-opacity:1;fill-rule:nonzero;stroke:none"
                 id="path28"
                 inkscape:connector-curvature="0" /><path
                 d="m 214.062,76.848 c 0,-5.278 -1.058,-8.797 -9.148,-10.907 -1.582,-0.351 -1.758,-0.882 -1.758,-1.586 v -1.933 c 0,-0.703 0.352,-1.055 1.231,-1.406 2.465,-1.059 19.879,-7.215 22.871,-8.446 1.758,-0.703 3.168,-1.054 4.219,-1.054 1.058,0 1.585,0.703 1.41,2.109 -0.352,2.816 -0.352,14.074 -0.352,28.676 v 19 c 0,6.683 0,13.015 0.352,15.129 0.351,3.164 1.054,4.57 2.816,4.57 h 7.035 c 1.407,0 1.758,0.355 1.758,1.234 v 3.52 c 0,1.055 -0.351,1.758 -1.406,1.758 -1.406,0 -9.5,-0.528 -21.289,-0.528 -10.203,0 -16.887,0.528 -18.996,0.528 -0.879,0 -1.407,-0.352 -1.407,-1.758 v -3.344 c 0,-1.055 0.704,-1.41 1.758,-1.41 h 7.739 c 1.761,0 2.64,-0.703 2.816,-3.516 0.176,-5.277 0.351,-10.906 0.351,-15.832 z"
                 style="fill:#393536;fill-opacity:1;fill-rule:nonzero;stroke:none"
                 id="path30"
                 inkscape:connector-curvature="0" /><path
                 d="m 272.996,52.922 c 1.406,-0.703 2.461,-1.406 3.516,-1.406 1.054,0 1.761,0.703 2.109,2.109 l 1.41,9.148 h 1.055 c 2.113,-2.461 5.277,-5.277 8.797,-7.035 4.219,-2.465 8.797,-4.222 14.074,-4.222 5.981,0 11.609,1.054 15.481,4.222 7.738,5.629 9.675,10.907 9.675,18.117 v 25.336 c 0,5.625 -0.175,13.368 -0.175,16.887 0,3.867 2.109,4.922 4.218,4.922 h 4.926 c 1.586,0 2.113,0.355 2.113,1.234 v 4.047 c 0,0.879 -0.355,1.231 -1.406,1.231 -1.41,0 -6.687,-0.528 -19,-0.528 -10.555,0 -16.187,0.528 -17.242,0.528 -1.055,0 -1.406,-0.703 -1.406,-2.114 v -2.988 c 0,-1.055 0.351,-1.41 2.113,-1.41 h 3.516 c 1.41,0 2.816,-1.055 3.168,-4.219 0.527,-4.574 0.703,-9.5 0.703,-16.535 V 80.012 c 0,-7.035 -0.352,-11.61 -4.575,-15.129 -3.519,-3.164 -6.687,-3.164 -10.554,-3.164 -2.813,0 -7.035,0.703 -11.258,4.574 -2.816,2.812 -3.695,7.738 -3.695,12.488 v 36.239 c 0,3.871 0.879,5.98 3.339,5.98 h 3.172 c 1.407,0 1.758,0.355 1.758,1.586 v 3.168 c 0,1.055 -0.351,1.758 -1.406,1.758 -1.059,0 -5.984,-0.528 -16.539,-0.528 -10.906,0 -16.539,0.528 -17.594,0.528 -0.703,0 -1.055,-0.703 -1.055,-1.758 v -3.344 c 0,-1.055 0.352,-1.41 1.758,-1.41 h 3.52 c 2.109,0 4.574,-0.703 4.574,-3.516 V 77.902 c 0,-5.277 -3.164,-8.09 -7.387,-10.203 l -1.41,-0.703 c -1.055,-0.351 -1.406,-1.055 -1.406,-1.758 v -1.41 c 0,-0.703 0.703,-1.406 1.762,-1.758 z"
                 style="fill:#393536;fill-opacity:1;fill-rule:nonzero;stroke:none"
                 id="path32"
                 inkscape:connector-curvature="0" /><path
                 d="m 233.547,45.047 c 5.754,2.723 12.187,4.254 18.98,4.254 6.793,0 13.227,-1.528 18.985,-4.254 -5.758,-2.727 -12.192,-4.254 -18.985,-4.254 -6.789,0 -13.226,1.531 -18.98,4.254"
                 style="fill:#2854a4;fill-opacity:1;fill-rule:nonzero;stroke:none"
                 id="path34"
                 inkscape:connector-curvature="0" /><path
                 d="m 233.547,45.047 c 5.996,-2.145 11.625,-5.609 16.43,-10.414 4.8,-4.805 8.273,-10.434 10.414,-16.434 -5.996,2.145 -11.629,5.613 -16.43,10.414 -4.805,4.805 -8.27,10.438 -10.414,16.434"
                 style="fill:#2854a4;fill-opacity:1;fill-rule:nonzero;stroke:none"
                 id="path36"
                 inkscape:connector-curvature="0" /><path
                 d="m 102.234,59.758 c 0.067,-2.121 -0.703,-4.266 -2.324,-5.883 L 68.051,22.016 v -5.7 h 1.586 c 2.812,0 5.09,-2.277 5.09,-5.089 0,-2.813 -2.278,-5.094 -5.09,-5.094 H 40.215 c -2.813,0 -5.09,2.281 -5.09,5.094 0,2.812 2.277,5.089 5.09,5.089 h 1.586 v 6.18 L 10.422,53.875 C 8.66,55.637 7.898,58.016 8.129,60.316 8.105,60.582 8.09,60.852 8.09,61.125 v 57.664 c 0,4.313 3.496,7.809 7.808,7.809 h 78.657 c 4.312,0 7.808,-3.496 7.808,-7.809 V 61.125 c 0,-0.465 -0.051,-0.922 -0.129,-1.367"
                 style="fill:#2854a4;fill-opacity:1;fill-rule:nonzero;stroke:none"
                 id="path38"
                 inkscape:connector-curvature="0" /><path
                 d="m 102.234,59.758 c 0.067,-2.121 -0.703,-4.266 -2.324,-5.883 L 68.051,22.016 v -5.7 h 1.586 c 2.812,0 5.09,-2.277 5.09,-5.089 0,-2.813 -2.278,-5.094 -5.09,-5.094 H 40.215 c -2.813,0 -5.09,2.281 -5.09,5.094 0,2.812 2.277,5.089 5.09,5.089 h 1.586 v 6.18 L 10.422,53.875 C 8.66,55.637 7.898,58.016 8.129,60.316 8.105,60.582 8.09,60.852 8.09,61.125 v 57.664 c 0,4.313 3.496,7.809 7.808,7.809 h 78.657 c 4.312,0 7.808,-3.496 7.808,-7.809 V 61.125 c 0,-0.465 -0.051,-0.922 -0.129,-1.367"
                 style="fill:#2854a4;fill-opacity:1;fill-rule:nonzero;stroke:none"
                 id="path40"
                 inkscape:connector-curvature="0" /><path
                 d="m 68.457,55.605 c 5.285,0 10.289,-1.191 14.766,-3.308 -4.477,-2.121 -9.481,-3.313 -14.766,-3.313 -3.852,0 -7.555,0.641 -11.016,1.805 3.332,-1.633 6.457,-3.828 9.223,-6.598 3.738,-3.734 6.434,-8.113 8.102,-12.781 -4.664,1.668 -9.043,4.367 -12.782,8.102 -3.707,3.711 -6.39,8.054 -8.062,12.679 -0.074,0.036 -0.156,0.067 -0.234,0.106 4.48,2.117 9.484,3.308 14.769,3.308 m -40.391,3.586 c -5.281,0 -10.289,1.192 -14.765,3.309 4.476,2.121 9.484,3.309 14.765,3.309 3.961,0 7.762,-0.668 11.305,-1.895 -3.398,1.641 -6.586,3.867 -9.406,6.688 -3.738,3.734 -6.438,8.117 -8.102,12.781 4.664,-1.664 9.043,-4.363 12.782,-8.102 3.722,-3.722 6.414,-8.086 8.085,-12.734 0.032,-0.016 0.071,-0.031 0.106,-0.047 -4.481,-2.121 -9.484,-3.309 -14.77,-3.309 M 28.262,36.039 51.293,59.07 c 1.234,-0.761 2.687,-1.207 4.246,-1.207 4.484,0 8.117,3.633 8.117,8.117 0,1.508 -0.418,2.918 -1.136,4.129 l 10.988,10.579 c 1.183,-0.676 2.547,-1.063 4.004,-1.063 4.484,0 8.117,3.637 8.117,8.117 0,4.485 -3.633,8.121 -8.117,8.121 -4.485,0 -8.117,-3.636 -8.117,-8.121 0,-1.316 0.32,-2.558 0.878,-3.66 L 59.062,73.285 c -0.378,0.184 -0.769,0.344 -1.179,0.469 v 29.516 c 3.504,0.898 6.101,4.07 6.101,7.859 0,4.48 -3.636,8.117 -8.121,8.117 -4.484,0 -8.117,-3.637 -8.117,-8.117 0,-3.551 2.277,-6.559 5.449,-7.664 V 73.754 c -3.34,-1.008 -5.773,-4.106 -5.773,-7.774 0,-1.214 0.273,-2.363 0.75,-3.398 L 24.941,39.352"
                 style="fill:#ffffff;fill-opacity:1;fill-rule:nonzero;stroke:none"
                 id="path42"
                 inkscape:connector-curvature="0" /><path
                 d="m 232.57,33.75 c 0,6.723 -5.453,12.172 -12.175,12.172 -6.723,0 -12.172,-5.449 -12.172,-12.172 0,-6.723 5.449,-12.172 12.172,-12.172 6.722,0 12.175,5.449 12.175,12.172"
                 style="fill:#2854a4;fill-opacity:1;fill-rule:nonzero;stroke:none"
                 id="path44"
                 inkscape:connector-curvature="0" /></g></g></g></g></g></g></svg>