<?xml version="1.0" encoding="UTF-8" standalone="no"?>
<!-- Created with Inkscape (http://www.inkscape.org/) -->

<svg
   xmlns:dc="http://purl.org/dc/elements/1.1/"
   xmlns:cc="http://creativecommons.org/ns#"
   xmlns:rdf="http://www.w3.org/1999/02/22-rdf-syntax-ns#"
   xmlns:svg="http://www.w3.org/2000/svg"
   xmlns="http://www.w3.org/2000/svg"
   xmlns:sodipodi="http://sodipodi.sourceforge.net/DTD/sodipodi-0.dtd"
   xmlns:inkscape="http://www.inkscape.org/namespaces/inkscape"
   version="1.1"
   id="svg2"
   xml:space="preserve"
   width="171.29201"
   height="171.29201"
   viewBox="0 0 171.29201 171.29201"
   sodipodi:docname="gin_variant_c.svg"
   inkscape:version="0.92.3 (2405546, 2018-03-11)"><metadata
     id="metadata8"><rdf:RDF><cc:Work
         rdf:about=""><dc:format>image/svg+xml</dc:format><dc:type
           rdf:resource="http://purl.org/dc/dcmitype/StillImage" /><dc:title></dc:title></cc:Work></rdf:RDF></metadata><defs
     id="defs6"><clipPath
       clipPathUnits="userSpaceOnUse"
       id="clipPath18"><path
         d="M 0,128.469 H 128.469 V 0 H 0 Z"
         id="path16"
         inkscape:connector-curvature="0" /></clipPath><clipPath
       clipPathUnits="userSpaceOnUse"
       id="clipPath34"><path
         d="M 17.7783,119.215 H 110.69 V 4.0332 H 17.7783 Z"
         id="path32"
         inkscape:connector-curvature="0" /></clipPath><clipPath
       clipPathUnits="userSpaceOnUse"
       id="clipPath38"><path
         d="m 23.159,4.033 c -2.968,0 -5.381,2.413 -5.381,5.38 V 69.64 c 0,0.19 0.01,0.378 0.029,0.562 l 0.03,0.282 -0.029,0.282 c -0.168,1.668 0.413,3.303 1.596,4.486 l 33.586,33.586 v 10.377 h 21.865 v -9.875 l 34.09,-34.089 c 1.089,-1.089 1.662,-2.544 1.615,-4.097 l -0.01,-0.286 0.051,-0.283 c 0.06,-0.344 0.089,-0.653 0.089,-0.945 V 9.413 c 0,-2.967 -2.413,-5.38 -5.379,-5.38 z"
         id="path36"
         inkscape:connector-curvature="0" /></clipPath><clipPath
       clipPathUnits="userSpaceOnUse"
       id="clipPath42"><path
         d="M -32768,32767 H 32767 V -32768 H -32768 Z"
         id="path40"
         inkscape:connector-curvature="0" /></clipPath><linearGradient
       x1="0"
       y1="0"
       x2="1"
       y2="0"
       gradientUnits="userSpaceOnUse"
       gradientTransform="matrix(-5e-6,115.18164,115.18164,5e-6,64.234375,4.0332031)"
       spreadMethod="pad"
       id="linearGradient50"><stop
         style="stop-opacity:1;stop-color:#ffffff"
         offset="0"
         id="stop44" /><stop
         style="stop-opacity:0;stop-color:#ffffff"
         offset="0.5"
         id="stop46" /><stop
         style="stop-opacity:1;stop-color:#ffffff"
         offset="1"
         id="stop48" /></linearGradient><mask
       maskUnits="userSpaceOnUse"
       x="0"
       y="0"
       width="1"
       height="1"
       id="mask52"><g
         id="g62"><g
           clip-path="url(#clipPath42)"
           id="g60"><g
             id="g58"><g
               id="g56"><path
                 d="M -32768,32767 H 32767 V -32768 H -32768 Z"
                 style="fill:url(#linearGradient50);stroke:none"
                 id="path54"
                 inkscape:connector-curvature="0" /></g></g></g></g></mask><linearGradient
       x1="0"
       y1="0"
       x2="1"
       y2="0"
       gradientUnits="userSpaceOnUse"
       gradientTransform="matrix(-5e-6,115.18164,115.18164,5e-6,64.234375,4.0332031)"
       spreadMethod="pad"
       id="linearGradient70"><stop
         style="stop-opacity:1;stop-color:#50ade5"
         offset="0"
         id="stop64" /><stop
         style="stop-opacity:1;stop-color:#2854a4"
         offset="0.5"
         id="stop66" /><stop
         style="stop-opacity:1;stop-color:#231f20"
         offset="1"
         id="stop68" /></linearGradient><clipPath
       clipPathUnits="userSpaceOnUse"
       id="clipPath96"><path
         d="M 17.6211,119.41 H 110.848 V 3.83789 H 17.6211 Z"
         id="path94"
         inkscape:connector-curvature="0" /></clipPath><clipPath
       clipPathUnits="userSpaceOnUse"
       id="clipPath100"><path
         d="m 23.021,3.838 c -2.978,0 -5.4,2.422 -5.4,5.398 v 60.431 c 0,0.191 0.01,0.379 0.028,0.564 l 0.031,0.284 -0.029,0.282 c -0.169,1.674 0.414,3.314 1.601,4.501 l 33.7,33.699 v 10.413 h 21.939 v -9.908 l 34.206,-34.205 c 1.092,-1.093 1.668,-2.552 1.619,-4.109 l -0.009,-0.289 0.051,-0.284 c 0.06,-0.344 0.09,-0.655 0.09,-0.948 V 9.236 c 0,-2.976 -2.422,-5.398 -5.398,-5.398 z"
         id="path98"
         inkscape:connector-curvature="0" /></clipPath><clipPath
       clipPathUnits="userSpaceOnUse"
       id="clipPath104"><path
         d="M -32768,32767 H 32767 V -32768 H -32768 Z"
         id="path102"
         inkscape:connector-curvature="0" /></clipPath><linearGradient
       x1="0"
       y1="0"
       x2="1"
       y2="0"
       gradientUnits="userSpaceOnUse"
       gradientTransform="matrix(-53.856598,115.49583,115.49583,53.856598,85.732422,-5.9130859)"
       spreadMethod="pad"
       id="linearGradient112"><stop
         style="stop-opacity:1;stop-color:#ffffff"
         offset="0"
         id="stop106" /><stop
         style="stop-opacity:0;stop-color:#ffffff"
         offset="0.5"
         id="stop108" /><stop
         style="stop-opacity:0;stop-color:#ffffff"
         offset="1"
         id="stop110" /></linearGradient><mask
       maskUnits="userSpaceOnUse"
       x="0"
       y="0"
       width="1"
       height="1"
       id="mask114"><g
         id="g124"><g
           clip-path="url(#clipPath104)"
           id="g122"><g
             id="g120"><g
               id="g118"><path
                 d="M -32768,32767 H 32767 V -32768 H -32768 Z"
                 style="fill:url(#linearGradient112);stroke:none"
                 id="path116"
                 inkscape:connector-curvature="0" /></g></g></g></g></mask><linearGradient
       x1="0"
       y1="0"
       x2="1"
       y2="0"
       gradientUnits="userSpaceOnUse"
       gradientTransform="matrix(-53.856598,115.49583,115.49583,53.856598,85.732422,-5.9130859)"
       spreadMethod="pad"
       id="linearGradient132"><stop
         style="stop-opacity:1;stop-color:#50ade5"
         offset="0"
         id="stop126" /><stop
         style="stop-opacity:1;stop-color:#2854a4"
         offset="0.5"
         id="stop128" /><stop
         style="stop-opacity:1;stop-color:#2854a4"
         offset="1"
         id="stop130" /></linearGradient><clipPath
       clipPathUnits="userSpaceOnUse"
       id="clipPath158"><path
         d="m 20.128,76.098 c 0,0 -2.349,-2.002 -2.349,-4.062 v 0 -1.174 -62.85 h 11.448 v 64.89 c 0,0 -0.106,0.679 0.449,1.562 v 0 c 0.553,0.883 18.732,29.881 18.732,29.881 v 0 z"
         id="path156"
         inkscape:connector-curvature="0" /></clipPath><clipPath
       clipPathUnits="userSpaceOnUse"
       id="clipPath166"><path
         d="M -32768,32767 H 32767 V -32768 H -32768 Z"
         id="path164"
         inkscape:connector-curvature="0" /></clipPath><linearGradient
       x1="0"
       y1="0"
       x2="1"
       y2="0"
       gradientUnits="userSpaceOnUse"
       gradientTransform="matrix(26.785576,-7.1771736,-7.1771736,-26.785576,14.742188,61.095703)"
       spreadMethod="pad"
       id="linearGradient176"><stop
         style="stop-opacity:1;stop-color:#ffffff"
         offset="0"
         id="stop168" /><stop
         style="stop-opacity:0;stop-color:#ffffff"
         offset="0.844086"
         id="stop170" /><stop
         style="stop-opacity:0.19354543;stop-color:#ffffff"
         offset="0.989247"
         id="stop172" /><stop
         style="stop-opacity:0.19354543;stop-color:#ffffff"
         offset="1"
         id="stop174" /></linearGradient><mask
       maskUnits="userSpaceOnUse"
       x="0"
       y="0"
       width="1"
       height="1"
       id="mask178"><g
         id="g188"><g
           clip-path="url(#clipPath166)"
           id="g186"><g
             id="g184"><g
               id="g182"><path
                 d="M -32768,32767 H 32767 V -32768 H -32768 Z"
                 style="fill:url(#linearGradient176);stroke:none"
                 id="path180"
                 inkscape:connector-curvature="0" /></g></g></g></g></mask><linearGradient
       x1="0"
       y1="0"
       x2="1"
       y2="0"
       gradientUnits="userSpaceOnUse"
       gradientTransform="matrix(26.785576,-7.1771736,-7.1771736,-26.785576,14.742188,61.095703)"
       spreadMethod="pad"
       id="linearGradient202"><stop
         style="stop-opacity:1;stop-color:#78b7e7"
         offset="0"
         id="stop194" /><stop
         style="stop-opacity:1;stop-color:#2854a4"
         offset="0.844086"
         id="stop196" /><stop
         style="stop-opacity:1;stop-color:#2a58a7"
         offset="0.989247"
         id="stop198" /><stop
         style="stop-opacity:1;stop-color:#2a58a7"
         offset="1"
         id="stop200" /></linearGradient><clipPath
       clipPathUnits="userSpaceOnUse"
       id="clipPath212"><path
         d="M 0,128.469 H 128.469 V 0 H 0 Z"
         id="path210"
         inkscape:connector-curvature="0" /></clipPath></defs><sodipodi:namedview
     pagecolor="#ffffff"
     bordercolor="#666666"
     borderopacity="1"
     objecttolerance="10"
     gridtolerance="10"
     guidetolerance="10"
     inkscape:pageopacity="0"
     inkscape:pageshadow="2"
     inkscape:window-width="806"
     inkscape:window-height="480"
     id="namedview4"
     showgrid="false"
     inkscape:zoom="1.3777642"
     inkscape:cx="1.0887204"
     inkscape:cy="85.646004"
     inkscape:window-x="47"
     inkscape:window-y="27"
     inkscape:window-maximized="0"
     inkscape:current-layer="g10" /><g
     id="g10"
     inkscape:groupmode="layer"
     inkscape:label="gin_variants"
     transform="matrix(1.3333333,0,0,-1.3333333,0,171.292)"><g
       id="g12"><g
         id="g14"
         clip-path="url(#clipPath18)"><g
           id="g20"
           transform="translate(114.3779,71.2695)"><path
             d="M 0,0 C 0.07,2.263 -0.75,4.549 -2.478,6.276 L -36.462,40.26 v 6.076 h 1.69 c 3,0 5.431,2.432 5.431,5.432 0,3 -2.431,5.431 -5.431,5.431 h -31.381 c -3,0 -5.432,-2.431 -5.432,-5.431 0,-3 2.432,-5.432 5.432,-5.432 h 1.691 v -6.59 L -97.933,6.276 c -1.879,-1.879 -2.692,-4.418 -2.445,-6.87 -0.029,-0.284 -0.045,-0.573 -0.045,-0.865 v -61.508 c 0,-4.601 3.729,-8.33 8.33,-8.33 h 83.9 c 4.6,0 8.329,3.729 8.329,8.33 V -1.459 C 0.136,-0.96 0.084,-0.475 0,0"
             style="fill:#2854a4;fill-opacity:1;fill-rule:nonzero;stroke:none"
             id="path22"
             inkscape:connector-curvature="0" /></g><g
           id="g24"
           transform="translate(114.3779,71.2695)"><path
             d="M 0,0 C 0.07,2.263 -0.75,4.549 -2.478,6.276 L -36.462,40.26 v 6.076 h 1.69 c 3,0 5.431,2.432 5.431,5.432 0,3 -2.431,5.431 -5.431,5.431 h -31.381 c -3,0 -5.432,-2.431 -5.432,-5.431 0,-3 2.432,-5.432 5.432,-5.432 h 1.691 v -6.59 L -97.933,6.276 c -1.879,-1.879 -2.692,-4.418 -2.445,-6.87 -0.029,-0.284 -0.045,-0.573 -0.045,-0.865 v -61.508 c 0,-4.601 3.729,-8.33 8.33,-8.33 h 83.9 c 4.6,0 8.329,3.729 8.329,8.33 V -1.459 C 0.136,-0.96 0.084,-0.475 0,0"
             style="fill:#2854a4;fill-opacity:1;fill-rule:nonzero;stroke:none"
             id="path26"
             inkscape:connector-curvature="0" /></g><g
           id="g28"><g
             id="g30" /><g
             id="g88"><g
               clip-path="url(#clipPath34)"
               id="g86"
               style="opacity:0.5"><g
                 id="g84"><g
                   clip-path="url(#clipPath38)"
                   id="g82"><g
                     id="g80"><g
                       id="g72" /><g
                       mask="url(#mask52)"
                       id="g78"><g
                         id="g76"><path
                           d="m 23.159,4.033 c -2.968,0 -5.381,2.413 -5.381,5.38 V 69.64 c 0,0.19 0.01,0.378 0.029,0.562 l 0.03,0.282 -0.029,0.282 c -0.168,1.668 0.413,3.303 1.596,4.486 l 33.586,33.586 v 10.377 h 21.865 v -9.875 l 34.09,-34.089 c 1.089,-1.089 1.662,-2.544 1.615,-4.097 l -0.01,-0.286 0.051,-0.283 c 0.06,-0.344 0.089,-0.653 0.089,-0.945 V 9.413 c 0,-2.967 -2.413,-5.38 -5.379,-5.38 z"
                           style="fill:url(#linearGradient70);stroke:none"
                           id="path74"
                           inkscape:connector-curvature="0" /></g></g></g></g></g></g></g></g><g
           id="g90"><g
             id="g92" /><g
             id="g150"><g
               clip-path="url(#clipPath96)"
               id="g148"
               style="opacity:0.5"><g
                 id="g146"><g
                   clip-path="url(#clipPath100)"
                   id="g144"><g
                     id="g142"><g
                       id="g134" /><g
                       mask="url(#mask114)"
                       id="g140"><g
                         id="g138"><path
                           d="m 23.021,3.838 c -2.978,0 -5.4,2.422 -5.4,5.398 v 60.431 c 0,0.191 0.01,0.379 0.028,0.564 l 0.031,0.284 -0.029,0.282 c -0.169,1.674 0.414,3.314 1.601,4.501 l 33.7,33.699 v 10.413 h 21.939 v -9.908 l 34.206,-34.205 c 1.092,-1.093 1.668,-2.552 1.619,-4.109 l -0.009,-0.289 0.051,-0.284 c 0.06,-0.344 0.09,-0.655 0.09,-0.948 V 9.236 c 0,-2.976 -2.422,-5.398 -5.398,-5.398 z"
                           style="fill:url(#linearGradient132);stroke:none"
                           id="path136"
                           inkscape:connector-curvature="0" /></g></g></g></g></g></g></g></g></g></g><g
       id="g152"><g
         id="g154"
         clip-path="url(#clipPath158)"><g
           id="g160"><g
             id="g162" /><g
             id="g190"
             mask="url(#mask178)"><g
               id="g192"><path
                 d="m 20.128,76.098 c 0,0 -2.349,-2.002 -2.349,-4.062 v 0 -1.174 -62.85 h 11.448 v 64.89 c 0,0 -0.106,0.679 0.449,1.562 v 0 c 0.553,0.883 18.732,29.881 18.732,29.881 v 0 z"
                 style="fill:url(#linearGradient202);stroke:none"
                 id="path204"
                 inkscape:connector-curvature="0" /></g></g></g></g></g><g
       id="g206"><g
         id="g208"
         clip-path="url(#clipPath212)"><g
           id="g214"
           transform="translate(78.3477,75.7002)"><path
             d="M 0,0 C 5.637,0 10.975,1.269 15.752,3.53 10.975,5.792 5.636,7.061 0,7.061 c -4.109,0 -8.058,-0.682 -11.748,-1.924 3.552,1.741 6.884,4.083 9.836,7.035 3.986,3.986 6.863,8.658 8.643,13.635 C 1.754,24.027 -2.918,21.15 -6.904,17.164 -10.859,13.209 -13.722,8.575 -15.503,3.64 -15.585,3.602 -15.67,3.569 -15.752,3.53 -10.976,1.269 -5.637,0 0,0 m -43.081,-3.825 c -5.637,0 -10.976,-1.27 -15.752,-3.53 4.776,-2.262 10.115,-3.531 15.752,-3.531 4.223,0 8.278,0.713 12.056,2.021 -3.626,-1.75 -7.026,-4.124 -10.035,-7.133 -3.984,-3.984 -6.863,-8.657 -8.641,-13.634 4.977,1.778 9.649,4.657 13.634,8.642 3.972,3.972 6.841,8.627 8.624,13.585 0.037,0.017 0.077,0.032 0.114,0.05 -4.777,2.261 -10.116,3.53 -15.752,3.53 m 0.206,24.693 24.565,-24.566 c 1.32,0.812 2.868,1.289 4.531,1.289 4.782,10e-4 8.659,-3.877 8.659,-8.66 0,-1.609 -0.446,-3.11 -1.211,-4.401 l 11.72,-11.284 c 1.261,0.718 2.716,1.132 4.271,1.132 4.782,0.001 8.659,-3.877 8.659,-8.66 0,-4.782 -3.877,-8.659 -8.659,-8.659 -4.783,0 -8.66,3.877 -8.66,8.659 0,1.408 0.343,2.733 0.939,3.908 l -11.958,11.514 c -0.405,-0.196 -0.824,-0.367 -1.26,-0.498 v -31.486 c 3.739,-0.958 6.507,-4.341 6.507,-8.38 0,-4.782 -3.877,-8.659 -8.66,-8.659 -4.783,0 -8.66,3.877 -8.66,8.659 0,3.785 2.431,6.994 5.813,8.172 v 31.694 c -3.564,1.073 -6.16,4.376 -6.16,8.289 0,1.297 0.293,2.522 0.803,3.627 l -24.779,24.779"
             style="fill:#ffffff;fill-opacity:1;fill-rule:nonzero;stroke:none"
             id="path216"
             inkscape:connector-curvature="0" /></g></g></g></g></svg>