<?xml version="1.0" encoding="UTF-8" standalone="no"?>
<!-- Created with Inkscape (http://www.inkscape.org/) -->

<svg
   xmlns:dc="http://purl.org/dc/elements/1.1/"
   xmlns:cc="http://creativecommons.org/ns#"
   xmlns:rdf="http://www.w3.org/1999/02/22-rdf-syntax-ns#"
   xmlns:svg="http://www.w3.org/2000/svg"
   xmlns="http://www.w3.org/2000/svg"
   xmlns:sodipodi="http://sodipodi.sourceforge.net/DTD/sodipodi-0.dtd"
   xmlns:inkscape="http://www.inkscape.org/namespaces/inkscape"
   version="1.1"
   id="svg2"
   xml:space="preserve"
   width="775.14819"
   height="513.57642"
   viewBox="0 0 775.14819 513.57642"
   sodipodi:docname="NIX.svg"
   inkscape:version="0.92.3 (2405546, 2018-03-11)"><metadata
     id="metadata8"><rdf:RDF><cc:Work
         rdf:about=""><dc:format>image/svg+xml</dc:format><dc:type
           rdf:resource="http://purl.org/dc/dcmitype/StillImage" /><dc:title></dc:title></cc:Work></rdf:RDF></metadata><defs
     id="defs6"><clipPath
       clipPathUnits="userSpaceOnUse"
       id="clipPath22"><path
         d="M 0,0 H 582 V 386 H 0 Z"
         id="path20"
         inkscape:connector-curvature="0" /></clipPath><clipPath
       clipPathUnits="userSpaceOnUse"
       id="clipPath34"><path
         d="M 0,0 H 582 V 386 H 0 Z"
         id="path32"
         inkscape:connector-curvature="0" /></clipPath><clipPath
       clipPathUnits="userSpaceOnUse"
       id="clipPath48"><path
         d="M 0,0 H 582 V 386 H 0 Z"
         id="path46"
         inkscape:connector-curvature="0" /></clipPath><clipPath
       clipPathUnits="userSpaceOnUse"
       id="clipPath60"><path
         d="M 0,0 H 582 V 386 H 0 Z"
         id="path58"
         inkscape:connector-curvature="0" /></clipPath><clipPath
       clipPathUnits="userSpaceOnUse"
       id="clipPath72"><path
         d="M 0,0 H 582 V 386 H 0 Z"
         id="path70"
         inkscape:connector-curvature="0" /></clipPath><clipPath
       clipPathUnits="userSpaceOnUse"
       id="clipPath84"><path
         d="M 0,0 H 582 V 386 H 0 Z"
         id="path82"
         inkscape:connector-curvature="0" /></clipPath></defs><sodipodi:namedview
     pagecolor="#ffffff"
     bordercolor="#666666"
     borderopacity="1"
     objecttolerance="10"
     gridtolerance="10"
     guidetolerance="10"
     inkscape:pageopacity="0"
     inkscape:pageshadow="2"
     inkscape:window-width="2513"
     inkscape:window-height="1385"
     id="namedview4"
     showgrid="false"
     inkscape:zoom="0.44120596"
     inkscape:cx="123.52508"
     inkscape:cy="256.78821"
     inkscape:window-x="47"
     inkscape:window-y="27"
     inkscape:window-maximized="1"
     inkscape:current-layer="g10" /><g
     id="g10"
     inkscape:groupmode="layer"
     inkscape:label="NIX"
     transform="matrix(1.3333333,0,0,1.3333333,0,1.683941e-5)"><g
       id="g12"><g
         id="g14"><g
           id="g16"><g
             id="g18"
             clip-path="url(#clipPath22)"><g
               id="g24"><g
                 id="g26"><g
                   id="g28"><g
                     id="g30"
                     clip-path="url(#clipPath34)"><g
                       id="g36" /><g
                       id="g38"><g
                         id="g40"><g
                           id="g42"><g
                             id="g44"
                             clip-path="url(#clipPath48)"><g
                               id="g50"><g
                                 id="g52"><g
                                   id="g54"><g
                                   id="g56"
                                   clip-path="url(#clipPath60)"><g
                                   id="g62"><g
                                   id="g64"><g
                                   id="g66"><g
                                   id="g68"
                                   clip-path="url(#clipPath72)"><g
                                   id="g74"><g
                                   id="g76"><g
                                   id="g78"><g
                                   id="g80"
                                   clip-path="url(#clipPath84)"><g
                                   id="g86"><path
                                   d="m 316.395,83.836 c 0,14.203 -11.52,25.734 -25.7,25.734 -14.211,0 -25.726,-11.531 -25.726,-25.734 0,-14.199 11.515,-25.703 25.726,-25.703 14.18,0 25.7,11.504 25.7,25.703"
                                   style="fill:#ed6a1c;fill-opacity:1;fill-rule:nonzero;stroke:none"
                                   id="path88"
                                   inkscape:connector-curvature="0" /><path
                                   d="m 580.512,268.641 h -74.008 l -42.555,42.535 -42.531,-42.535 H 388.383 L 290.555,366.445 192.73,268.641 H 159.941 L 117.41,311.176 74.887,268.641 H 0 l 0.891,0.871 C 1.363,333.488 53.34,385.184 117.41,385.184 h 346.559 c 64.051,0 116.039,-51.696 116.508,-115.672 l 0.882,-0.871 z"
                                   style="fill:#2d4b9a;fill-opacity:1;fill-rule:nonzero;stroke:none"
                                   id="path90"
                                   inkscape:connector-curvature="0" /><path
                                   d="m 355.391,155.312 c -5.899,10.196 -8.829,23.387 -8.829,39.567 v 54.82 h 98.665 v -67.734 c 0,-15.672 6.152,-23.504 18.464,-23.504 12.668,0 18.997,9.078 18.997,27.191 v 64.047 h 98.671 v -58.504 c 0,-15.644 -2.382,-28.328 -7.121,-38 -4.75,-9.668 -13.117,-18.55 -25.062,-26.652 11.773,-7.727 20.097,-16.641 24.933,-26.785 4.825,-10.094 7.25,-23.406 7.25,-39.942 V 0 h -98.671 v 68.508 c 0,15.664 -6.254,23.496 -18.739,23.496 -5.445,0 -9.914,-2.203 -13.449,-6.606 -3.516,-4.406 -5.273,-10.027 -5.273,-16.89 V 0 h -98.665 v 56.098 c 0,16.363 2.93,29.836 8.829,40.386 5.875,10.559 16.148,20.571 30.734,30.059 -14.586,8.98 -24.859,18.562 -30.734,28.769"
                                   style="fill:#2d4b9a;fill-opacity:1;fill-rule:nonzero;stroke:none"
                                   id="path92"
                                   inkscape:connector-curvature="0" /><path
                                   d="M 98.676,249.699 V 120.098 c 0,-15.129 6.156,-22.692 18.469,-22.692 12.503,0 18.734,7.563 18.734,22.692 v 129.601 h 98.672 V 129.863 c 0,-37.988 -8.871,-67.617 -26.653,-88.91 C 185.211,13.688 155.055,0.062 117.41,0.062 84.516,0.062 56.734,11.797 34.035,35.27 11.344,58.742 0,87.652 0,121.957 v 127.742 z"
                                   style="fill:#2d4b9a;fill-opacity:1;fill-rule:nonzero;stroke:none"
                                   id="path94"
                                   inkscape:connector-curvature="0" /></g></g></g></g></g></g></g></g></g></g></g></g></g></g></g></g></g></g></g></g></g></g></g></g></g></g></svg>