<?xml version="1.0" encoding="UTF-8" standalone="no"?>
<!-- Created with Inkscape (http://www.inkscape.org/) -->

<svg
   xmlns:dc="http://purl.org/dc/elements/1.1/"
   xmlns:cc="http://creativecommons.org/ns#"
   xmlns:rdf="http://www.w3.org/1999/02/22-rdf-syntax-ns#"
   xmlns:svg="http://www.w3.org/2000/svg"
   xmlns="http://www.w3.org/2000/svg"
   xmlns:sodipodi="http://sodipodi.sourceforge.net/DTD/sodipodi-0.dtd"
   xmlns:inkscape="http://www.inkscape.org/namespaces/inkscape"
   version="1.1"
   id="svg904"
   xml:space="preserve"
   width="201.98933"
   height="143.99333"
   viewBox="0 0 201.98933 143.99333"
   sodipodi:docname="NIX_variants.svg"
   inkscape:version="0.92.3 (2405546, 2018-03-11)"><metadata
     id="metadata910"><rdf:RDF><cc:Work
         rdf:about=""><dc:format>image/svg+xml</dc:format><dc:type
           rdf:resource="http://purl.org/dc/dcmitype/StillImage" /><dc:title></dc:title></cc:Work></rdf:RDF></metadata><defs
     id="defs908"><clipPath
       clipPathUnits="userSpaceOnUse"
       id="clipPath920"><path
         d="m 86.181,71.26 -7.2,-7.199 -7.598,7.597 7.2,7.199 z"
         id="path918"
         inkscape:connector-curvature="0" /></clipPath><clipPath
       clipPathUnits="userSpaceOnUse"
       id="clipPath928"><path
         d="M -32768,32767 H 32767 V -32767 H -32768 Z"
         id="path926"
         inkscape:connector-curvature="0" /></clipPath><linearGradient
       x1="0"
       y1="0"
       x2="1"
       y2="0"
       gradientUnits="userSpaceOnUse"
       gradientTransform="matrix(7.5983124,-7.5983124,-10.598312,-10.598312,74.983398,75.258789)"
       spreadMethod="pad"
       id="linearGradient936"><stop
         style="stop-opacity:1;stop-color:#ffffff"
         offset="0"
         id="stop930" /><stop
         style="stop-opacity:1;stop-color:#ffffff"
         offset="0.1755773"
         id="stop932" /><stop
         style="stop-opacity:0;stop-color:#ffffff"
         offset="1"
         id="stop934" /></linearGradient><mask
       maskUnits="userSpaceOnUse"
       x="0"
       y="0"
       width="1"
       height="1"
       id="mask938"><g
         id="g948"><g
           clip-path="url(#clipPath928)"
           id="g946"><g
             id="g944"><g
               id="g942"><path
                 d="M -32768,32767 H 32767 V -32767 H -32768 Z"
                 style="fill:url(#linearGradient936);stroke:none"
                 id="path940"
                 inkscape:connector-curvature="0" /></g></g></g></g></mask><linearGradient
       x1="0"
       y1="0"
       x2="1"
       y2="0"
       gradientUnits="userSpaceOnUse"
       gradientTransform="matrix(7.5983124,-7.5983124,-10.598312,-10.598312,74.983398,75.258789)"
       spreadMethod="pad"
       id="linearGradient960"><stop
         style="stop-opacity:1;stop-color:#b1b1b1"
         offset="0"
         id="stop954" /><stop
         style="stop-opacity:1;stop-color:#b1b1b1"
         offset="0.1755773"
         id="stop956" /><stop
         style="stop-opacity:1;stop-color:#ffffff"
         offset="1"
         id="stop958" /></linearGradient><clipPath
       clipPathUnits="userSpaceOnUse"
       id="clipPath970"><path
         d="M 0,107.995 H 151.492 V 0 H 0 Z"
         id="path968"
         inkscape:connector-curvature="0" /></clipPath><clipPath
       clipPathUnits="userSpaceOnUse"
       id="clipPath994"><path
         d="M 112.399,92.527 V 78.962 c 0,-3.102 -1.236,-4.652 -3.709,-4.652 v 0 c -1.08,0 -1.967,0.437 -2.664,1.307 v 0 c -0.697,0.87 -1.045,1.986 -1.045,3.345 v 0 13.565 H 85.441 V 81.416 c 0,-3.238 0.585,-5.902 1.751,-7.992 v 0 c 1.165,-2.091 3.195,-4.075 6.086,-5.956 v 0 c -2.891,-1.777 -4.921,-3.675 -6.086,-5.695 v 0 c -1.166,-2.02 -1.751,-4.632 -1.751,-7.835 v 0 -10.855 h 19.54 v 13.414 c 0,3.1 1.219,4.65 3.658,4.65 v 0 c 2.506,0 3.76,-1.796 3.76,-5.382 v 0 -12.682 h 19.539 v 11.585 c 0,3.099 -0.471,5.609 -1.41,7.525 v 0 c -0.941,1.912 -2.596,3.673 -4.963,5.275 v 0 c 2.332,1.531 3.978,3.299 4.938,5.303 v 0 c 0.956,2.003 1.435,4.64 1.435,7.915 v 0 11.841 z M 23.558,85.543 C 19.066,80.893 16.819,75.172 16.819,68.38 v 0 -25.297 h 19.539 v 25.662 c 0,2.996 1.219,4.494 3.657,4.494 v 0 c 2.473,0 3.709,-1.498 3.709,-4.494 v 0 -25.662 h 19.539 v 23.73 c 0,7.522 -1.76,13.391 -5.277,17.606 v 0 c -4.493,5.398 -10.466,8.097 -17.918,8.097 v 0 c -6.514,0 -12.017,-2.324 -16.51,-6.973 m 93.555,-46.21 -8.423,-8.422 -8.423,8.422 h -6.544 l -19.37,-19.37 -19.37,19.37 h -6.492 l -8.423,-8.422 -8.423,8.422 H 16.989 l 0.005,-0.174 C 17.088,26.493 27.381,16.255 40.068,16.255 v 0 h 68.623 c 12.687,0 22.979,10.239 23.073,22.905 v 0 l 0.005,0.173 z"
         id="path992"
         inkscape:connector-curvature="0" /></clipPath><linearGradient
       x1="0"
       y1="0"
       x2="1"
       y2="0"
       gradientUnits="userSpaceOnUse"
       gradientTransform="matrix(81.991928,-81.991928,-81.991928,-81.991928,36.8125,98.802734)"
       spreadMethod="pad"
       id="linearGradient1006"><stop
         style="stop-opacity:1;stop-color:#1d70b7"
         offset="0"
         id="stop1000" /><stop
         style="stop-opacity:1;stop-color:#2d4b9a"
         offset="0.45519307"
         id="stop1002" /><stop
         style="stop-opacity:1;stop-color:#2d4b9a"
         offset="1"
         id="stop1004" /></linearGradient><clipPath
       clipPathUnits="userSpaceOnUse"
       id="clipPath1016"><path
         d="M 0,107.995 H 151.492 V 0 H 0 Z"
         id="path1014"
         inkscape:connector-curvature="0" /></clipPath><clipPath
       clipPathUnits="userSpaceOnUse"
       id="clipPath1024"><path
         d="M 16.8188,92.9404 H 131.938 V 16.668 H 16.8188 Z"
         id="path1022"
         inkscape:connector-curvature="0" /></clipPath><clipPath
       clipPathUnits="userSpaceOnUse"
       id="clipPath1028"><path
         d="m 36.358,43.496 v 25.662 c 0,2.996 1.219,4.494 3.657,4.494 2.473,0 3.709,-1.498 3.709,-4.494 V 43.496 h 19.539 v 23.731 c 0,7.522 -1.76,13.389 -5.277,17.605 -4.492,5.398 -10.466,8.097 -17.918,8.097 -6.514,0 -12.017,-2.325 -16.51,-6.973 -4.492,-4.65 -6.739,-10.371 -6.739,-17.163 V 43.496 Z m 50.834,18.691 c -1.166,-2.021 -1.75,-4.633 -1.75,-7.836 V 43.496 h 19.539 V 56.91 c 0,3.1 1.219,4.65 3.658,4.65 2.506,0 3.76,-1.795 3.76,-5.382 V 43.496 h 19.539 v 11.585 c 0,3.1 -0.471,5.608 -1.41,7.524 -0.942,1.914 -2.596,3.673 -4.963,5.276 2.332,1.531 3.978,3.299 4.937,5.304 0.957,2.002 1.436,4.639 1.436,7.914 V 92.94 H 112.399 V 79.375 c 0,-3.102 -1.236,-4.651 -3.709,-4.651 -1.08,0 -1.967,0.436 -2.664,1.306 -0.697,0.87 -1.045,1.987 -1.045,3.345 V 92.94 H 85.442 V 81.829 c 0,-3.237 0.584,-5.902 1.75,-7.992 1.166,-2.091 3.195,-4.075 6.086,-5.956 -2.891,-1.777 -4.92,-3.675 -6.086,-5.694 M 131.764,39.573 C 131.67,26.907 121.377,16.668 108.691,16.668 H 40.068 c -12.687,0 -22.98,10.238 -23.074,22.904 l -0.004,0.174 h 14.655 l 8.423,-8.423 8.423,8.423 h 6.492 l 19.37,-19.37 19.37,19.37 h 6.544 l 8.423,-8.423 8.423,8.423 h 14.656 z"
         id="path1026"
         inkscape:connector-curvature="0" /></clipPath><linearGradient
       x1="0"
       y1="0"
       x2="1"
       y2="0"
       gradientUnits="userSpaceOnUse"
       gradientTransform="matrix(81.991928,-81.991928,-81.991928,-81.991928,36.8125,99.21582)"
       spreadMethod="pad"
       id="linearGradient1036"><stop
         style="stop-opacity:1;stop-color:#1d70b7"
         offset="0"
         id="stop1030" /><stop
         style="stop-opacity:1;stop-color:#2d4b9a"
         offset="0.45519307"
         id="stop1032" /><stop
         style="stop-opacity:1;stop-color:#2d4b9a"
         offset="1"
         id="stop1034" /></linearGradient></defs><sodipodi:namedview
     pagecolor="#ffffff"
     bordercolor="#666666"
     borderopacity="1"
     objecttolerance="10"
     gridtolerance="10"
     guidetolerance="10"
     inkscape:pageopacity="0"
     inkscape:pageshadow="2"
     inkscape:window-width="2513"
     inkscape:window-height="1385"
     id="namedview906"
     showgrid="false"
     inkscape:zoom="1.6389648"
     inkscape:cx="29.913213"
     inkscape:cy="71.996666"
     inkscape:window-x="47"
     inkscape:window-y="27"
     inkscape:window-maximized="1"
     inkscape:current-layer="g912" /><g
     id="g912"
     inkscape:groupmode="layer"
     inkscape:label="NIX_variants"
     transform="matrix(1.3333333,0,0,-1.3333333,0,143.99333)"><g
       id="g914"><g
         id="g916"
         clip-path="url(#clipPath920)"><g
           id="g922"><g
             id="g924" /><g
             id="g950"
             mask="url(#mask938)"><g
               id="g952"><path
                 d="m 86.181,71.26 -7.2,-7.199 -7.598,7.597 7.2,7.199 z"
                 style="fill:url(#linearGradient960);stroke:none"
                 id="path962"
                 inkscape:connector-curvature="0" /></g></g></g></g></g><g
       id="g964"><g
         id="g966"
         clip-path="url(#clipPath970)"><g
           id="g972"
           transform="translate(79.4697,76.2373)"><path
             d="m 0,0 c 0,-2.812 -2.279,-5.091 -5.091,-5.091 -2.811,0 -5.091,2.279 -5.091,5.091 0,2.812 2.28,5.091 5.091,5.091 C -2.279,5.091 0,2.812 0,0"
             style="fill:#f8c260;fill-opacity:1;fill-rule:nonzero;stroke:none"
             id="path974"
             inkscape:connector-curvature="0" /></g><g
           id="g976"
           transform="translate(79.4697,75.665)"><path
             d="m 0,0 c 0,-2.812 -2.279,-5.091 -5.091,-5.091 -2.811,0 -5.091,2.279 -5.091,5.091 0,2.812 2.28,5.091 5.091,5.091 C -2.279,5.091 0,2.812 0,0"
             style="fill:#bd1622;fill-opacity:1;fill-rule:nonzero;stroke:none"
             id="path978"
             inkscape:connector-curvature="0" /></g><g
           id="g980"
           transform="translate(36.3579,42.582)"><path
             d="m 0,0 v 25.662 c 0,2.996 1.219,4.494 3.657,4.494 2.473,0 3.709,-1.498 3.709,-4.494 V 0 h 19.539 v 23.73 c 0,7.523 -1.759,13.39 -5.277,17.606 -4.492,5.398 -10.466,8.097 -17.918,8.097 -6.514,0 -12.017,-2.325 -16.51,-6.973 -4.492,-4.65 -6.739,-10.371 -6.739,-17.163 V 0 Z m 50.834,18.69 c -1.166,-2.02 -1.75,-4.632 -1.75,-7.836 V 0 h 19.539 v 13.414 c 0,3.1 1.219,4.649 3.658,4.649 2.506,0 3.76,-1.794 3.76,-5.381 V 0 H 95.58 v 11.585 c 0,3.1 -0.471,5.608 -1.41,7.524 -0.941,1.913 -2.596,3.673 -4.963,5.276 2.332,1.531 3.979,3.299 4.938,5.303 0.957,2.002 1.435,4.64 1.435,7.915 V 49.444 H 76.041 V 35.879 c 0,-3.102 -1.236,-4.651 -3.709,-4.651 -1.08,0 -1.967,0.436 -2.664,1.306 -0.697,0.87 -1.045,1.987 -1.045,3.345 V 49.444 H 49.084 V 38.333 c 0,-3.237 0.584,-5.902 1.75,-7.992 C 52,28.25 54.029,26.266 56.92,24.385 54.029,22.608 52,20.71 50.834,18.69 M 95.406,-3.923 C 95.313,-16.589 85.02,-26.828 72.333,-26.828 H 3.71 c -12.687,0 -22.98,10.238 -23.074,22.904 l -0.004,0.174 h 14.655 l 8.423,-8.423 8.423,8.423 h 6.492 l 19.37,-19.37 19.37,19.37 h 6.544 l 8.423,-8.423 8.423,8.423 h 14.656 z"
             style="fill:#29235c;fill-opacity:1;fill-rule:nonzero;stroke:none"
             id="path982"
             inkscape:connector-curvature="0" /></g><g
           id="g984"
           transform="translate(79.4697,75.9248)"><path
             d="m 0,0 c 0,-2.812 -2.279,-5.091 -5.091,-5.091 -2.811,0 -5.091,2.279 -5.091,5.091 0,2.812 2.28,5.091 5.091,5.091 C -2.279,5.091 0,2.812 0,0"
             style="fill:#ed6a1c;fill-opacity:1;fill-rule:nonzero;stroke:none"
             id="path986"
             inkscape:connector-curvature="0" /></g></g></g><g
       id="g988"><g
         id="g990"
         clip-path="url(#clipPath994)"><g
           id="g996"><g
             id="g998"><path
               d="M 112.399,92.527 V 78.962 c 0,-3.102 -1.236,-4.652 -3.709,-4.652 v 0 c -1.08,0 -1.967,0.437 -2.664,1.307 v 0 c -0.697,0.87 -1.045,1.986 -1.045,3.345 v 0 13.565 H 85.441 V 81.416 c 0,-3.238 0.585,-5.902 1.751,-7.992 v 0 c 1.165,-2.091 3.195,-4.075 6.086,-5.956 v 0 c -2.891,-1.777 -4.921,-3.675 -6.086,-5.695 v 0 c -1.166,-2.02 -1.751,-4.632 -1.751,-7.835 v 0 -10.855 h 19.54 v 13.414 c 0,3.1 1.219,4.65 3.658,4.65 v 0 c 2.506,0 3.76,-1.796 3.76,-5.382 v 0 -12.682 h 19.539 v 11.585 c 0,3.099 -0.471,5.609 -1.41,7.525 v 0 c -0.941,1.912 -2.596,3.673 -4.963,5.275 v 0 c 2.332,1.531 3.978,3.299 4.938,5.303 v 0 c 0.956,2.003 1.435,4.64 1.435,7.915 v 0 11.841 z M 23.558,85.543 C 19.066,80.893 16.819,75.172 16.819,68.38 v 0 -25.297 h 19.539 v 25.662 c 0,2.996 1.219,4.494 3.657,4.494 v 0 c 2.473,0 3.709,-1.498 3.709,-4.494 v 0 -25.662 h 19.539 v 23.73 c 0,7.522 -1.76,13.391 -5.277,17.606 v 0 c -4.493,5.398 -10.466,8.097 -17.918,8.097 v 0 c -6.514,0 -12.017,-2.324 -16.51,-6.973 m 93.555,-46.21 -8.423,-8.422 -8.423,8.422 h -6.544 l -19.37,-19.37 -19.37,19.37 h -6.492 l -8.423,-8.422 -8.423,8.422 H 16.989 l 0.005,-0.174 C 17.088,26.493 27.381,16.255 40.068,16.255 v 0 h 68.623 c 12.687,0 22.979,10.239 23.073,22.905 v 0 l 0.005,0.173 z"
               style="fill:url(#linearGradient1006);stroke:none"
               id="path1008"
               inkscape:connector-curvature="0" /></g></g></g></g><g
       id="g1010"><g
         id="g1012"
         clip-path="url(#clipPath1016)"><g
           id="g1018"><g
             id="g1020" /><g
             id="g1050"><g
               clip-path="url(#clipPath1024)"
               id="g1048"
               style="opacity:0.5"><g
                 id="g1046"><g
                   clip-path="url(#clipPath1028)"
                   id="g1044"><g
                     id="g1042"><g
                       id="g1040"><path
                         d="m 36.358,43.496 v 25.662 c 0,2.996 1.219,4.494 3.657,4.494 2.473,0 3.709,-1.498 3.709,-4.494 V 43.496 h 19.539 v 23.731 c 0,7.522 -1.76,13.389 -5.277,17.605 -4.492,5.398 -10.466,8.097 -17.918,8.097 -6.514,0 -12.017,-2.325 -16.51,-6.973 -4.492,-4.65 -6.739,-10.371 -6.739,-17.163 V 43.496 Z m 50.834,18.691 c -1.166,-2.021 -1.75,-4.633 -1.75,-7.836 V 43.496 h 19.539 V 56.91 c 0,3.1 1.219,4.65 3.658,4.65 2.506,0 3.76,-1.795 3.76,-5.382 V 43.496 h 19.539 v 11.585 c 0,3.1 -0.471,5.608 -1.41,7.524 -0.942,1.914 -2.596,3.673 -4.963,5.276 2.332,1.531 3.978,3.299 4.937,5.304 0.957,2.002 1.436,4.639 1.436,7.914 V 92.94 H 112.399 V 79.375 c 0,-3.102 -1.236,-4.651 -3.709,-4.651 -1.08,0 -1.967,0.436 -2.664,1.306 -0.697,0.87 -1.045,1.987 -1.045,3.345 V 92.94 H 85.442 V 81.829 c 0,-3.237 0.584,-5.902 1.75,-7.992 1.166,-2.091 3.195,-4.075 6.086,-5.956 -2.891,-1.777 -4.92,-3.675 -6.086,-5.694 M 131.764,39.573 C 131.67,26.907 121.377,16.668 108.691,16.668 H 40.068 c -12.687,0 -22.98,10.238 -23.074,22.904 l -0.004,0.174 h 14.655 l 8.423,-8.423 8.423,8.423 h 6.492 l 19.37,-19.37 19.37,19.37 h 6.544 l 8.423,-8.423 8.423,8.423 h 14.656 z"
                         style="fill:url(#linearGradient1036);stroke:none"
                         id="path1038"
                         inkscape:connector-curvature="0" /></g></g></g></g></g></g></g></g></g></g></svg>