<?xml version="1.0" encoding="UTF-8" standalone="no"?>
<!-- Created with Inkscape (http://www.inkscape.org/) -->

<svg
   xmlns:dc="http://purl.org/dc/elements/1.1/"
   xmlns:cc="http://creativecommons.org/ns#"
   xmlns:rdf="http://www.w3.org/1999/02/22-rdf-syntax-ns#"
   xmlns:svg="http://www.w3.org/2000/svg"
   xmlns="http://www.w3.org/2000/svg"
   xmlns:sodipodi="http://sodipodi.sourceforge.net/DTD/sodipodi-0.dtd"
   xmlns:inkscape="http://www.inkscape.org/namespaces/inkscape"
   version="1.1"
   id="svg2"
   xml:space="preserve"
   width="206.22267"
   height="144"
   viewBox="0 0 206.22267 144"
   sodipodi:docname="NIX_variant_b.svg"
   inkscape:version="0.92.3 (2405546, 2018-03-11)"><metadata
     id="metadata8"><rdf:RDF><cc:Work
         rdf:about=""><dc:format>image/svg+xml</dc:format><dc:type
           rdf:resource="http://purl.org/dc/dcmitype/StillImage" /><dc:title></dc:title></cc:Work></rdf:RDF></metadata><defs
     id="defs6"><clipPath
       clipPathUnits="userSpaceOnUse"
       id="clipPath18"><path
         d="M 0,108 H 154.667 V 0 H 0 Z"
         id="path16"
         inkscape:connector-curvature="0" /></clipPath></defs><sodipodi:namedview
     pagecolor="#ffffff"
     bordercolor="#666666"
     borderopacity="1"
     objecttolerance="10"
     gridtolerance="10"
     guidetolerance="10"
     inkscape:pageopacity="0"
     inkscape:pageshadow="2"
     inkscape:window-width="806"
     inkscape:window-height="480"
     id="namedview4"
     showgrid="false"
     inkscape:zoom="1.6388889"
     inkscape:cx="32.02659"
     inkscape:cy="72"
     inkscape:window-x="47"
     inkscape:window-y="27"
     inkscape:window-maximized="0"
     inkscape:current-layer="g10" /><g
     id="g10"
     inkscape:groupmode="layer"
     inkscape:label="NIX_variants"
     transform="matrix(1.3333333,0,0,-1.3333333,0,144)"><g
       id="g12"><g
         id="g14"
         clip-path="url(#clipPath18)"><g
           id="g20"
           transform="translate(80.9224,75.6758)"><path
             d="m 0,0 c 0,-2.812 -2.279,-5.091 -5.091,-5.091 -2.811,0 -5.091,2.279 -5.091,5.091 0,2.812 2.28,5.091 5.091,5.091 C -2.279,5.091 0,2.812 0,0"
             style="fill:#ed6a1c;fill-opacity:1;fill-rule:nonzero;stroke:none"
             id="path22"
             inkscape:connector-curvature="0" /></g><g
           id="g24"
           transform="translate(133.2217,39.084)"><path
             d="M 0,0 H -14.656 L -23.079,-8.423 -31.502,0 h -6.544 L -57.416,-19.37 -76.786,0 h -6.492 L -91.701,-8.423 -100.124,0 h -14.655 -0.171 l 0.175,-0.174 c 0.094,-12.666 10.387,-22.904 23.074,-22.904 h 68.623 c 12.687,0 22.98,10.239 23.074,22.905 L 0.17,0 Z"
             style="fill:#2d4b9a;fill-opacity:1;fill-rule:nonzero;stroke:none"
             id="path26"
             inkscape:connector-curvature="0" /></g><g
           id="g28"
           transform="translate(88.645,61.5244)"><path
             d="M 0,0 C -1.167,-2.021 -1.75,-4.633 -1.75,-7.836 V -18.69 h 19.539 v 13.414 c 0,3.099 1.218,4.649 3.658,4.649 2.506,0 3.76,-1.795 3.76,-5.382 V -18.69 h 19.539 v 11.585 c 0,3.099 -0.471,5.608 -1.411,7.524 -0.941,1.913 -2.595,3.673 -4.962,5.275 2.332,1.532 3.978,3.299 4.937,5.304 0.957,2.002 1.436,4.64 1.436,7.914 V 30.754 H 25.207 V 17.188 c 0,-3.101 -1.237,-4.651 -3.709,-4.651 -1.081,0 -1.967,0.437 -2.665,1.307 -0.697,0.87 -1.044,1.986 -1.044,3.344 V 30.754 H -1.75 V 19.643 C -1.75,16.405 -1.167,13.74 0,11.65 1.166,9.56 3.195,7.575 6.085,5.694 3.195,3.918 1.166,2.02 0,0"
             style="fill:#2d4b9a;fill-opacity:1;fill-rule:nonzero;stroke:none"
             id="path30"
             inkscape:connector-curvature="0" /></g><g
           id="g32"
           transform="translate(37.8105,42.834)"><path
             d="m 0,0 v 25.662 c 0,2.996 1.219,4.494 3.657,4.494 2.473,0 3.709,-1.498 3.709,-4.494 V 0 h 19.539 v 23.73 c 0,7.523 -1.759,13.39 -5.277,17.606 -4.492,5.398 -10.466,8.097 -17.918,8.097 -6.514,0 -12.017,-2.325 -16.51,-6.973 -4.492,-4.65 -6.739,-10.371 -6.739,-17.163 V 0 Z"
             style="fill:#2d4b9a;fill-opacity:1;fill-rule:nonzero;stroke:none"
             id="path34"
             inkscape:connector-curvature="0" /></g></g></g></g></svg>